<svg width="94" height="93" viewBox="0 0 94 93" fill="none" xmlns="http://www.w3.org/2000/svg">
<g clip-path="url(#clip0_8_161)">
<path d="M0.5 47.5931C0.5 47.7507 0.518761 47.9082 0.528142 48.0559C0.528142 48.1938 0.546903 48.3317 0.556284 48.4695C0.575045 48.6468 0.593807 48.824 0.612568 49.0111C0.631329 49.1392 0.64071 49.2672 0.650091 49.3952C0.678233 49.5921 0.706375 49.7793 0.734517 49.9664C0.753278 50.0845 0.762659 50.1928 0.78142 50.311C0.828324 50.6064 0.884608 50.9117 0.950272 51.2071C0.978414 51.3352 1.00656 51.4632 1.0347 51.5912C1.07222 51.7586 1.10974 51.9359 1.15665 52.1033C1.19417 52.251 1.23169 52.3888 1.26922 52.5267C1.30674 52.6744 1.34426 52.8221 1.39116 52.9698C1.43807 53.1176 1.48497 53.2653 1.53187 53.4031C1.57878 53.541 1.6163 53.6887 1.6632 53.8266C1.71011 53.9743 1.76639 54.122 1.82268 54.2697C1.86958 54.4076 1.91648 54.5356 1.97277 54.6735C2.02905 54.8212 2.09471 54.9689 2.151 55.1166C2.20728 55.2446 2.25419 55.3726 2.31047 55.5007C2.37613 55.6484 2.4418 55.7961 2.50746 55.934C2.56375 56.062 2.62003 56.1801 2.67632 56.3082C2.75136 56.4559 2.81703 56.5937 2.89207 56.7414C2.94836 56.8596 3.01402 56.9778 3.07969 57.096C3.15473 57.2338 3.23916 57.3815 3.3142 57.5194C3.37987 57.6376 3.44553 57.7557 3.5112 57.8641C3.59562 58.0019 3.68005 58.1398 3.76447 58.2777C3.83014 58.386 3.90518 58.5042 3.97085 58.6125C4.05528 58.7503 4.14908 58.8882 4.24289 59.0162C4.31793 59.1245 4.3836 59.2329 4.45864 59.3412C4.55245 59.4791 4.64626 59.6071 4.74945 59.7351C4.82449 59.8434 4.89954 59.9419 4.98396 60.0404C5.08715 60.1684 5.18096 60.2964 5.28414 60.4244C5.35919 60.5229 5.44362 60.6214 5.52804 60.7198C5.62185 60.838 5.72504 60.9463 5.81884 61.0645L18.7267 47.5833H0.5V47.5931Z" fill="#FFDE17"/>
<path d="M16.2971 67.5738C16.5222 67.6329 16.7379 67.6821 16.9631 67.7313C17.1882 67.4359 17.4227 67.1405 17.676 66.8549C17.676 66.8451 17.6948 66.8352 17.7042 66.8254C17.7792 66.7466 17.8449 66.6678 17.9199 66.589C17.9481 66.5595 17.9762 66.5299 18.0043 66.5004C18.0606 66.4413 18.1169 66.3822 18.1826 66.3133C18.2389 66.2641 18.2858 66.205 18.342 66.1557C18.3796 66.1163 18.4265 66.077 18.464 66.0376C18.5484 65.9489 18.6422 65.8702 18.736 65.7815C18.7454 65.7815 18.7548 65.7618 18.7642 65.752C20.2182 64.4226 22.1131 63.1424 24.6083 61.6554C26.2875 60.6608 28.2387 59.5677 30.5088 58.327L32.263 57.3619L37.2629 54.5849C37.5724 54.4076 37.8914 54.2304 38.2103 54.0531C38.3416 53.9842 38.4636 53.9054 38.5949 53.8365C38.5949 53.8365 38.5949 53.8365 38.6043 53.8365C38.6324 53.8168 38.6606 53.8069 38.6887 53.7971C38.8857 53.7085 39.1015 53.6986 39.2985 53.738C39.4673 53.7774 39.6268 53.8562 39.7581 53.9743L40.4804 54.6341C41.2496 52.6351 41.7187 50.5671 41.8969 48.4794C41.8969 48.4499 41.8969 48.4203 41.8969 48.3908C41.9157 48.184 41.9251 47.9772 41.9438 47.7606C41.9438 47.7113 41.9438 47.6621 41.9438 47.6128C41.9532 47.3962 41.9626 47.1697 41.9626 46.9531C41.9626 46.8841 41.9626 46.8152 41.9626 46.7463C41.9626 46.569 41.9626 46.3819 41.9626 46.2047C41.9626 46.1554 41.9626 46.0963 41.9626 46.0471C41.9063 43.2209 41.3153 40.434 40.2365 37.8343C40.2178 37.7752 40.1896 37.7259 40.1709 37.6669C40.0958 37.4797 40.0114 37.3025 39.927 37.1154C39.8707 36.9874 39.805 36.8495 39.7394 36.7215C39.7206 36.6821 39.7018 36.6329 39.6737 36.5935C37.76 32.7234 34.7582 29.523 31.0998 27.4353C30.959 27.3565 30.809 27.2777 30.6682 27.1989C30.6682 27.1989 30.6589 27.1989 30.6495 27.1989C30.5088 27.1202 30.3587 27.0512 30.218 26.9724C30.218 26.9724 30.1992 26.9724 30.1898 26.9626C30.0491 26.8937 29.9084 26.8247 29.7583 26.7558C29.7489 26.7558 29.7396 26.7459 29.7302 26.7361C29.5895 26.6672 29.4488 26.6081 29.308 26.5392C29.2987 26.5392 29.2799 26.5293 29.2705 26.5195C29.1298 26.4604 28.9891 26.4013 28.839 26.3324C28.8203 26.3324 28.8109 26.3225 28.8015 26.3127C28.6608 26.2536 28.5201 26.1945 28.37 26.1452C28.3512 26.1452 28.3418 26.1354 28.3231 26.1256C28.1824 26.0665 28.0323 26.0172 27.8916 25.968C27.8728 25.968 27.8634 25.9581 27.8447 25.9483C27.704 25.8991 27.5539 25.8498 27.4038 25.8006C27.385 25.8006 27.3756 25.7907 27.3569 25.7809C27.2068 25.7317 27.0661 25.6824 26.916 25.643C26.8972 25.643 26.8878 25.643 26.8691 25.6332C26.719 25.5938 26.5689 25.5446 26.4188 25.5052C26.4 25.5052 26.3907 25.5052 26.3813 25.4953C26.2312 25.4559 26.0717 25.4165 25.9216 25.3771C25.9122 25.3771 25.8935 25.3771 25.8841 25.3771C25.7246 25.3378 25.5652 25.2984 25.4151 25.2688C25.4151 25.2688 25.3963 25.2688 25.3869 25.2688C25.2275 25.2393 25.0586 25.1999 24.8991 25.1703C24.8991 25.1703 24.8898 25.1703 24.8804 25.1703C24.0173 25.0128 23.1449 24.9045 22.2444 24.8552V46.5099L22.2538 46.5296C22.2538 46.5887 22.2538 46.6576 22.235 46.7167C22.2256 46.7758 22.2069 46.8349 22.1787 46.894C22.1787 46.9137 22.1694 46.9235 22.16 46.9432C22.1412 46.9826 22.1225 47.0318 22.0943 47.0712C22.0849 47.0909 22.0755 47.1008 22.0662 47.1205C22.0286 47.1697 22.0005 47.2189 21.9536 47.2583L7.28223 62.5712C9.49607 64.6688 12.0945 66.2247 14.9181 67.1602C14.9369 67.1602 14.9462 67.17 14.965 67.1799C15.162 67.239 15.359 67.3079 15.556 67.367C15.6029 67.3768 15.6404 67.3965 15.6873 67.4064C15.8843 67.4655 16.0813 67.5147 16.2689 67.5639L16.2971 67.5738Z" fill="#FFDE17"/>
<path d="M20.1994 24.8453C10.6405 25.3377 2.77012 32.6051 0.893988 42.1375C0.856466 42.305 0.828324 42.4822 0.800182 42.6496C0.762659 42.8466 0.734517 43.0435 0.706375 43.2306C0.687613 43.3488 0.668852 43.4768 0.659471 43.6048C0.631329 43.8412 0.603187 44.0775 0.575045 44.3138C0.575045 44.3926 0.565665 44.4714 0.556284 44.5502C0.537523 44.8259 0.509381 45.1017 0.5 45.3872V45.4069H20.2182L20.2088 24.8354L20.1994 24.8453Z" fill="#FFDE17"/>
<path d="M55.2081 45.4168C61.8215 45.4168 66.2586 40.109 68.8195 35.6579C71.8026 30.4584 73.735 23.6636 73.735 18.3361C73.735 8.22268 65.4237 0 55.2175 0C45.0114 0 36.7001 8.22268 36.7001 18.3361C36.7001 23.6636 38.6325 30.4584 41.6155 35.6579C44.1765 40.109 48.6135 45.4168 55.2269 45.4168H55.2081Z" fill="#FFDE17"/>
<path d="M91.4175 69.7993C89.2506 66.3724 84.6728 63.812 75.5548 58.711C74.1477 57.9232 72.5624 57.0369 70.8832 56.0916L55.5833 70.0849C55.1894 70.4394 54.6171 70.4394 54.2231 70.0849L40.1897 57.2339L38.9514 56.1014L38.4918 56.3673L38.3979 56.4264C38.3979 56.4264 38.3792 56.4362 38.3698 56.4461L38.3417 56.4658L38.2854 56.4953L38.2385 56.5248L38.2009 56.5445L37.2723 57.0665C37.2723 57.0665 37.2441 57.0862 37.2347 57.0862L37.1691 57.1255C35.5181 58.0414 33.9984 58.8883 32.6007 59.6564C32.4225 59.7548 32.2442 59.8533 32.066 59.9518H32.0566C32.0566 59.9518 31.9722 60.001 31.9347 60.0207C31.1936 60.4245 30.49 60.8184 29.824 61.1926C29.824 61.1926 29.8146 61.1926 29.8052 61.1926L29.6927 61.2517C29.4863 61.3698 29.2799 61.4781 29.0829 61.5963C29.0736 61.5963 29.0548 61.616 29.036 61.616C28.8484 61.7243 28.6702 61.8228 28.4826 61.9213C28.3981 61.9705 28.3137 62.0198 28.2199 62.069C28.1167 62.1281 28.0042 62.1872 27.901 62.2463C27.8822 62.2561 27.8634 62.266 27.8447 62.2758C27.6852 62.3644 27.5351 62.4531 27.3757 62.5417L27.0755 62.7091C27.0755 62.7091 27.0004 62.7485 26.9629 62.7682C24.7866 64.0188 23.1825 65.0233 21.9442 65.9292C21.6816 66.1262 21.4189 66.3133 21.175 66.5102C21.0625 66.5989 20.9405 66.6973 20.8279 66.786C20.7904 66.8155 20.7529 66.845 20.7154 66.8844C20.6779 66.9238 20.6309 66.9534 20.5934 66.9928C20.509 67.0617 20.4246 67.1405 20.3495 67.2094C20.2463 67.3079 20.1432 67.3965 20.04 67.4851C20.04 67.4851 20.04 67.4851 20.0306 67.495C20.0306 67.495 20.0212 67.495 20.0118 67.5048C19.9462 67.5639 19.8805 67.6328 19.8148 67.6919C19.7773 67.7313 19.7398 67.7609 19.7023 67.8003L19.6835 67.82C19.6835 67.82 19.646 67.8593 19.6272 67.879C19.5522 67.9578 19.4677 68.0464 19.3833 68.1351C19.3646 68.1548 19.3552 68.1646 19.3364 68.1843C19.3083 68.2237 19.2708 68.2532 19.2332 68.2926C19.1863 68.3419 19.1394 68.401 19.0925 68.4502C19.0738 68.4797 19.0456 68.4994 19.0269 68.529C18.9612 68.6078 18.8955 68.6964 18.8299 68.7752C18.8111 68.7949 18.7923 68.8146 18.7736 68.8441C18.7548 68.8736 18.7267 68.9032 18.7079 68.9327C18.6891 68.9623 18.661 68.9918 18.6422 69.0312C18.6047 69.0804 18.5766 69.1198 18.5391 69.1691C18.5391 69.1789 18.5203 69.1888 18.5203 69.1986C18.4546 69.2872 18.3983 69.3759 18.3327 69.4645C18.3233 69.4842 18.3045 69.5039 18.2952 69.5236C18.2952 69.5334 18.2764 69.5433 18.267 69.5531C18.2014 69.6516 18.1451 69.7402 18.0888 69.8387C16.147 73.1179 16.1939 77.7856 16.2877 87.062C16.3065 88.8346 16.3252 90.8139 16.3346 92.9804H93.4719C93.4719 90.7942 93.4719 88.805 93.4906 87.0128C93.5375 77.7856 93.5657 73.1573 91.4269 69.7698L91.4175 69.7993ZM56.8873 87.8892H52.9005V83.7532H56.8873V87.8892ZM56.8873 79.6173H52.9005V75.4715H56.8873V79.6173Z" fill="#FFDE17"/>
</g>
<defs>
<clipPath id="clip0_8_161">
<rect width="93" height="93" fill="white" transform="translate(0.5)"/>
</clipPath>
</defs>
</svg>
