<svg width="45" height="52" viewBox="0 0 45 52" fill="none" xmlns="http://www.w3.org/2000/svg">
<path d="M23.034 12.1212H21.9624V27.1476H23.034V12.1212Z" fill="#0476AF"/>
<path d="M37.4919 30.1313H7.50488V24.6997H8.57619V29.0598H36.4205V24.6997H37.4919V30.1313Z" fill="#0476AF"/>
<path d="M44.2782 18.4405C44.2782 22.4746 41.0056 25.7615 36.9561 25.7615C32.9391 25.7615 29.6372 22.5024 29.6372 18.4405C29.6372 14.3975 32.914 11.1187 36.9561 11.1187C41.0001 11.1187 44.2782 14.3975 44.2782 18.4405Z" fill="#3DC0CD"/>
<path d="M41.032 22.853C40.6468 22.604 40.6788 18.3668 40.6906 17.4275C40.7711 11.4964 33.1697 11.5813 33.2219 17.2399C33.23 18.2608 33.2925 22.587 32.8821 22.853C35.0564 24.5445 38.6641 24.6951 41.032 22.853Z" fill="#A54021"/>
<path d="M38.7686 19.0515H35.1455V20.1776H38.7686V19.0515Z" fill="#3DC0CD"/>
<path d="M38.3495 18.5997H35.5646C35.5205 18.9128 35.3488 19.8264 35.0508 20.0773C35.0727 23.0592 38.9051 23.0468 38.8629 20.0773C38.5652 19.8265 38.3932 18.9128 38.3495 18.5997Z" fill="#F49D56"/>
<path d="M36.956 13.3709L34.4858 14.8975L34.9738 18.37C34.9738 18.37 35.7983 19.5212 36.956 19.5212C38.1158 19.5212 38.9403 18.37 38.9403 18.37L39.4284 14.8975L36.956 13.3709Z" fill="#FCB87A"/>
<path d="M34.7786 16.2903C34.3243 15.9013 33.9909 16.3776 34.5227 17.192C34.5227 17.192 34.4808 17.4597 34.8612 17.4597L34.7786 16.2903Z" fill="#FCB87A"/>
<path d="M39.1354 16.2903C39.5895 15.9013 39.9214 16.3776 39.3911 17.192C39.3911 17.192 39.4318 17.4597 39.0513 17.4597L39.1354 16.2903Z" fill="#FCB87A"/>
<path d="M39.3458 19.9444L36.956 20.0766L34.5679 19.9444L33.2825 20.7488C33.7133 22.0667 36.3049 24.0792 36.956 24.6986V24.7003C37.609 24.0801 40.2006 22.0675 40.6317 20.7488L39.3458 19.9444Z" fill="#3DC0CD"/>
<path d="M42.0944 23.656C40.773 24.9568 38.9603 25.7615 36.9562 25.7615C34.9588 25.7615 33.1429 24.9586 31.8198 23.6551L32.0236 21.7755C32.5034 20.3734 34.5681 19.9444 34.5681 19.9444L36.9562 24.6998L39.346 19.9444C39.346 19.9444 41.4122 20.3746 41.8902 21.7763L42.0944 23.656Z" fill="#E2340C"/>
<path d="M35.1456 19.0515L36.9561 20.0766L35.7817 21.3632L34.4148 19.8704L35.1456 19.0515Z" fill="#BFE0E2"/>
<path d="M38.7689 19.0515L36.9563 20.0766L38.1309 21.3632L39.4994 19.8713L38.7689 19.0515Z" fill="#BFE0E2"/>
<path d="M36.9561 13.1573C33.5769 13.3709 34.1979 16.4457 34.1979 16.4457H39.7179C39.7179 16.4457 40.3371 13.3709 36.9561 13.1573Z" fill="#7F220D"/>
<path d="M15.3626 18.4405C15.3626 22.4746 12.0897 25.7615 8.04044 25.7615C4.02356 25.7615 0.72168 22.5024 0.72168 18.4405C0.72168 14.3975 3.99827 11.1187 8.04044 11.1187C12.0844 11.1187 15.3626 14.3975 15.3626 18.4405Z" fill="#3DC0CD"/>
<path d="M12.1164 19.4084C11.7314 19.1593 11.7632 18.3669 11.7753 17.4275C11.8557 11.4965 4.25414 11.5814 4.30637 17.2399C4.3144 18.2609 4.3769 19.1425 3.96655 19.4084C6.14602 21.1039 9.75439 21.2459 12.1164 19.4084Z" fill="#A54021"/>
<path d="M9.8534 19.0515H6.22998V20.1776H9.8534V19.0515Z" fill="#3DC0CD"/>
<path d="M9.43401 18.5997H6.64906C6.60472 18.9128 6.43349 19.8264 6.13525 20.0773C6.15727 23.0592 9.98959 23.0468 9.94734 20.0773C9.64977 19.8265 9.4776 18.9128 9.43401 18.5997Z" fill="#F49D56"/>
<path d="M8.0405 13.3709L5.57056 14.8975L6.05825 18.37C6.05825 18.37 6.88281 19.5212 8.0405 19.5212C9.20027 19.5212 10.0248 18.37 10.0248 18.37L10.5129 14.8975L8.0405 13.3709Z" fill="#FCB87A"/>
<path d="M5.86295 16.2903C5.40879 15.9013 5.07544 16.3776 5.60712 17.192C5.60712 17.192 5.56519 17.4597 5.94563 17.4597L5.86295 16.2903Z" fill="#FCB87A"/>
<path d="M10.2197 16.2903C10.6741 15.9013 11.0057 16.3776 10.4754 17.192C10.4754 17.192 10.5159 17.4597 10.1357 17.4597L10.2197 16.2903Z" fill="#FCB87A"/>
<path d="M10.4303 19.9444L8.04042 20.0766L5.6526 19.9444L4.36694 20.7488C4.79767 22.0667 7.38934 24.0792 8.04042 24.6986V24.7003C8.6935 24.0801 11.2851 22.0675 11.7163 20.7488L10.4303 19.9444Z" fill="#3DC0CD"/>
<path d="M13.1787 23.656C11.8572 24.9568 10.0445 25.7615 8.04045 25.7615C6.0431 25.7615 4.22712 24.9586 2.90405 23.6551L3.1079 21.7755C3.58766 20.3734 5.65264 19.9444 5.65264 19.9444L8.04045 24.6998L10.4303 19.9444C10.4303 19.9444 12.4965 20.3746 12.9747 21.7763L13.1787 23.656Z" fill="#333232"/>
<path d="M6.22983 19.0515L8.04038 20.0766L6.86605 21.3632L5.49902 19.8704L6.22983 19.0515Z" fill="#BFE0E2"/>
<path d="M9.8534 19.0515L8.04053 20.0766L9.21533 21.3632L10.5835 19.8713L9.8534 19.0515Z" fill="#BFE0E2"/>
<path d="M8.04056 13.1573C4.6613 13.3709 5.28243 16.4457 5.28243 16.4457H10.8024C10.8024 16.4457 11.4213 13.3709 8.04056 13.1573Z" fill="#A54021"/>
<path d="M8.35913 18.1377V16.7815H10.3372C10.4398 17.537 10.1494 18.1377 9.38889 18.1377C9.39439 18.1377 8.39417 18.1377 8.35913 18.1377ZM8.61238 17.8844H9.38889C9.62121 17.8844 9.7993 17.8157 9.91788 17.6802C10.0894 17.4852 10.1104 17.1923 10.1076 17.0346H8.61238V17.8844Z" fill="#10122B"/>
<path d="M6.69162 18.1377C5.93111 18.1377 5.64046 17.537 5.74305 16.7815H7.72123V18.1377C7.68619 18.1377 6.68597 18.1377 6.69162 18.1377ZM7.46791 17.0346H5.97262C5.97002 17.1923 5.9911 17.4852 6.16212 17.6802C6.28108 17.8157 6.45907 17.8844 6.69155 17.8844H7.46791V17.0346Z" fill="#10122B"/>
<path d="M8.70188 16.7814H7.37866V17.0347H8.70188V16.7814Z" fill="#10122B"/>
<path d="M37.2764 18.1377V16.7815H39.2545C39.3571 17.537 39.0667 18.1377 38.3059 18.1377C38.3115 18.1377 37.3113 18.1377 37.2764 18.1377ZM37.5294 17.8844H38.3059C38.5383 17.8844 38.7165 17.8157 38.8353 17.6802C39.0065 17.4852 39.0274 17.1923 39.0251 17.0346H37.5294L37.5294 17.8844Z" fill="#10122B"/>
<path d="M35.6091 18.1377C34.8483 18.1377 34.5581 17.537 34.6605 16.7815H36.6386V18.1377C36.6036 18.1377 35.6036 18.1377 35.6091 18.1377ZM36.3853 17.0346H34.8898C34.8872 17.1923 34.9084 17.4852 35.0796 17.6802C35.1985 17.8157 35.3766 17.8844 35.6091 17.8844H36.3853V17.0346Z" fill="#10122B"/>
<path d="M37.6191 16.7814H36.2959V17.0347H37.6191V16.7814Z" fill="#10122B"/>
<path d="M29.8201 7.32094C29.8201 11.3413 26.5629 14.6418 22.4979 14.6418C18.4929 14.6418 15.1797 11.3932 15.1797 7.32094C15.1797 3.27869 18.4558 0 22.4979 0C26.5414 0 29.8201 3.27869 29.8201 7.32094Z" fill="#3DC0CD"/>
<path d="M24.6381 8.90787H20.3618V10.2349H24.6381V8.90787Z" fill="#3DC0CD"/>
<path d="M20.8573 8.37521H24.1425C24.1955 8.74442 24.3989 9.8222 24.75 10.1192C24.7234 13.6377 20.2002 13.6225 20.2514 10.1192C20.601 9.8222 20.8063 8.74442 20.8573 8.37521Z" fill="#F49D56"/>
<path d="M22.4999 2.20529L25.4168 4.00661L24.8395 8.10341C24.8395 8.10341 23.8669 9.46306 22.4999 9.46306C21.1326 9.46306 20.1601 8.10341 20.1601 8.10341L19.583 4.00661L22.4999 2.20529Z" fill="#FCB87A"/>
<path d="M25.3174 11.4783C24.9731 12.5377 24.1467 13.7122 23.414 14.5856C23.1141 14.6231 22.8087 14.6419 22.498 14.6419C22.1885 14.6419 21.8845 14.6231 21.5846 14.5843C20.8505 13.7123 20.0269 12.5365 19.6814 11.4784L21.1479 10.2716L22.4995 10.1163L23.8522 10.2716L25.3174 11.4783Z" fill="#BEC1C6"/>
<path d="M25.071 5.65017C25.6069 5.19147 25.9997 5.75275 25.3735 6.71494C25.3735 6.71494 25.4223 7.03096 24.9744 7.03096L25.071 5.65017Z" fill="#FCB87A"/>
<path d="M19.9288 5.65017C19.3935 5.19147 18.9998 5.75275 19.6267 6.71494C19.6267 6.71494 19.5793 7.03096 20.0272 7.03096L19.9288 5.65017Z" fill="#FCB87A"/>
<path d="M25.1982 5.85441C25.1982 5.85441 25.3257 5.7963 25.4313 5.85441C25.4313 5.85441 25.5592 5.91201 25.4771 6.08423L25.2987 6.57319C25.2987 6.57319 25.1794 6.52372 25.0859 6.57319C25.0329 6.25881 25.6329 5.96912 25.1982 5.85441Z" fill="#F49D56"/>
<path d="M19.8011 5.85441C19.8011 5.85441 19.6741 5.7963 19.5663 5.85441C19.5663 5.85441 19.4407 5.91201 19.522 6.08423L19.7007 6.57319C19.7007 6.57319 19.822 6.52372 19.9156 6.57319C19.9663 6.25881 19.3662 5.96912 19.8011 5.85441Z" fill="#F49D56"/>
<path d="M25.2704 5.52108L24.9741 6.45508H24.6398L24.9038 4.1121C24.4538 3.3989 23.6542 3.42062 22.5 3.54046C21.3453 3.42062 20.5461 3.3989 20.0962 4.1121L20.36 6.45508H20.0273L19.7293 5.52108C17.5416 0.279188 27.4579 0.279188 25.2704 5.52108Z" fill="#8E391B"/>
<path d="M19.0983 9.62201L21.9554 14.6205C21.8309 14.6124 21.7077 14.6003 21.5845 14.5843C19.3289 14.3029 17.3817 12.9892 16.2432 11.1234C17.3024 10.1189 19.0983 9.62201 19.0983 9.62201Z" fill="#333232"/>
<path d="M28.7553 11.1233C27.6208 12.9837 25.6789 14.3028 23.4138 14.5855C23.2906 14.6003 23.1674 14.6137 23.043 14.6205L25.9011 9.62201C25.9011 9.62201 27.6972 10.1189 28.7553 11.1233Z" fill="#333232"/>
<path d="M20.3618 8.90787L22.5 10.1167L21.1133 11.6343L19.4998 9.87413L20.3618 8.90787Z" fill="white"/>
<path d="M24.6384 8.90787L22.5002 10.1167L23.8862 11.6343L25.5001 9.87413L24.6384 8.90787Z" fill="white"/>
<path d="M21.8827 14.615C21.7822 14.607 21.6831 14.5976 21.5842 14.5842C21.1945 14.5361 20.8127 14.4556 20.4442 14.3471C20.0196 13.9988 19.5899 13.5676 19.2201 13.0466C19.6059 12.6314 19.9849 12.2229 19.9849 12.2229L17.9946 9.90981L20.0009 9.06204C20.3132 10.1095 20.6868 12.4989 21.8827 14.615Z" fill="#515050"/>
<path d="M25.0129 12.2229C25.0129 12.2229 25.3932 12.6314 25.7792 13.0466C25.4081 13.569 24.9769 14.0002 24.5521 14.35C24.1838 14.4584 23.8035 14.5375 23.4137 14.5856C23.3146 14.5976 23.2157 14.6084 23.1165 14.6151C24.3139 12.4989 24.6861 10.1095 24.9982 9.06198L27.0032 9.90975L25.0129 12.2229Z" fill="#515050"/>
<path d="M35.3077 35.3768H10.0813V44.2153H35.3077V35.3768Z" fill="#FFBC00"/>
<path d="M35.3079 33.8095H10.0815V43.4375H35.3079V33.8095Z" fill="#0476AF"/>
<path d="M13.3134 37.6116C13.3134 37.7524 13.2013 37.866 13.0638 37.866H11.4494C11.3117 37.866 11.2004 37.7524 11.2004 37.6116V36.5331C11.2004 36.392 11.3117 36.2785 11.4494 36.2785H13.0638C13.2014 36.2785 13.3134 36.392 13.3134 36.5331V37.6116Z" fill="#A2C0CC"/>
<path d="M15.9216 37.6116C15.9216 37.7524 15.8107 37.866 15.6731 37.866H14.058C13.9211 37.866 13.8098 37.7524 13.8098 37.6116V36.5331C13.8098 36.392 13.9211 36.2785 14.058 36.2785H15.6731C15.8107 36.2785 15.9216 36.392 15.9216 36.5331V37.6116Z" fill="#36C6FF"/>
<path d="M18.5317 37.6116C18.5317 37.7524 18.42 37.866 18.2827 37.866H16.668C16.5306 37.866 16.4189 37.7524 16.4189 37.6116V36.5331C16.4189 36.392 16.5306 36.2785 16.668 36.2785H18.2827C18.42 36.2785 18.5317 36.392 18.5317 36.5331V37.6116Z" fill="#36C6FF"/>
<path d="M21.142 37.6116C21.142 37.7524 21.0299 37.866 20.8921 37.866H19.2771C19.1399 37.866 19.0283 37.7524 19.0283 37.6116V36.5331C19.0283 36.392 19.1399 36.2785 19.2771 36.2785H20.8921C21.03 36.2785 21.142 36.392 21.142 36.5331V37.6116Z" fill="#36C6FF"/>
<path d="M23.7505 37.6116C23.7505 37.7524 23.6395 37.866 23.5025 37.866H21.8869C21.7496 37.866 21.6379 37.7524 21.6379 37.6116V36.5331C21.6379 36.392 21.7496 36.2785 21.8869 36.2785H23.5025C23.6395 36.2785 23.7505 36.392 23.7505 36.5331V37.6116Z" fill="#FFBC00"/>
<path d="M26.3602 37.6116C26.3602 37.7524 26.2494 37.866 26.1119 37.866H24.4958C24.3587 37.866 24.2483 37.7524 24.2483 37.6116V36.5331C24.2483 36.392 24.3587 36.2785 24.4958 36.2785H26.1119C26.2494 36.2785 26.3602 36.392 26.3602 36.5331V37.6116Z" fill="#FFBC00"/>
<path d="M28.9701 37.6116C28.9701 37.7524 28.8589 37.866 28.7215 37.866H27.1053C26.9682 37.866 26.8567 37.7524 26.8567 37.6116V36.5331C26.8567 36.392 26.9682 36.2785 27.1053 36.2785H28.7215C28.8589 36.2785 28.9701 36.392 28.9701 36.5331V37.6116Z" fill="#FFBC00"/>
<path d="M31.5792 37.6116C31.5792 37.7524 31.4678 37.866 31.3308 37.866H29.7161C29.5777 37.866 29.4675 37.7524 29.4675 37.6116V36.5331C29.4675 36.392 29.5776 36.2785 29.7161 36.2785H31.3308C31.4678 36.2785 31.5792 36.392 31.5792 36.5331V37.6116Z" fill="#FFBC00"/>
<path d="M34.1884 37.6116C34.1884 37.7524 34.0772 37.866 33.9401 37.866H32.3245C32.1878 37.866 32.0767 37.7524 32.0767 37.6116V36.5331C32.0767 36.392 32.1878 36.2785 32.3245 36.2785H33.9401C34.0772 36.2785 34.1884 36.392 34.1884 36.5331V37.6116Z" fill="#FFBC00"/>
<path d="M13.3129 39.5491C13.3129 39.6894 13.2008 39.8031 13.0633 39.8031H11.449C11.3112 39.8031 11.2 39.6894 11.2 39.5491V38.4695C11.2 38.3293 11.3112 38.2155 11.449 38.2155H13.0633C13.2009 38.2155 13.3129 38.3293 13.3129 38.4695V39.5491Z" fill="#A2C0CC"/>
<path d="M15.9214 39.5491C15.9214 39.6894 15.8105 39.8031 15.6729 39.8031H14.0577C13.9209 39.8031 13.8096 39.6894 13.8096 39.5491V38.4695C13.8096 38.3293 13.9209 38.2155 14.0577 38.2155H15.6729C15.8105 38.2155 15.9214 38.3293 15.9214 38.4695V39.5491Z" fill="#A2C0CC"/>
<path d="M18.5315 39.5491C18.5315 39.6894 18.4198 39.8031 18.2825 39.8031H16.6677C16.5303 39.8031 16.4187 39.6894 16.4187 39.5491V38.4695C16.4187 38.3293 16.5303 38.2155 16.6677 38.2155H18.2825C18.4198 38.2155 18.5315 38.3293 18.5315 38.4695V39.5491Z" fill="#A2C0CC"/>
<path d="M21.1417 39.5491C21.1417 39.6894 21.0297 39.8031 20.8918 39.8031H19.2769C19.1397 39.8031 19.0281 39.6894 19.0281 39.5491V38.4695C19.0281 38.3293 19.1397 38.2155 19.2769 38.2155H20.8918C21.0298 38.2155 21.1417 38.3293 21.1417 38.4695V39.5491Z" fill="#FFBC00"/>
<path d="M23.7503 39.5491C23.7503 39.6894 23.6393 39.8031 23.5023 39.8031H21.8867C21.7494 39.8031 21.6377 39.6894 21.6377 39.5491V38.4695C21.6377 38.3293 21.7494 38.2155 21.8867 38.2155H23.5023C23.6393 38.2155 23.7503 38.3293 23.7503 38.4695V39.5491Z" fill="#FFBC00"/>
<path d="M26.36 39.5491C26.36 39.6894 26.2491 39.8031 26.1117 39.8031H24.4956C24.3585 39.8031 24.248 39.6894 24.248 39.5491V38.4695C24.248 38.3293 24.3585 38.2155 24.4956 38.2155H26.1117C26.2491 38.2155 26.36 38.3293 26.36 38.4695V39.5491Z" fill="#FFBC00"/>
<path d="M28.9699 39.3739C28.9699 39.5139 28.8586 39.6278 28.7212 39.6278H27.1051C26.968 39.6278 26.8564 39.5139 26.8564 39.3739V38.2941C26.8564 38.1539 26.968 38.0401 27.1051 38.0401H28.7212C28.8586 38.0401 28.9699 38.1539 28.9699 38.2941V39.3739Z" fill="#A2C0CC"/>
<path d="M31.579 39.3739C31.579 39.5139 31.4676 39.6278 31.3306 39.6278H29.7158C29.5774 39.6278 29.4673 39.5139 29.4673 39.3739V38.2941C29.4673 38.1539 29.5774 38.0401 29.7158 38.0401H31.3306C31.4676 38.0401 31.579 38.1539 31.579 38.2941V39.3739Z" fill="#A2C0CC"/>
<path d="M34.1882 39.5491C34.1882 39.6894 34.077 39.8031 33.9399 39.8031H32.3243C32.1876 39.8031 32.0764 39.6894 32.0764 39.5491V38.4695C32.0764 38.3293 32.1876 38.2155 32.3243 38.2155H33.9399C34.077 38.2155 34.1882 38.3293 34.1882 38.4695V39.5491Z" fill="#FF9100"/>
<path d="M13.3129 41.4862C13.3129 41.6259 13.2008 41.7399 13.0633 41.7399H11.449C11.3112 41.7399 11.2 41.6259 11.2 41.4862V40.406C11.2 40.2658 11.3112 40.1518 11.449 40.1518H13.0633C13.2009 40.1518 13.3129 40.2658 13.3129 40.406V41.4862Z" fill="#A2C0CC"/>
<path d="M15.9214 41.4862C15.9214 41.6259 15.8105 41.7399 15.6729 41.7399H14.0577C13.9209 41.7399 13.8096 41.6259 13.8096 41.4862V40.406C13.8096 40.2658 13.9209 40.1518 14.0577 40.1518H15.6729C15.8105 40.1518 15.9214 40.2658 15.9214 40.406V41.4862Z" fill="#A2C0CC"/>
<path d="M26.1117 40.1518H16.668C16.5306 40.1518 16.4189 40.2658 16.4189 40.406V41.4862C16.4189 41.6259 16.5306 41.7399 16.668 41.7399H26.1117C26.2492 41.7399 26.36 41.6259 26.36 41.4862V40.406C26.36 40.2659 26.2491 40.1518 26.1117 40.1518Z" fill="#A2C0CC"/>
<path d="M28.9699 41.3109C28.9699 41.4507 28.8586 41.5647 28.7212 41.5647H27.1051C26.968 41.5647 26.8564 41.4507 26.8564 41.3109V40.2307C26.8564 40.0904 26.968 39.9763 27.1051 39.9763H28.7212C28.8586 39.9763 28.9699 40.0904 28.9699 40.2307V41.3109Z" fill="#A2C0CC"/>
<path d="M31.579 41.3109C31.579 41.4507 31.4676 41.5647 31.3306 41.5647H29.7158C29.5774 41.5647 29.4673 41.4507 29.4673 41.3109V40.2307C29.4673 40.0904 29.5774 39.9763 29.7158 39.9763H31.3306C31.4676 39.9763 31.579 40.0904 31.579 40.2307V41.3109Z" fill="#A2C0CC"/>
<path d="M34.1882 41.3109C34.1882 41.4507 34.077 41.5647 33.9399 41.5647H32.3243C32.1876 41.5647 32.0764 41.4507 32.0764 41.3109V40.2307C32.0764 40.0904 32.1876 39.9763 32.3243 39.9763H33.9399C34.077 39.9763 34.1882 40.0904 34.1882 40.2307V41.3109Z" fill="#A2C0CC"/>
<path d="M30.3193 34.5292H29.4253V35.305H30.3193V34.5292Z" fill="#FF9100"/>
<path d="M32.2325 34.5292H31.3389V35.305H32.2325V34.5292Z" fill="#FF9100"/>
<path d="M34.1464 34.5292H33.2527V35.305H34.1464V34.5292Z" fill="#FF9100"/>
<path d="M19.3695 41.3603L16.8075 44.9139C16.3708 45.5194 15.4388 44.8659 15.8842 44.2481L18.4461 40.6945C18.8865 40.0834 19.8095 40.7496 19.3695 41.3603Z" fill="#FFBF73"/>
<path d="M14.8149 39.741L13.5153 43.1357C13.2937 43.7142 12.4075 43.3883 12.6335 42.7982L13.9329 39.4034C14.1563 38.8199 15.0381 39.158 14.8149 39.741Z" fill="#FFBF73"/>
<path d="M11.0387 46.5571C10.8073 47.0943 9.95233 48.6923 9.69263 49.1051L12.9688 50.9729C13.6607 50.0476 14.0176 49.2268 14.556 48.548C16.3593 48.8777 17.6923 46.963 18.9366 46.1855C19.5484 45.8034 20.0404 45.5253 20.0404 45.5253C20.0404 45.5253 19.9223 44.6532 18.9775 44.9636C18.0326 45.2734 16.5524 46.6853 16.4292 46.0771C16.366 45.7666 17.183 44.3974 17.183 44.3974C17.183 44.3974 15.5993 43.3428 14.5895 42.9187C13.5793 42.4943 12.9091 42.4275 12.9091 42.4275C12.9091 42.4275 10.2788 45.8519 11.0387 46.5571Z" fill="#FFBF73"/>
<path d="M18.2141 39.9656L16.0441 43.7715C15.6744 44.4202 14.6782 43.8693 15.0556 43.2077L17.2254 39.4019C17.5985 38.748 18.5869 39.3118 18.2141 39.9656Z" fill="#FFBF73"/>
<path d="M18.6632 40.7137C18.415 41.0584 18.4147 41.053 18.3967 41.0954C18.5617 41.2793 18.7786 41.4354 19.0054 41.534C19.0396 41.5035 19.0345 41.5053 19.2828 41.1606C19.3882 41.0142 19.335 40.7956 19.1639 40.6723C18.9823 40.5417 18.7615 40.5775 18.6632 40.7137Z" fill="#F5802E"/>
<path d="M16.9807 39.8784L14.8259 43.6924C14.4585 44.3426 13.4605 43.7958 13.8352 43.1327L15.9898 39.3188C16.3603 38.6629 17.3509 39.223 16.9807 39.8784Z" fill="#FFBF73"/>
<path d="M16.2078 39.3136C15.9988 39.6833 15.9982 39.6782 15.9846 39.7222C16.169 39.887 16.4016 40.0184 16.6379 40.0913C16.6687 40.0571 16.6635 40.0597 16.8727 39.6894C16.9612 39.5322 16.884 39.3211 16.7006 39.2176C16.5058 39.1072 16.2905 39.1672 16.2078 39.3136Z" fill="#F5802E"/>
<path d="M14.111 39.3726C13.9854 39.7017 13.9839 39.6977 13.9783 39.7355C14.1498 39.848 14.3569 39.9272 14.5596 39.958C14.5807 39.9263 14.5771 39.9287 14.7031 39.5994C14.7566 39.4598 14.6669 39.2957 14.5037 39.2334C14.3307 39.167 14.1608 39.2421 14.111 39.3726Z" fill="#F5802E"/>
<path d="M18.9032 46.1402C18.9122 46.1567 18.9233 46.1715 18.9366 46.1852C19.5484 45.8034 20.0403 45.5255 20.0403 45.5255C19.948 45.3549 19.6187 45.3541 19.3046 45.5239C18.9909 45.6939 18.8107 45.9699 18.9032 46.1402Z" fill="#F5802E"/>
<path d="M17.4433 39.3979C17.2333 39.767 17.2324 39.7618 17.2188 39.8058C17.4025 39.9714 17.6348 40.1038 17.8707 40.1774C17.9015 40.1434 17.8965 40.1459 18.1071 39.7765C18.1963 39.6199 18.1198 39.4083 17.9369 39.3038C17.7423 39.1929 17.5269 39.2516 17.4433 39.3979Z" fill="#F5802E"/>
<path d="M17.2253 39.4019L15.2703 42.8313L17.2186 39.8058L17.2253 39.4019Z" fill="#F7A74F"/>
<path d="M27.5968 41.1235L29.2221 45.1917C29.4993 45.8853 30.5614 45.4766 30.279 44.7697L28.654 40.701C28.3746 40.0019 27.3178 40.4244 27.5968 41.1235Z" fill="#FFBF73"/>
<path d="M32.2687 43.1385L32.4861 44.7363C32.5609 45.3515 33.4996 45.2496 33.4235 44.6222L33.2062 43.0245C33.1307 42.4044 32.1936 42.5186 32.2687 43.1385Z" fill="#FFBF73"/>
<path d="M34.4211 48.1832C34.5157 48.7604 34.958 50.5179 35.11 50.9814L31.4793 52C31.0319 50.9346 30.8843 50.0521 30.5264 49.2631C28.6971 49.1463 27.8675 46.9656 26.8484 45.9102C26.3473 45.391 25.9373 45.0021 25.9373 45.0021C25.9373 45.0021 26.263 44.1849 27.1047 44.7146C27.9464 45.2442 29.0407 46.9725 29.3073 46.4122C29.4439 46.1261 28.9825 44.5998 28.9825 44.5998C31.5092 43.6981 32.8125 43.7505 33.247 43.3265C33.247 43.3265 35.3293 47.6832 34.4211 48.1832Z" fill="#FFBF73"/>
<path d="M30.0221 43.028L30.281 44.5858C30.4829 45.3048 31.5824 45.0117 31.3767 44.2783L31.1176 42.7206C30.9143 41.9954 29.8187 42.3033 30.0221 43.028Z" fill="#FFBF73"/>
<path d="M28.4385 40.6673C28.596 41.0617 28.5976 41.0567 28.6047 41.1019C28.4002 41.2405 28.1519 41.3396 27.908 41.3804C27.8819 41.3422 27.8868 41.3456 27.7291 40.9506C27.6623 40.7834 27.767 40.584 27.963 40.5059C28.1707 40.4232 28.376 40.511 28.4385 40.6673Z" fill="#F5802E"/>
<path d="M31.1423 43.2602L31.4822 44.8042C31.6809 45.524 32.7817 45.2352 32.5792 44.5011L32.2391 42.9572C32.0386 42.2311 30.9416 42.5349 31.1423 43.2602Z" fill="#FFBF73"/>
<path d="M26.8921 45.8741C26.8794 45.888 26.8647 45.8998 26.8485 45.9097C26.3474 45.3911 25.9375 45.0025 25.9375 45.0025C26.0684 44.8594 26.388 44.9384 26.6515 45.1792C26.9149 45.4201 27.0229 45.7315 26.8921 45.8741Z" fill="#F5802E"/>
<path d="M32.4123 29.8471C31.9172 27.9516 30.2659 26.6834 28.4657 26.626C27.5558 24.7352 25.7608 23.6676 23.9098 23.637V20.9424H26.0519L22.4999 17.0778L18.9479 20.9424H21.0902V24.4641C20.9845 24.5337 20.8801 24.6074 20.7775 24.6859C17.4398 22.982 13.3362 25.4103 13.1851 29.1144C10.7402 30.698 11.7375 32.6325 13.1354 32.6325H31.8476C33.4001 32.6325 33.8943 30.4948 32.4123 29.8471Z" fill="#D8C5B8"/>
<path d="M26.3606 31.8201C26.3388 31.8015 22.5015 29.0237 22.5015 29.0237C22.5015 29.0237 18.6603 31.7987 18.6389 31.8173C18.6722 31.8438 26.3491 31.8306 26.3606 31.8201Z" fill="#C65517"/>
<path d="M26.363 31.8174C26.3417 31.7981 22.5 29.0237 22.5 29.0237L26.363 26.2299C26.4603 26.3147 26.5221 26.4408 26.5221 26.5798V31.4671C26.5221 31.6072 26.4602 31.7322 26.363 31.8174Z" fill="#F27D2F"/>
<path d="M18.4788 31.4672V26.5799C18.4788 26.4409 18.5398 26.3148 18.6368 26.23L22.5002 29.0238C22.5002 29.0238 18.6592 31.7988 18.6382 31.8175C18.64 31.8185 18.4788 31.6374 18.4788 31.4672Z" fill="#F27D2F"/>
<path d="M18.637 26.23C18.7185 26.1585 18.8257 26.1148 18.9423 26.1148H26.0562C26.1738 26.1148 26.281 26.1585 26.3625 26.23L22.4996 29.0238L18.637 26.23Z" fill="#FF965C"/>
<path d="M22.8193 6.51222V5.15613H24.7973C24.8999 5.91165 24.6092 6.51222 23.8486 6.51222C23.8543 6.51222 22.8541 6.51222 22.8193 6.51222ZM23.0722 6.25908H23.8486C24.0811 6.25908 24.2593 6.19026 24.3781 6.05486C24.5491 5.85973 24.5702 5.56691 24.5677 5.40927H23.0722V6.25908Z" fill="#10122B"/>
<path d="M21.1515 6.51222C20.3908 6.51222 20.1003 5.91165 20.2027 5.15613H22.1808V6.51222C22.1458 6.51222 21.1459 6.51222 21.1515 6.51222ZM21.9276 5.40927H20.4323C20.4297 5.56691 20.4508 5.85973 20.6218 6.05486C20.7408 6.19026 20.919 6.25908 21.1515 6.25908H21.9276V5.40927Z" fill="#10122B"/>
<path d="M23.1616 5.15613H21.8386V5.40927H23.1616V5.15613Z" fill="#10122B"/>
</svg>
