<svg width="50" height="50" viewBox="0 0 50 50" fill="none" xmlns="http://www.w3.org/2000/svg">
<path d="M24.71 0C11.06 0 0 11.04 0 24.65C0 38.26 11.06 49.3 24.71 49.3C38.36 49.3 49.42 38.26 49.42 24.65C49.42 11.04 38.36 0 24.71 0ZM31.22 19.1L30.87 23.52H26.16V38.89H20.21V23.52H17.03V19.1H20.21V16.13C20.21 14.82 20.24 12.8 21.23 11.55C22.27 10.23 23.7 9.33 26.16 9.33C30.17 9.33 31.86 9.88 31.86 9.88L31.06 14.41C31.06 14.41 29.74 14.04 28.5 14.04C27.26 14.04 26.16 14.47 26.16 15.66V19.11H31.23L31.22 19.1Z" fill="#FFDE17"/>
</svg>
