<svg width="56" height="52" viewBox="0 0 56 52" fill="none" xmlns="http://www.w3.org/2000/svg">
<path d="M33.1533 8.12039C32.6661 7.80546 32.7063 6.80318 32.7215 5.61539C32.8232 -1.88581 23.21 -1.7783 23.2758 5.3778C23.2861 6.66918 23.3652 7.78396 22.8459 8.12039C25.6038 10.2654 30.1688 10.4417 33.1533 8.12039Z" fill="#A54021"/>
<path d="M30.291 7.66907H25.7085V9.09298H30.291V7.66907Z" fill="#3DC0CD"/>
<path d="M29.7606 7.09778H26.2386C26.1827 7.49382 25.9656 8.64931 25.5889 8.96653C25.6167 12.7375 30.4631 12.7221 30.4099 8.96653C30.0333 8.64923 29.816 7.49382 29.7606 7.09778Z" fill="#F49D56"/>
<path d="M27.9984 0.484741L24.8745 2.41547L25.4915 6.80731C25.4915 6.80731 26.5341 8.26302 27.9984 8.26302C29.4651 8.26302 30.5078 6.80731 30.5078 6.80731L31.1251 2.41547L27.9984 0.484741Z" fill="#FCB87A"/>
<path d="M25.2447 4.17696C24.6701 3.68518 24.2487 4.28734 24.9208 5.31733C24.9208 5.31733 24.868 5.65581 25.3489 5.65581L25.2447 4.17696Z" fill="#FCB87A"/>
<path d="M30.7546 4.17696C31.3292 3.68518 31.7486 4.28734 31.0781 5.31733C31.0781 5.31733 31.1293 5.65581 30.6482 5.65581L30.7546 4.17696Z" fill="#FCB87A"/>
<path d="M31.0207 8.79822L27.9984 8.96543L24.9784 8.79822L23.3525 9.81539C23.8973 11.4821 27.175 14.0274 27.9984 14.8108V14.8131C28.8241 14.0288 32.1019 11.4833 32.6469 9.81539L31.0207 8.79822Z" fill="#3DC0CD"/>
<path d="M34.4966 13.4925C32.8256 15.1374 30.5329 16.1552 27.9984 16.1552C25.4723 16.1552 23.1757 15.1396 21.5024 13.4912L21.7601 11.1141C22.3669 9.34087 24.9783 8.79822 24.9783 8.79822L27.9983 14.8122L31.0206 8.79822C31.0206 8.79822 33.634 9.34217 34.2385 11.1149L34.4966 13.4925Z" fill="#E2340C"/>
<path d="M25.7085 7.66907L27.9983 8.96545L26.513 10.5926L24.7842 8.70447L25.7085 7.66907Z" fill="#BFE0E2"/>
<path d="M30.2909 7.66895L27.9983 8.96533L29.4839 10.5925L31.2143 8.70566L30.2909 7.66895Z" fill="#BFE0E2"/>
<path d="M27.9985 0.214844C23.7248 0.484811 24.5101 4.3735 24.5101 4.3735H31.4913C31.4913 4.3735 32.2741 0.484811 27.9985 0.214844Z" fill="#A54021"/>
<path d="M12.2608 43.9653C11.7736 43.6503 11.8138 42.648 11.8289 41.4602C11.9307 33.9593 2.31736 34.0666 2.38334 41.2229C2.39356 42.514 2.47254 43.6291 1.95337 43.9653C4.71812 46.1157 9.28256 46.2816 12.2608 43.9653Z" fill="#2A2B2B"/>
<path d="M9.39849 43.5139H4.81616V44.9377H9.39849V43.5139Z" fill="#3DC0CD"/>
<path d="M8.86812 42.9427H5.34611C5.29018 43.3387 5.07312 44.494 4.69629 44.8113C4.72417 48.5825 9.57059 48.5671 9.5172 44.8113C9.14079 44.494 8.92339 43.3386 8.86812 42.9427Z" fill="#F49D56"/>
<path d="M7.10585 36.3297L3.98193 38.2606L4.5989 42.6523C4.5989 42.6523 5.64155 44.108 7.10585 44.108C8.57252 44.108 9.61521 42.6523 9.61521 42.6523L10.2325 38.2606L7.10585 36.3297Z" fill="#FCB87A"/>
<path d="M4.35214 40.0217C3.77754 39.5299 3.35607 40.1321 4.02829 41.1621C4.02829 41.1621 3.97538 41.5007 4.45645 41.5007L4.35214 40.0217Z" fill="#FCB87A"/>
<path d="M9.86207 40.0216C10.4367 39.5298 10.8561 40.1319 10.1856 41.162C10.1856 41.162 10.2368 41.5006 9.75562 41.5006L9.86207 40.0216Z" fill="#FCB87A"/>
<path d="M10.1281 44.6432L7.10582 44.8105L4.08581 44.6432L2.45996 45.6604C3.0048 47.3272 6.28236 49.8725 7.10592 50.6557V50.6579C7.9316 49.8736 11.2093 47.3281 11.7544 45.6604L10.1281 44.6432Z" fill="#BFE0E2"/>
<path d="M13.6051 49.3373C11.9341 50.9823 9.64133 52.0001 7.10681 52.0001C4.58071 52.0001 2.28411 50.9846 0.61084 49.3361L0.868452 46.9591C1.47535 45.1858 4.08673 44.6432 4.08673 44.6432L7.10673 50.6571L10.129 44.6432C10.129 44.6432 12.7423 45.1872 13.3469 46.9597L13.6051 49.3373Z" fill="#9ECC2E"/>
<path d="M4.81622 43.5139L7.10603 44.8104L5.62072 46.4375L3.89185 44.5493L4.81622 43.5139Z" fill="white"/>
<path d="M9.39864 43.5138L7.1062 44.8102L8.59177 46.4373L10.3222 44.5506L9.39864 43.5138Z" fill="white"/>
<path d="M7.10592 36.0596C2.83214 36.3296 3.61752 40.2182 3.61752 40.2182H10.5988C10.5988 40.2182 11.3816 36.3296 7.10592 36.0596Z" fill="#2A2B2B"/>
<path d="M54.0452 47.247C53.558 46.9319 53.5982 42.6479 53.6134 41.4602C53.7151 33.9593 44.1019 34.0666 44.1678 41.2229C44.1781 42.514 44.257 46.9106 43.7378 47.2471C46.4958 49.3921 51.0607 49.5684 54.0452 47.247Z" fill="#A54021"/>
<path d="M51.183 43.5139H46.6006V44.9377H51.183V43.5139Z" fill="#3DC0CD"/>
<path d="M50.6527 42.9427H47.1306C47.0748 43.3387 46.8577 44.494 46.481 44.8113C46.5088 48.5825 51.3552 48.5671 51.3019 44.8113C50.9253 44.494 50.708 43.3386 50.6527 42.9427Z" fill="#F49D56"/>
<path d="M48.8904 36.3297L45.7666 38.2606L46.3835 42.6523C46.3835 42.6523 47.4262 44.108 48.8904 44.108C50.3571 44.108 51.3998 42.6523 51.3998 42.6523L52.0171 38.2606L48.8904 36.3297Z" fill="#FCB87A"/>
<path d="M46.1366 40.0217C45.562 39.5299 45.1405 40.1321 45.8126 41.1621C45.8126 41.1621 45.7598 41.5007 46.2407 41.5007L46.1366 40.0217Z" fill="#FCB87A"/>
<path d="M51.6465 40.0216C52.2211 39.5298 52.6405 40.1319 51.97 41.162C51.97 41.162 52.0214 41.5006 51.54 41.5006L51.6465 40.0216Z" fill="#FCB87A"/>
<path d="M51.9128 44.6432L48.8905 44.8105L45.8705 44.6432L44.2446 45.6604C44.7894 47.3272 48.0672 49.8725 48.8905 50.6557V50.6579C49.7162 49.8736 52.994 47.3281 53.539 45.6604L51.9128 44.6432Z" fill="#BFE0E2"/>
<path d="M55.3896 49.3373C53.7186 50.9823 51.4259 52.0001 48.8914 52.0001C46.3653 52.0001 44.0687 50.9846 42.3955 49.3361L42.6531 46.9591C43.2599 45.1858 45.8714 44.6432 45.8714 44.6432L48.8914 50.6571L51.9137 44.6432C51.9137 44.6432 54.5271 45.1872 55.1316 46.9597L55.3896 49.3373Z" fill="#9ECC2E"/>
<path d="M46.6006 43.5139L48.8905 44.8104L47.4051 46.4375L45.6763 44.5493L46.6006 43.5139Z" fill="white"/>
<path d="M51.1832 43.5138L48.8906 44.8102L50.3763 46.4373L52.1066 44.5506L51.1832 43.5138Z" fill="white"/>
<path d="M48.8905 36.0596C44.6168 36.3296 45.4022 40.2182 45.4022 40.2182H52.3833C52.3833 40.2182 53.1662 36.3296 48.8905 36.0596Z" fill="#A54021"/>
<path d="M30.2908 43.5139H25.7085V44.9377H30.2908V43.5139Z" fill="#3DC0CD"/>
<path d="M29.7607 42.9427H26.2386C26.1827 43.3387 25.9656 44.494 25.5889 44.8113C25.6167 48.5825 30.4631 48.5671 30.4099 44.8113C30.0333 44.494 29.8159 43.3386 29.7607 42.9427Z" fill="#F49D56"/>
<path d="M27.9984 36.3297L24.8745 38.2606L25.4915 42.6523C25.4915 42.6523 26.5341 44.108 27.9984 44.108C29.4651 44.108 30.5078 42.6523 30.5078 42.6523L31.1251 38.2606L27.9984 36.3297Z" fill="#FCB87A"/>
<path d="M25.2445 40.0217C24.6699 39.5299 24.2484 40.1321 24.9206 41.1621C24.9206 41.1621 24.8678 41.5007 25.3487 41.5007L25.2445 40.0217Z" fill="#FCB87A"/>
<path d="M30.7542 40.0216C31.3288 39.5298 31.7482 40.1319 31.0777 41.162C31.0777 41.162 31.1289 41.5006 30.6477 41.5006L30.7542 40.0216Z" fill="#FCB87A"/>
<path d="M31.0194 44.6432L27.9971 44.8105L24.9771 44.6432L23.3511 45.6604C23.896 47.3272 27.1735 49.8725 27.997 50.6557V50.6579C28.8228 49.8736 32.1005 47.3281 32.6455 45.6604L31.0194 44.6432Z" fill="#3DC0CD"/>
<path d="M34.4976 49.3373C32.8266 50.9823 30.5339 52.0001 27.9994 52.0001C25.4733 52.0001 23.1767 50.9846 21.5034 49.3361L21.7611 46.9591C22.3679 45.1858 24.9793 44.6432 24.9793 44.6432L27.9993 50.6571L31.0216 44.6432C31.0216 44.6432 33.6349 45.1872 34.2395 46.9597L34.4976 49.3373Z" fill="#E2340C"/>
<path d="M25.7085 43.5139L27.9983 44.8104L26.5131 46.4375L24.7842 44.5493L25.7085 43.5139Z" fill="#BFE0E2"/>
<path d="M30.2909 43.5138L27.9983 44.8102L29.4839 46.4373L31.2143 44.5506L30.2909 43.5138Z" fill="#BFE0E2"/>
<path d="M27.9983 35.9373C23.4728 36.2232 24.3045 40.3408 24.3045 40.3408L28.0004 39.1689L31.6968 40.3408C31.6968 40.3408 32.5258 36.2232 27.9983 35.9373Z" fill="#2A2B2B"/>
<path d="M35.1717 21.7314C35.1717 21.9016 35.031 22.0399 34.8578 22.0399H21.1407C20.9679 22.0399 20.8274 21.9016 20.8274 21.7314V11.9927C20.8274 11.8224 20.9679 11.6842 21.1407 11.6842H34.8578C35.031 11.6842 35.1717 11.8224 35.1717 11.9927V21.7314Z" fill="#2A2B2B"/>
<path d="M20.3071 21.9205V22.5763C20.3071 22.8591 20.5401 23.0885 20.8276 23.0885H35.1719C35.4593 23.0885 35.6922 22.8591 35.6922 22.5763V21.9205H20.3071Z" fill="#495359"/>
<path d="M29.5461 16.862C29.5461 17.7163 28.8537 18.4087 27.9995 18.4087C27.1454 18.4087 26.4529 17.7163 26.4529 16.862C26.4529 16.008 27.1453 15.3156 27.9995 15.3156C28.8537 15.3156 29.5461 16.0079 29.5461 16.862Z" fill="#BFE0E2"/>
<path d="M49.4838 26.4553H6.51538V27.6384H49.4838V26.4553Z" fill="#53CEEA"/>
<path d="M28.5908 26.4553H27.4077V34.2963H28.5908V26.4553Z" fill="#53CEEA"/>
<path d="M49.4835 26.4553H48.3003V34.2963H49.4835V26.4553Z" fill="#53CEEA"/>
<path d="M7.69859 26.4553H6.51538V34.2963H7.69859V26.4553Z" fill="#53CEEA"/>
<path d="M26.3913 39.0016L25.7085 40.7527C25.7085 40.7527 28.9969 40.255 29.6063 39.2523C29.6063 39.2523 27.7061 39.0016 26.3913 39.0016Z" fill="#2A2B2B"/>
</svg>
