<svg width="49" height="49" viewBox="0 0 49 49" fill="none" xmlns="http://www.w3.org/2000/svg">
<path d="M24.7099 0C37.9699 0 48.7299 10.76 48.7299 24.02C48.7299 37.28 37.9699 48.04 24.7099 48.04C11.4499 48.04 0.689941 37.28 0.689941 24.02C0.689941 10.76 11.4499 0 24.7099 0ZM24.7099 9.01C20.6299 9.01 20.1199 9.03 18.5199 9.1C16.9199 9.17 15.8299 9.43 14.8799 9.8C13.8899 10.18 13.0499 10.7 12.2199 11.53C11.3899 12.36 10.8699 13.2 10.4899 14.19C10.1199 15.15 9.86993 16.24 9.78993 17.83C9.71993 19.43 9.69994 19.94 9.69994 24.02C9.69994 28.1 9.71993 28.61 9.78993 30.21C9.85993 31.81 10.1199 32.9 10.4899 33.85C10.8699 34.84 11.3899 35.68 12.2199 36.51C13.0499 37.34 13.8899 37.86 14.8799 38.24C15.8399 38.61 16.9299 38.86 18.5199 38.94C20.1199 39.01 20.6299 39.03 24.7099 39.03C28.7899 39.03 29.2999 39.01 30.8999 38.94C32.4999 38.87 33.5899 38.61 34.5399 38.24C35.5299 37.86 36.37 37.34 37.2 36.51C38.03 35.68 38.5499 34.84 38.9299 33.85C39.2999 32.89 39.5499 31.8 39.6299 30.21C39.6999 28.61 39.7199 28.1 39.7199 24.02C39.7199 19.94 39.6999 19.43 39.6299 17.83C39.5599 16.23 39.2999 15.14 38.9299 14.19C38.5499 13.2 38.03 12.36 37.2 11.53C36.37 10.7 35.5299 10.18 34.5399 9.8C33.5799 9.43 32.4899 9.18 30.8999 9.1C29.2999 9.03 28.7899 9.01 24.7099 9.01ZM24.7099 11.72C28.7199 11.72 29.1899 11.74 30.7799 11.81C32.2399 11.88 33.0399 12.12 33.5699 12.33C34.2699 12.6 34.7699 12.93 35.2999 13.45C35.8299 13.98 36.15 14.48 36.42 15.18C36.63 15.71 36.8699 16.5 36.9399 17.97C37.0099 19.55 37.0299 20.03 37.0299 24.04C37.0299 28.05 37.0099 28.52 36.9399 30.11C36.8699 31.57 36.63 32.37 36.42 32.9C36.15 33.6 35.8199 34.1 35.2999 34.63C34.7699 35.16 34.2699 35.48 33.5699 35.75C33.0399 35.96 32.2499 36.2 30.7799 36.27C29.1999 36.34 28.7199 36.36 24.7099 36.36C20.6999 36.36 20.2299 36.34 18.6399 36.27C17.1799 36.2 16.3799 35.96 15.8499 35.75C15.1499 35.48 14.6499 35.15 14.1199 34.63C13.5899 34.1 13.2699 33.6 12.9999 32.9C12.7899 32.37 12.5499 31.58 12.4799 30.11C12.4099 28.53 12.3899 28.05 12.3899 24.04C12.3899 20.03 12.4099 19.56 12.4799 17.97C12.5499 16.51 12.7899 15.71 12.9999 15.18C13.2699 14.48 13.5999 13.98 14.1199 13.45C14.6499 12.92 15.1499 12.6 15.8499 12.33C16.3799 12.12 17.1699 11.88 18.6399 11.81C20.2199 11.74 20.6999 11.72 24.7099 11.72ZM24.7099 16.32C20.4499 16.32 16.9999 19.77 16.9999 24.03C16.9999 28.29 20.4499 31.74 24.7099 31.74C28.9699 31.74 32.42 28.29 32.42 24.03C32.42 19.77 28.9699 16.32 24.7099 16.32ZM24.7099 29.03C21.9499 29.03 19.7099 26.79 19.7099 24.03C19.7099 21.27 21.9499 19.03 24.7099 19.03C27.4699 19.03 29.7099 21.27 29.7099 24.03C29.7099 26.79 27.4699 29.03 24.7099 29.03ZM34.5299 16.01C34.5299 17.01 33.7199 17.81 32.7299 17.81C31.7399 17.81 30.9299 17 30.9299 16.01C30.9299 15.02 31.7399 14.21 32.7299 14.21C33.7199 14.21 34.5299 15.02 34.5299 16.01Z" fill="#FFDE17"/>
</svg>
