<svg width="40" height="52" viewBox="0 0 40 52" fill="none" xmlns="http://www.w3.org/2000/svg">
<path d="M7.22365 32.0071L6.70022 26.1416L0.863281 24.9181L12.9447 14.0784L19.3051 21.1673L7.22365 32.0071Z" fill="#E2340C"/>
<path d="M32.7765 32.0071L33.2996 26.1416L39.1367 24.9181L27.055 14.0784L20.6948 21.1673L32.7765 32.0071Z" fill="#E2340C"/>
<path d="M33.7691 42.688H29.4854V44.0183H33.7691V42.688Z" fill="#3DC0CD"/>
<path d="M33.2723 42.1545H29.9816C29.929 42.524 29.7265 43.6041 29.3748 43.9016C29.4011 47.4252 33.93 47.4106 33.8794 43.9016C33.5281 43.6042 33.3252 42.524 33.2723 42.1545Z" fill="#F49D56"/>
<path d="M31.6277 35.9753L28.7061 37.7787L29.2836 41.882C29.2836 41.882 30.2579 43.244 31.6277 43.244C32.9973 43.244 33.9715 41.882 33.9715 41.882L34.5487 37.7787L31.6277 35.9753Z" fill="#FCB87A"/>
<path d="M32.9823 44.0533L31.6275 43.8984L30.2728 44.0533L28.8044 45.2633C29.3134 46.8213 30.8583 48.6302 31.6276 49.3626C32.3966 48.6302 33.9415 46.8214 34.4504 45.2633L32.9823 44.0533Z" fill="#3DC0CD"/>
<path d="M29.0524 39.4247C28.5165 38.9654 28.1234 39.5278 28.7497 40.4906C28.7497 40.4906 28.7021 40.8071 29.1503 40.8071L29.0524 39.4247Z" fill="#FCB87A"/>
<path d="M34.2031 39.4247C34.7387 38.9654 35.1317 39.5278 34.5055 40.4906C34.5055 40.4906 34.5528 40.8071 34.1042 40.8071L34.2031 39.4247Z" fill="#FCB87A"/>
<path d="M28.9245 39.6299C28.9245 39.6299 28.7958 39.5721 28.6904 39.6299C28.6904 39.6299 28.563 39.6875 28.646 39.8606L28.8246 40.3498C28.8246 40.3498 28.9445 40.3008 29.0374 40.3498C29.0903 40.0344 28.4885 39.7453 28.9245 39.6299Z" fill="#F49D56"/>
<path d="M34.3304 39.6299C34.3304 39.6299 34.4591 39.5721 34.5645 39.6299C34.5645 39.6299 34.6918 39.6875 34.6088 39.8606L34.4302 40.3498C34.4302 40.3498 34.3101 40.3008 34.2174 40.3498C34.1645 40.0344 34.7664 39.7453 34.3304 39.6299Z" fill="#F49D56"/>
<path d="M32.1238 45.3838H31.0672L30.6233 49.7147H32.5674L32.1238 45.3838Z" fill="#3C3C99"/>
<path d="M32.2904 43.8984H30.9012L30.5039 44.455L31.0673 45.3839H32.1239L32.6878 44.455L32.2904 43.8984Z" fill="#3C3C99"/>
<path d="M28.852 39.2964L29.1508 40.2314H29.4841L29.2191 37.8847C29.6696 37.1708 30.4704 37.192 31.6275 37.3124C32.7846 37.192 33.5852 37.1709 34.035 37.8847L33.7704 40.2314H34.104L34.4028 39.2964C36.5935 34.0463 26.6612 34.0464 28.852 39.2964Z" fill="#313C3B"/>
<path d="M38.5926 47.1003C37.0162 49.2348 34.4843 50.6185 31.6279 50.6185C28.7696 50.6185 26.2361 49.2332 24.6616 47.0969L24.6994 45.8781C25.2645 44.2209 28.221 43.4028 28.221 43.4028L30.1198 46.7245L30.9904 48.5416L31.628 49.3621L32.2933 48.5135L33.0356 46.8984L35.0326 43.4028C35.0326 43.4028 37.9895 44.2209 38.5548 45.8781L38.5926 47.1003Z" fill="#E2340C"/>
<path d="M33.7692 42.688L31.6277 43.8985L33.0156 45.4192L34.6327 43.6566L33.7692 42.688Z" fill="#BFE0E2"/>
<path d="M29.4854 42.688L31.6276 43.8985L30.2393 45.4192L28.6228 43.6566L29.4854 42.688Z" fill="#BFE0E2"/>
<path d="M34.1298 42.8433C33.769 44.0532 33.3257 47.0552 31.6274 49.3625C31.6274 49.3625 33.6275 48.64 34.9126 46.8339C34.5255 46.4176 34.1452 46.0089 34.1452 46.0089L36.1393 43.6916L34.1298 42.8433Z" fill="#A54021"/>
<path d="M29.1247 42.8433C29.4855 44.0532 29.9285 47.0552 31.6276 49.3625C31.6276 49.3625 29.627 48.64 28.3425 46.8339C28.7293 46.4176 29.1089 46.0089 29.1089 46.0089L27.1155 43.6916L29.1247 42.8433Z" fill="#A54021"/>
<path d="M7.47827 44.693C10.2568 44.6929 12.2947 43.1104 12.2947 43.1104C11.8391 42.8152 11.8752 41.8796 11.8904 40.7685C11.9864 33.7595 3.00158 33.8595 3.06236 40.5473C3.07322 41.7537 3.14642 42.7957 2.66064 43.1104C2.66064 43.1104 4.69854 44.6929 7.47738 44.693H7.47753C7.47782 44.693 7.47797 44.693 7.47797 44.693H7.47827Z" fill="#A54021"/>
<path d="M9.61922 42.688H5.33618V44.0185H9.61922V42.688Z" fill="#3DC0CD"/>
<path d="M9.12318 42.1548H5.83193C5.77956 42.5241 5.57647 43.6041 5.22534 43.9012C5.2513 47.4252 9.78044 47.4108 9.72985 43.9012C9.37827 43.6042 9.1757 42.5241 9.12318 42.1548Z" fill="#F49D56"/>
<path d="M7.47755 35.9753L4.5564 37.7783L5.13361 41.8824C5.13361 41.8824 6.10799 43.2441 7.47755 43.2441C8.84711 43.2441 9.82149 41.8824 9.82149 41.8824L10.3987 37.7783L7.47755 35.9753Z" fill="#FCB87A"/>
<path d="M4.90226 39.4245C4.36656 38.9652 3.974 39.5274 4.6 40.4905C4.6 40.4905 4.55254 40.8073 5.00097 40.8073L4.90226 39.4245Z" fill="#FCB87A"/>
<path d="M10.0535 39.4245C10.589 38.9652 10.982 39.5274 10.3556 40.4905C10.3556 40.4905 10.4031 40.8073 9.95459 40.8073L10.0535 39.4245Z" fill="#FCB87A"/>
<path d="M10.3011 43.7441L7.4783 43.8993L4.65483 43.7434L3.13574 44.6929C3.64436 46.2513 6.70737 48.6299 7.4777 49.362V49.3631C8.24773 48.6312 11.3113 46.2523 11.8205 44.6935L10.3011 43.7441Z" fill="#3DC0CD"/>
<path d="M13.549 48.1293C11.988 49.6676 9.84581 50.6183 7.47828 50.6183C5.11544 50.6183 2.96968 49.6687 1.40723 48.1278L1.64789 45.9073C2.21364 44.25 4.65474 43.7434 4.65474 43.7434L7.47821 49.3623L10.3014 43.7434C10.3014 43.7434 12.7427 44.2508 13.3085 45.9084L13.549 48.1293Z" fill="#E2340C"/>
<path d="M5.33605 42.688L7.47757 43.899L6.08964 45.4193L4.47266 43.6566L5.33605 42.688Z" fill="#BFE0E2"/>
<path d="M9.61979 42.6885L7.47827 43.8996L8.86621 45.42L10.483 43.6571L9.61979 42.6885Z" fill="#BFE0E2"/>
<path d="M7.47837 35.7229C3.48397 35.9754 4.21688 39.6096 4.21688 39.6096H10.7396C10.7396 39.6096 11.4727 35.9754 7.47837 35.7229Z" fill="#A54021"/>
<path d="M34.0403 14.0399C34.0403 21.7944 27.754 28.0804 20.0002 28.0804C12.2458 28.0804 5.95972 21.7944 5.95972 14.0399C5.95972 6.28597 12.2458 0 20.0002 0C27.754 0 34.0403 6.28597 34.0403 14.0399Z" fill="#FF8B00"/>
<path d="M30.331 14.0402C30.331 19.7459 25.7059 24.3711 20.0003 24.3711C14.2945 24.3711 9.66919 19.7459 9.66919 14.0402C9.66919 8.33456 14.2945 3.70947 20.0003 3.70947C25.7059 3.70947 30.331 8.33456 30.331 14.0402Z" fill="#FFC50B"/>
<path d="M26.0009 8.31738L18.815 15.5035L13.9986 10.6879L11.8689 12.8181L18.815 19.7637L28.131 10.4474L26.0009 8.31738Z" fill="#E2340C"/>
<path d="M23.0596 40.6724H16.9417V42.5726H23.0596V40.6724Z" fill="#3DC0CD"/>
<path d="M22.3507 39.9111H17.6502C17.575 40.4385 17.2854 41.9809 16.7832 42.4055C16.8205 47.4391 23.2898 47.418 23.2176 42.4055C22.7158 41.9809 22.4255 40.4385 22.3507 39.9111Z" fill="#F49D56"/>
<path d="M20.0007 31.085L15.8284 33.6603L16.6529 39.5215C16.6529 39.5215 18.0446 41.4667 20.0007 41.4667C21.9567 41.4667 23.3482 39.5215 23.3482 39.5215L24.1731 33.6603L20.0007 31.085Z" fill="#FCB87A"/>
<path d="M21.9359 42.6227L20.0006 42.4019L18.0652 42.6227L15.9685 44.3511C16.6955 46.5763 18.9019 49.1599 20.0005 50.2062C21.0991 49.1599 23.3053 46.5763 24.0323 44.3511L21.9359 42.6227Z" fill="#3DC0CD"/>
<path d="M16.3218 36.0119C15.5571 35.3552 14.9956 36.1584 15.8902 37.5342C15.8902 37.5342 15.8223 37.9866 16.4629 37.9866L16.3218 36.0119Z" fill="#FCB87A"/>
<path d="M23.679 36.0119C24.4441 35.3552 25.0052 36.1584 24.1108 37.5342C24.1108 37.5342 24.1788 37.9866 23.5378 37.9866L23.679 36.0119Z" fill="#FCB87A"/>
<path d="M16.1406 36.3046C16.1406 36.3046 15.9565 36.2224 15.8054 36.3046C15.8054 36.3046 15.6241 36.387 15.742 36.6347L15.9973 37.3337C15.9973 37.3337 16.1694 37.2631 16.3016 37.3337C16.3769 36.8829 15.5173 36.4692 16.1406 36.3046Z" fill="#F49D56"/>
<path d="M23.8607 36.3046C23.8607 36.3046 24.0446 36.2224 24.1959 36.3046C24.1959 36.3046 24.3769 36.387 24.2593 36.6347L24.0039 37.3337C24.0039 37.3337 23.8318 37.2631 23.6995 37.3337C23.6244 36.8829 24.484 36.4692 23.8607 36.3046Z" fill="#F49D56"/>
<path d="M20.7098 44.5232H19.2007L18.5667 50.7088H21.3435L20.7098 44.5232Z" fill="#E2340C"/>
<path d="M20.9479 42.4019H18.9636L18.3962 43.1964L19.201 44.5233H20.7101L21.5149 43.1964L20.9479 42.4019Z" fill="#E2340C"/>
<path d="M16.0364 35.828L16.4629 37.164H16.939L16.5605 33.8122C17.2045 32.7928 18.3477 32.8228 20.0005 32.9947C21.6538 32.8228 22.7964 32.7928 23.4399 33.8122L23.0614 37.164H23.5378L23.9642 35.828C27.0935 28.3297 12.9075 28.3299 16.0364 35.828Z" fill="#313C3B"/>
<path d="M29.9483 46.9748C27.6975 50.0236 24.0813 52.0001 20.001 52.0001C15.9187 52.0001 12.3002 50.0214 10.0513 46.9702L10.1054 45.2292C10.9129 42.8624 15.1354 41.6941 15.1354 41.6941L17.8853 46.5048L19.1314 49.137L20.001 50.2055L20.9106 49.0739L22.1494 46.4456L24.8644 41.6941C24.8644 41.6941 29.0871 42.8623 29.8948 45.2292L29.9483 46.9748Z" fill="#3C3C99"/>
<path d="M23.0594 40.6724L20.0005 42.4018L21.9827 44.5734L24.2924 42.0559L23.0594 40.6724Z" fill="#BFE0E2"/>
<path d="M16.9415 40.6724L20.0005 42.4018L18.0179 44.5734L15.7085 42.0559L16.9415 40.6724Z" fill="#BFE0E2"/>
<path d="M23.5751 40.8945C23.0597 42.6226 22.4273 46.9104 20.0007 50.2062C20.0007 50.2062 22.8577 49.1737 24.6929 46.5944C24.1399 45.9995 23.5974 45.4158 23.5974 45.4158L26.4446 42.1063L23.5751 40.8945Z" fill="#201C6F"/>
<path d="M16.4261 40.8945C16.9416 42.6226 17.5743 46.9104 20.0007 50.2062C20.0007 50.2062 17.1435 49.1737 15.3091 46.5944C15.8617 45.9995 16.4038 45.4158 16.4038 45.4158L13.5566 42.1063L16.4261 40.8945Z" fill="#201C6F"/>
</svg>
