<svg width="49" height="49" viewBox="0 0 49 49" fill="none" xmlns="http://www.w3.org/2000/svg">
<path d="M24.75 0.0297852C37.99 0.0297852 48.75 10.7798 48.75 24.0298C48.75 37.2798 38 48.0298 24.75 48.0298C11.5 48.0298 0.75 37.2798 0.75 24.0298C0.75 10.7798 11.51 0.0297852 24.75 0.0297852ZM17.25 37.5098V18.7698H11.02V37.5098H17.25ZM39.71 37.5098V26.7598C39.71 20.9998 36.64 18.3298 32.54 18.3298C29.24 18.3298 27.75 20.1498 26.93 21.4198V18.7698H20.7C20.78 20.5298 20.7 37.5098 20.7 37.5098H26.93V27.0498C26.93 26.4898 26.97 25.9298 27.14 25.5298C27.59 24.4098 28.61 23.2498 30.34 23.2498C32.59 23.2498 33.5 24.9698 33.5 27.4898V37.5198H39.73L39.71 37.5098ZM14.18 9.72978C12.05 9.72978 10.66 11.1298 10.66 12.9698C10.66 14.8098 12.01 16.2098 14.1 16.2098H14.14C16.31 16.2098 17.66 14.7698 17.66 12.9698C17.62 11.1298 16.31 9.72978 14.18 9.72978Z" fill="#FFDE17"/>
</svg>
