<svg width="94" height="93" viewBox="0 0 94 93" fill="none" xmlns="http://www.w3.org/2000/svg">
<g clip-path="url(#clip0_8_146)">
<path d="M63.4454 63.9836C59.9955 65.731 56.1178 66.7133 51.9983 66.7133C47.8788 66.7133 44.0011 65.7215 40.5511 63.9836C32.8794 60.1204 27.3929 52.4884 26.4072 43.468H77.5893C76.6036 52.4884 71.1079 60.1204 63.4454 63.9836Z" fill="#FFDE17"/>
<path d="M81.0764 28.308V29.8854C75.934 29.8854 71.7587 25.6444 71.7587 20.421V18.8436H28.5832C28.0717 18.8436 27.5417 18.7964 27.0488 18.7209C26.9744 18.702 26.8907 18.702 26.8349 18.6925C22.8921 17.9652 19.6096 14.8766 19.033 10.7583C18.2891 5.36498 22.0273 0.689473 27.0209 0.00939941C27.6904 1.79459 29.3829 3.06973 31.3729 3.06973H56.2293C69.964 3.06973 81.0857 14.3665 81.0857 28.3174L81.0764 28.308Z" fill="#FFDE17"/>
<path d="M42.2342 33.0402C43.9545 33.0402 45.3401 34.457 45.3401 36.1949C45.3401 37.9329 43.9452 39.3497 42.2342 39.3497C40.5232 39.3497 39.1283 37.9329 39.1283 36.1949C39.1283 34.457 40.5232 33.0402 42.2342 33.0402Z" fill="#FFDE17"/>
<path d="M63.9848 33.0402C65.6958 33.0402 67.0907 34.457 67.0907 36.1949C67.0907 37.9329 65.6958 39.3497 63.9848 39.3497C62.2738 39.3497 60.8789 37.9329 60.8789 36.1949C60.8789 34.457 62.2738 33.0402 63.9848 33.0402Z" fill="#FFDE17"/>
<path d="M53.1142 83.3183L67.6579 75.2614C66.3561 74.0901 65.5377 72.39 65.5377 70.5198V69.8491C61.7344 71.5399 57.5312 72.4939 53.1142 72.4939C48.6971 72.4939 44.4939 71.5399 40.6906 69.8491V70.5198C40.6906 72.39 39.8816 74.0901 38.5704 75.2614L53.1142 83.3183Z" fill="#FFDE17"/>
<path d="M34.981 76.8672L32.4702 77.4056L25.1519 84.8392V93H51.5612V86.0482L34.981 76.8672Z" fill="#FFDE17"/>
<path d="M3.36411 50.7316C4.94496 50.7316 6.22823 52.0351 6.22823 53.6408C6.22823 52.0351 7.5115 50.7316 9.09234 50.7316C10.6732 50.7316 11.9565 52.0351 11.9565 53.6408C11.9565 52.0351 13.2397 50.7316 14.8206 50.7316C16.4014 50.7316 17.6847 52.0351 17.6847 53.6408V39.1137C17.6847 37.5079 18.968 36.2045 20.5488 36.2045C22.1296 36.2045 23.4129 37.5079 23.4129 39.1137V66.7227H24.845V63.8135C24.845 60.6021 27.4115 58.0046 30.5639 58.0046V72.5317L23.4129 79.7953V88.5134H0.5V53.6313C0.5 52.0256 1.78327 50.7221 3.36411 50.7221V50.7316Z" fill="#FFDE17"/>
<path d="M93.5001 84.1402C93.435 84.0835 93.3792 84.008 93.3141 83.9513C91.1102 81.9583 88.4042 80.5415 85.4378 79.9086L71.2381 76.8672L54.6578 86.0482V93H93.4908V84.1307L93.5001 84.1402ZM82.6294 89.8453H62.4319V85.1131H82.6294V89.8453Z" fill="#FFDE17"/>
</g>
<defs>
<clipPath id="clip0_8_146">
<rect width="93" height="93" fill="white" transform="translate(0.5)"/>
</clipPath>
</defs>
</svg>
