<svg width="94" height="93" viewBox="0 0 94 93" fill="none" xmlns="http://www.w3.org/2000/svg">
<g clip-path="url(#clip0_8_140)">
<path d="M93.5 79.3643V28.114C93.5 20.5892 86.772 14.4686 78.511 14.4686H74.4098V13.6454C74.4098 6.12059 67.6819 0 59.4208 0H15.489C7.22795 0 0.5 6.12059 0.5 13.6454V64.8957C0.5 72.4205 7.22795 78.5411 15.489 78.5411H19.6V79.3643C19.6 86.8891 26.3279 93.0097 34.5889 93.0097H78.511C86.7818 93.0097 93.5 86.8891 93.5 79.3643ZM72.9646 88.5451H34.5889C29.0132 88.5451 24.5019 84.4389 24.5019 79.3643V28.114C24.5019 23.049 29.0132 18.9331 34.5889 18.9331H78.511C84.0867 18.9331 88.5981 23.0394 88.5981 28.114V79.3643C88.5981 84.4292 84.0867 88.5451 78.511 88.5451H72.9744H72.9646Z" fill="#FFDE17"/>
<path d="M32.9094 36.7139H71.9295C73.0037 36.7139 73.8825 35.852 73.8825 34.777C73.8825 33.702 73.0134 32.8401 71.9295 32.8401H32.9094C31.8353 32.8401 30.9564 33.702 30.9564 34.777C30.9564 35.852 31.8255 36.7139 32.9094 36.7139Z" fill="#FFDE17"/>
<path d="M39.0807 47.9285C39.0807 48.9938 39.9595 49.8654 41.0336 49.8654H77.6028C78.677 49.8654 79.5558 49.0034 79.5558 47.9285C79.5558 46.8535 78.677 45.9916 77.6028 45.9916H41.0336C39.9595 45.9916 39.0807 46.8632 39.0807 47.9285Z" fill="#FFDE17"/>
<path d="M69.1368 61.0703C69.1368 60.005 68.2677 59.1334 67.1838 59.1334H32.9094C31.8353 59.1334 30.9564 59.9953 30.9564 61.0703C30.9564 62.1453 31.8255 63.0072 32.9094 63.0072H67.1838C68.2677 63.0072 69.1368 62.1356 69.1368 61.0703Z" fill="#FFDE17"/>
<path d="M79.5558 74.2218C79.5558 73.1565 78.677 72.2849 77.6028 72.2849H45.4864C44.4123 72.2849 43.5334 73.1468 43.5334 74.2218C43.5334 75.2968 44.4025 76.1587 45.4864 76.1587H77.6028C78.677 76.1587 79.5558 75.2968 79.5558 74.2218Z" fill="#FFDE17"/>
</g>
<defs>
<clipPath id="clip0_8_140">
<rect width="93" height="93" fill="white" transform="translate(0.5)"/>
</clipPath>
</defs>
</svg>
