<svg width="52" height="52" viewBox="0 0 52 52" fill="none" xmlns="http://www.w3.org/2000/svg">
<path d="M51.3499 26.0304C51.3499 40.0306 40.0003 51.3801 25.9997 51.3801C11.9995 51.3801 0.649902 40.0306 0.649902 26.0304C0.649902 12.0298 11.9995 0.68042 25.9997 0.68042C40.0003 0.68042 51.3499 12.0297 51.3499 26.0304Z" fill="#F7F2ED"/>
<path d="M32.7028 45.297C32.7028 48.9989 29.7017 52 25.9999 52C22.2978 52 19.2969 48.9989 19.2969 45.297C19.2969 41.5948 22.2978 38.5936 25.9999 38.5936C29.7017 38.5936 32.7028 41.5948 32.7028 45.297Z" fill="#53CEEA"/>
<path d="M26.0001 42.5818C22.9583 42.5818 20.6602 45.297 20.6602 45.297C20.6602 45.297 22.8232 48.0118 26.0001 48.0118V42.5818Z" fill="#FEFDF4"/>
<path d="M26 42.5817C29.0412 42.5817 31.3391 45.2969 31.3391 45.2969C31.3391 45.2969 29.1762 48.0117 26 48.0117V42.5817Z" fill="#E2E2E2"/>
<path d="M27.9594 45.297C27.9594 46.3791 27.0822 47.2574 25.9999 47.2574C24.9174 47.2574 24.0396 46.3791 24.0396 45.297C24.0396 44.2143 24.9173 43.3369 25.9999 43.3369C27.0822 43.3369 27.9594 44.2142 27.9594 45.297Z" fill="#4A9B0A"/>
<path d="M26.805 45.297C26.805 45.7421 26.4445 46.1031 26 46.1031C25.5547 46.1031 25.1938 45.7421 25.1938 45.297C25.1938 44.8527 25.5547 44.4912 26 44.4912C26.4445 44.4912 26.805 44.8527 26.805 45.297Z" fill="#211D1A"/>
<path d="M32.6969 6.78748C32.7202 3.08552 29.7382 0.0655563 26.0363 0.0422345C22.3344 0.0189127 19.3146 3.00107 19.2913 6.70302C19.2679 10.405 22.25 13.4249 25.9519 13.4482C29.6537 13.4716 32.6736 10.4894 32.6969 6.78748Z" fill="#53CEEA"/>
<path d="M30.5295 10.1028C30.5037 10.081 26.0018 6.8219 26.0018 6.8219C26.0018 6.8219 21.4954 10.0777 21.4705 10.0996C21.5095 10.1305 30.5157 10.1151 30.5295 10.1028Z" fill="#C65517"/>
<path d="M30.5321 10.0994C30.5067 10.0767 25.9998 6.82173 25.9998 6.82173L30.5321 3.54407C30.6459 3.64336 30.7186 3.79141 30.7186 3.95457V9.68843C30.7185 9.85283 30.6459 9.99931 30.5321 10.0994Z" fill="#F27D2F"/>
<path d="M21.2817 9.68855V3.9547C21.2817 3.79146 21.3534 3.64349 21.4672 3.54419L25.9996 6.82185C25.9996 6.82185 21.4934 10.0777 21.4685 10.0995C21.471 10.1007 21.2817 9.88831 21.2817 9.68855Z" fill="#F27D2F"/>
<path d="M21.4678 3.54422C21.5636 3.46042 21.6893 3.40918 21.8263 3.40918H30.1722C30.3101 3.40918 30.4359 3.46042 30.5315 3.54422L25.9996 6.82188L21.4678 3.54422Z" fill="#FF965C"/>
<path d="M24.978 33.4891C24.978 33.4891 31.8854 34.5841 33.7536 30.4089L28.1377 23.8845L24.978 33.4891Z" fill="#F8AE76"/>
<path d="M20.7944 22.2113H12.165V28.6079H20.7944V22.2113Z" fill="#EA9053"/>
<path d="M23.245 26.82C23.0885 27.1604 22.88 27.4413 22.6595 27.6338C22.365 27.4191 22.4027 27.1345 22.4027 27.1345L23.2771 25.1697C23.5637 25.4504 23.5618 26.1379 23.245 26.82Z" fill="#FFD19F"/>
<path d="M16.4668 21.4225H12.1687V29.397H16.4668V21.4225Z" fill="#495359"/>
<path d="M31.7 30.1237C31.5711 29.8683 29.3467 25.896 28.6272 24.7673L25.8979 22.4465L20.7943 22.2113L17.5979 27.5247L22.9537 32.6765L24.3256 32.8779C24.33 32.8858 24.332 32.8954 24.3369 32.9036L25.3115 33.7993C25.8687 34.2562 26.3503 34.3915 26.7615 34.1426C27.1148 33.9279 27.2589 33.5032 27.1353 33.1268C27.406 33.4525 27.8798 33.5422 28.2529 33.3158C28.6002 33.1051 28.7446 32.6903 28.6315 32.3182C28.909 32.5777 29.3921 32.8173 29.9311 32.4182C30.5765 31.94 30.3406 31.6013 30.0916 31.1703C30.4059 31.6745 31.0688 31.6281 31.5035 31.3407C32.0475 30.9809 31.9025 30.5252 31.7 30.1237Z" fill="#EA9053"/>
<path d="M36.4328 29.0881L34.8731 29.9302L33.7535 30.4094L29.909 26.5801L28.627 24.7674L26.2078 23.743C26.2078 23.743 25.2753 27.1771 23.5935 27.2979C22.8951 27.3461 21.9391 27.2142 22.0255 26.5676L23.9455 22.2453L27.2702 20.9138C27.4642 20.8381 27.6792 20.8362 27.8732 20.9101L32.2405 22.5738L34.2192 22.117L36.4328 29.0881Z" fill="#F8AE76"/>
<path d="M19.7305 30.3722C19.4045 30.6983 18.876 30.6983 18.5499 30.3722L18.2153 30.0379C17.8892 29.7117 17.8892 29.1832 18.2153 28.857L20.2638 26.8088C20.5898 26.4827 21.1184 26.4827 21.4445 26.8088L21.779 27.1432C22.105 27.4693 22.105 27.998 21.779 28.3237L19.7305 30.3722Z" fill="#F8AE76"/>
<path d="M21.0596 28.6103C20.7719 28.8981 20.305 28.8981 20.0167 28.6101C19.7288 28.322 19.7288 27.8553 20.0167 27.5672L20.3847 27.1992C20.6729 26.9111 21.1399 26.9111 21.4277 27.1992C21.7158 27.4872 21.7158 27.954 21.4277 28.2423L21.0596 28.6103Z" fill="#FFD19F"/>
<path d="M21.0493 32.0838C20.7233 32.4096 20.1946 32.4096 19.8687 32.0838L19.5342 31.7493C19.208 31.4231 19.208 30.8946 19.5342 30.5684L21.5827 28.5199C21.9085 28.1941 22.4373 28.1941 22.7633 28.5199L23.0978 28.8546C23.4238 29.1807 23.4238 29.7093 23.0978 30.0351L21.0493 32.0838Z" fill="#F8AE76"/>
<path d="M22.3784 30.3217C22.0905 30.6094 21.6237 30.6094 21.3355 30.3215C21.0477 30.0337 21.0477 29.5665 21.3355 29.2786L21.7035 28.9106C21.9917 28.6226 22.4587 28.6226 22.7465 28.9106C23.0346 29.1984 23.0346 29.6654 22.7465 29.9535L22.3784 30.3217Z" fill="#FFD19F"/>
<path d="M22.9199 33.2435C22.5938 33.5697 22.0652 33.5697 21.7393 33.2435L21.4048 32.9092C21.0786 32.583 21.0786 32.0547 21.4048 31.7283L23.4534 29.6799C23.7791 29.3541 24.3078 29.3541 24.634 29.6799L24.9684 30.0146C25.2946 30.3406 25.2946 30.8693 24.9684 31.1951L22.9199 33.2435Z" fill="#F8AE76"/>
<path d="M24.2492 31.4817C23.9612 31.7694 23.4943 31.7694 23.2062 31.4816C22.9184 31.1934 22.9181 30.7266 23.2062 30.4387L23.5742 30.0706C23.8622 29.7825 24.3292 29.7825 24.6173 30.0706C24.9051 30.3587 24.9053 30.8253 24.6173 31.1136L24.2492 31.4817Z" fill="#FFD19F"/>
<path d="M24.7113 34.4826C24.3852 34.8084 23.8567 34.8084 23.5307 34.4826L23.1962 34.1483C22.8702 33.8221 22.8702 33.2934 23.1962 32.9673L25.2447 30.9189C25.5707 30.593 26.0995 30.593 26.4254 30.9189L26.7599 31.2535C27.0859 31.5796 27.0858 32.1082 26.7599 32.4339L24.7113 34.4826Z" fill="#F8AE76"/>
<path d="M26.0406 32.7206C25.7527 33.0082 25.2859 33.0082 24.9979 32.7206C24.7098 32.4325 24.7096 31.9656 24.9977 31.6777L25.3657 31.3095C25.6536 31.0215 26.1206 31.0215 26.4087 31.3095C26.6968 31.5974 26.6968 32.0644 26.4087 32.3524L26.0406 32.7206Z" fill="#FFD19F"/>
<path d="M22.7573 26.98C22.7087 27.0657 22.657 27.147 22.602 27.2235C22.4659 27.1814 22.361 27.1262 22.2816 27.0667C21.9873 26.8517 22.0253 26.5675 22.0253 26.5675L22.6526 25.1565C22.7023 25.1662 22.7483 25.1836 22.7916 25.2079C23.1967 25.4373 23.1817 26.2307 22.7573 26.98Z" fill="#FFD19F"/>
<path d="M36.9107 20.5998L32.8599 22.0366L35.7971 30.3177L39.848 28.8809L36.9107 20.5998Z" fill="#495359"/>
<path d="M48.6234 12.5363C48.6234 16.2381 45.6223 19.2392 41.9205 19.2392C38.2184 19.2392 35.2173 16.2381 35.2173 12.5363C35.2173 8.83407 38.2184 5.83313 41.9205 5.83313C45.6223 5.83313 48.6234 8.83407 48.6234 12.5363Z" fill="#53CEEA"/>
<path d="M42.5311 15.3326V10.8735H41.3092V15.3326H39.3853V16.5545H44.4551V15.3326H42.5311Z" fill="#333333"/>
<path d="M43.1423 15.9435C43.1423 16.6186 42.5951 17.1658 41.9202 17.1658C41.245 17.1658 40.6978 16.6186 40.6978 15.9435C40.6978 15.2683 41.245 14.7214 41.9202 14.7214C42.595 14.7214 43.1423 15.2683 43.1423 15.9435Z" fill="#FF965C"/>
<path d="M47.2131 11.2232C46.9488 10.2111 46.0671 9.53397 45.1059 9.50328C44.4958 8.23578 43.1417 7.66173 41.9203 8.00401C41.5992 8.09404 41.2874 8.24714 41.0004 8.46715C39.2182 7.55735 37.0269 8.85415 36.9464 10.832C35.6406 11.6776 36.1732 12.7105 36.9197 12.7105H46.9115C47.7408 12.7106 48.0045 11.5692 47.2131 11.2232Z" fill="#008FC1"/>
<path d="M17.2584 12.5362C17.2584 16.238 14.2572 19.239 10.555 19.239C6.85325 19.239 3.85229 16.238 3.85229 12.5362C3.85229 8.83395 6.85325 5.83301 10.555 5.83301C14.2572 5.83301 17.2584 8.83395 17.2584 12.5362Z" fill="#53CEEA"/>
<path d="M13.0606 10.9395V16.665C13.0606 17.0337 12.7609 17.3311 12.3948 17.3311H12.1005C11.7335 17.3301 11.4358 17.0329 11.4358 16.665V15.4661H8.05713V10.9395H13.0606Z" fill="#F27D2F"/>
<path d="M11.436 16.665V15.4662L6.43237 15.4661V16.665C6.43237 17.0329 6.7306 17.331 7.09842 17.331H12.1006C11.7337 17.3302 11.436 17.0329 11.436 16.665Z" fill="#C65517"/>
<path d="M12.0501 11.6434H9.06763V11.9616H12.0501V11.6434Z" fill="#333333"/>
<path d="M12.0501 12.5796H9.06763V12.898H12.0501V12.5796Z" fill="#333333"/>
<path d="M12.0501 13.516H9.06763V13.8345H12.0501V13.516Z" fill="#333333"/>
<path d="M12.0501 14.4525H9.06763V14.7709H12.0501V14.4525Z" fill="#333333"/>
<path d="M13.0606 9.92712H8.05713V10.9394H13.0606V9.92712Z" fill="#FF965C"/>
<path d="M12.2645 15.7096L12.1922 15.9921C12.1843 16.0232 12.2033 16.0551 12.2344 16.0632C12.2655 16.0709 12.2975 16.0521 12.3052 16.0211L12.3773 15.7385L12.2645 15.7096Z" fill="#565557"/>
<path d="M13.9977 7.72858L13.8101 8.46338L14.4518 8.62725L14.6394 7.89245L13.9977 7.72858Z" fill="#353535"/>
<path d="M14.6533 8.91892L13.2621 14.3684L12.145 14.083L13.5362 8.63375C13.567 8.51358 13.6891 8.44099 13.8094 8.4716L14.4915 8.64603C14.6115 8.67633 14.6841 8.79859 14.6533 8.91892Z" fill="white"/>
<path d="M13.3895 8.8385L13.1936 9.60657L14.4891 9.93705L14.685 9.16898L13.3895 8.8385Z" fill="#C4C3C3"/>
<path d="M12.7032 14.2256L12.1448 14.083C12.0732 14.3635 12.0941 14.6343 12.1847 14.8278L12.1849 14.8282H12.1847L12.1657 15.714L12.4616 15.7898L12.8698 15.0029L12.8695 15.0026L12.87 15.0029C13.0421 14.8765 13.1903 14.6486 13.2619 14.3684L12.7032 14.2256Z" fill="#7B7B7B"/>
<path d="M48.6234 39.525C48.6234 43.2268 45.6222 46.2279 41.9205 46.2279C38.2184 46.2279 35.2173 43.2268 35.2173 39.525C35.2173 35.8227 38.2184 32.8219 41.9205 32.8219C45.6221 32.8219 48.6234 35.8227 48.6234 39.525Z" fill="#53CEEA"/>
<path d="M38.0122 37.6602V43.4709C38.0122 43.7361 38.2271 43.9508 38.4922 43.9508H45.1281L45.8276 43.2505V37.6602H38.0122Z" fill="#FFC91F"/>
<path d="M45.8278 37.6602C45.8278 37.6602 45.8271 36.2631 45.8264 36.2508C45.808 36.0026 45.6011 35.8079 45.3484 35.8079H38.4919C38.239 35.8079 38.0321 36.003 38.0137 36.2508C38.0129 36.263 38.0122 37.6602 38.0122 37.6602H45.8278ZM44.8631 36.4912C45.0413 36.4912 45.1857 36.6354 45.1857 36.8138C45.1857 36.9922 45.0413 37.1364 44.8631 37.1364C44.6848 37.1364 44.5396 36.9922 44.5396 36.8138C44.5396 36.6354 44.6848 36.4912 44.8631 36.4912ZM38.9771 37.1368C38.7988 37.1368 38.6544 36.9926 38.6544 36.8141C38.6544 36.6358 38.7988 36.4913 38.9771 36.4913C39.1555 36.4913 39.3007 36.6358 39.3007 36.8141C39.3007 36.9926 39.1555 37.1368 38.9771 37.1368Z" fill="#E22500"/>
<path d="M39.7512 38.7269H38.6726V39.8046H39.7512V38.7269Z" fill="white"/>
<path d="M41.1051 38.7271H40.0269V39.8047H41.1051V38.7271Z" fill="white"/>
<path d="M42.4592 38.7271H41.3811V39.8047H42.4592V38.7271Z" fill="white"/>
<path d="M43.8135 38.7271H42.7351V39.8047H43.8135V38.7271Z" fill="white"/>
<path d="M45.1676 38.7271H44.0896V39.8047H45.1676V38.7271Z" fill="white"/>
<path d="M39.7512 40.0052H38.6726V41.0837H39.7512V40.0052Z" fill="white"/>
<path d="M41.1051 40.0052H40.0269V41.0837H41.1051V40.0052Z" fill="#F23509"/>
<path d="M42.4592 40.0052H41.3811V41.0837H42.4592V40.0052Z" fill="#F23509"/>
<path d="M43.8135 40.0052H42.7351V41.0837H43.8135V40.0052Z" fill="#F23509"/>
<path d="M45.1676 40.0052H44.0896V41.0837H45.1676V40.0052Z" fill="#F23509"/>
<path d="M39.7512 41.2842H38.6726V42.3627H39.7512V41.2842Z" fill="white"/>
<path d="M41.1051 41.2842H40.0269V42.3627H41.1051V41.2842Z" fill="white"/>
<path d="M42.4592 41.2842H41.3811V42.3627H42.4592V41.2842Z" fill="white"/>
<path d="M43.8135 41.2842H42.7351V42.3627H43.8135V41.2842Z" fill="white"/>
<path d="M45.1676 41.2842H44.0896V42.3627H45.1676V41.2842Z" fill="white"/>
<path d="M38.7874 35.2876V36.6196C38.7874 36.8703 39.1673 36.8713 39.1673 36.6196V35.2876C39.1673 35.0366 38.7874 35.0366 38.7874 35.2876Z" fill="#FC971F"/>
<path d="M45.0533 35.2873V36.6196C45.0533 36.8698 44.6731 36.8712 44.6731 36.6196V35.2873C44.6731 35.0366 45.0533 35.0362 45.0533 35.2873Z" fill="#FC971F"/>
<path d="M16.7823 39.5248C16.7823 43.2266 13.7813 46.2278 10.0795 46.2278C6.37741 46.2278 3.37646 43.2266 3.37646 39.5248C3.37646 35.8226 6.37741 32.8218 10.0795 32.8218C13.7813 32.8218 16.7823 35.8226 16.7823 39.5248Z" fill="#53CEEA"/>
<path d="M13.2775 41.0316C11.9789 42.3297 9.8736 42.3297 8.57495 41.0316C7.27645 39.7327 7.27645 37.6274 8.57495 36.3288C9.8736 35.0302 11.9789 35.0302 13.2775 36.3288C14.5762 37.6274 14.5762 39.7327 13.2775 41.0316Z" fill="#008FC1"/>
<path d="M8.19674 40.7889L7.67969 41.3059L8.29556 41.9218L8.81261 41.4047L8.19674 40.7889Z" fill="#222324"/>
<path d="M7.54615 41.1663L5.80537 42.9073C5.23692 43.4752 6.14875 44.3511 6.69912 43.801L8.43968 42.0602L7.54615 41.1663Z" fill="#EA3207"/>
<path d="M13.4765 36.1302C12.068 34.7213 9.7846 34.7213 8.37629 36.1298C6.96767 37.5385 6.96767 39.8217 8.37629 41.2303C9.78195 42.6359 12.0655 42.6409 13.4765 41.23C14.8847 39.8217 14.8848 37.5385 13.4765 36.1302ZM8.85232 40.7542C7.70646 39.6088 7.70709 37.7509 8.85216 36.6058C9.9977 35.4605 11.8549 35.4605 13.0005 36.6058C14.1463 37.7517 14.1459 39.6088 13.0003 40.7542C11.8592 41.8953 10.0014 41.9035 8.85232 40.7542Z" fill="#353535"/>
</svg>
