<svg width="66" height="52" viewBox="0 0 66 52" fill="none" xmlns="http://www.w3.org/2000/svg">
<path d="M17.7822 24.0884C17.7822 24.0884 20.733 34.3693 23.2653 36.6741C23.2653 36.6741 24.7601 26.6468 24.8885 24.0884H17.7822Z" fill="#E6E7E8"/>
<path d="M23.344 18.5398H19.4805V24.2256H23.344V18.5398Z" fill="#EB965F"/>
<path d="M23.344 19.4108V21.4027L23.1607 21.738C21.5401 21.4754 20.3099 20.8739 19.4805 20.3331V19.323L23.344 19.4108Z" fill="#E1803A"/>
<path d="M24.9609 36.8064L23.7107 39.6388L21.6648 37.0966L21.6064 25.8287L22.6321 25.7383L24.9609 36.8064Z" fill="#313C3B"/>
<path d="M24.961 36.8064L24.4498 37.9644L23.0697 38.8421L22.5874 38.243L24.9476 36.7422L24.961 36.8064Z" fill="#ED313E"/>
<path d="M20.8696 25.1858L22.3762 26.7579L23.1134 24.9881L22.0199 24.2593L20.8696 25.1858Z" fill="#313C3B"/>
<path d="M13.3396 25.5009L15.6619 38.3766L15.1348 48.4146C14.8105 48.6166 28.2532 48.5282 30.3811 45.6933L29.0052 38.8422L29.8117 26.0056C29.8808 24.9735 29.2461 24.0239 28.2653 23.6956C27.1242 23.3132 25.617 22.8334 24.4791 22.562L23.2655 36.6741L18.3315 22.6802L14.3321 23.9054C13.6489 24.1146 13.2254 24.7957 13.3396 25.5009Z" fill="#008EE5"/>
<path d="M19.4663 21.6873L18.3313 22.6802L18.8989 24.6119C18.8989 24.6119 20.0809 25.817 20.7431 26.022L22.0198 24.2592C22.0198 24.2592 19.7501 22.5385 19.4663 21.6873Z" fill="#F2F4F3"/>
<path d="M23.3438 21.8765L24.4789 22.5622L24.3842 24.612C24.3842 24.612 23.7694 25.3621 23.2967 26.0221L22.0198 24.2593C22.0198 24.2593 23.5328 22.9665 23.3438 21.8765Z" fill="#F2F4F3"/>
<path d="M24.479 22.562L26.0636 22.9946L26.512 27.5491L25.4956 27.9765L26.512 28.8039L23.2654 36.674C23.2654 36.674 24.226 25.5014 24.479 22.562Z" fill="#69DAF4"/>
<path d="M18.3314 22.6802L16.7744 23.1574L17.3858 28.0237L18.8515 28.2703L17.8824 29.2531L23.2654 36.674L18.3314 22.6802Z" fill="#69DAF4"/>
<path d="M28.6353 9.30981C28.6353 9.30981 28.3261 13.2801 25.3506 14.5098L25.3736 10.0678L28.6353 9.30981Z" fill="#313C3B"/>
<path d="M25.756 14.7943V11.0364H17.0123L16.2349 14.1597C16.2349 14.1597 16.5048 20.5308 22.0114 20.5704C22.8244 20.5771 23.6234 20.3333 24.2795 19.8539C25.3247 19.0904 26.4241 17.5945 25.756 14.7943Z" fill="#EB965F"/>
<path d="M24.1104 17.6941C23.9817 17.9355 23.794 18.1399 23.5673 18.2887C23.3092 18.4586 23.0002 18.5567 22.6673 18.5567C22.2975 18.5567 21.9578 18.435 21.6844 18.2298C21.478 18.0744 21.3104 17.8711 21.1975 17.6355C21.6702 17.716 22.2433 17.7628 22.8604 17.7628C23.3076 17.7628 23.7314 17.7384 24.1104 17.6941Z" fill="#C52026"/>
<path d="M23.8865 5.37272C18.6273 4.1227 11.9207 8.6267 16.1186 15.028C16.1193 15.0287 16.1195 15.0296 16.1195 15.0296H16.8799C17.2435 15.0296 17.5335 14.7216 17.506 14.3592C17.372 12.6094 18.002 11.7723 18.7359 11.3774C19.3061 11.1167 19.7422 11.0369 19.7422 11.0369H25.7561C29.4474 11.0369 29.199 6.52808 29.199 6.52808C27.6256 6.52817 25.3078 5.71035 23.8865 5.37272Z" fill="#313C3B"/>
<path d="M24.2615 17.291C24.2292 17.4336 24.1778 17.5687 24.1104 17.6942C23.7314 17.7385 23.3076 17.7628 22.8604 17.7628C22.2434 17.7628 21.6702 17.7162 21.1975 17.6356C21.1453 17.5274 21.1053 17.4112 21.0776 17.291H24.2615Z" fill="white"/>
<path d="M23.0518 14.5928C23.0518 14.5928 23.2455 15.0878 23.5991 15.4696C23.7503 15.6329 24.462 15.9942 23.8466 16.3531C23.6832 16.4483 23.4267 16.5135 23.0518 16.5135C24.0506 15.8667 22.9221 15.8279 23.0518 14.5928Z" fill="#E08038"/>
<path d="M38.508 10.1316L38.4763 10.4358L41.0777 11.3685C42.0322 10.1696 42.2251 9.35749 42.2205 8.2664L39.6013 7.25146L38.7195 8.18294L38.508 10.1316Z" fill="#EB965F"/>
<path d="M38.4782 10.4459L38.01 11.7517L40.6113 12.6844L41.0795 11.3786L38.4782 10.4459Z" fill="#EB965F"/>
<path d="M40.0338 7.9126C39.8809 8.33943 39.1348 8.06724 39.2863 7.64479L39.7691 6.29788C39.9189 5.88 40.6702 6.1369 40.5165 6.56568L40.0338 7.9126Z" fill="#E1803A"/>
<path d="M41.4088 8.78191C41.2559 9.20884 40.51 8.93676 40.6616 8.51382L41.1442 7.1668C41.2943 6.74922 42.0456 7.00612 41.8917 7.4349L41.4088 8.78191Z" fill="#E1803A"/>
<path d="M42.0532 9.12819C41.9138 9.51714 41.2341 9.2692 41.3722 8.88424L41.7621 7.79744C41.8982 7.41687 42.5829 7.65088 42.4429 8.04168L42.0532 9.12819Z" fill="#E1803A"/>
<path d="M40.7182 8.35543C40.5653 8.78236 39.8194 8.51017 39.9712 8.08733L40.4536 6.74051C40.6036 6.32264 41.3549 6.57944 41.2011 7.00861L40.7182 8.35543Z" fill="#E1803A"/>
<path d="M38.508 10.1314C38.508 10.1305 38.2595 9.23921 38.0793 8.59219C37.9663 8.186 38.0842 7.75079 38.3869 7.45767L39.0289 6.83529C39.1774 6.69155 39.3948 6.64432 39.5895 6.71424L40.5587 7.06161C40.7029 7.11351 40.7645 7.28286 40.6885 7.41365C40.3398 8.01402 39.5736 7.60647 39.5736 7.60647C39.3313 7.82461 39.0965 8.03272 39.0965 8.03272C39.3177 8.13644 39.5392 8.28719 39.7384 8.49783C40.6146 9.42366 40.4596 10.6583 39.3133 10.4434C38.899 10.3659 38.5108 10.143 38.508 10.1314Z" fill="#F6AE7E"/>
<path d="M38.2472 10.7566L37.5593 12.4817L40.3477 13.5935L41.0355 11.8685L38.2472 10.7566Z" fill="#E6E7E8"/>
<path d="M26.0637 22.9945L27.4508 23.0422L34.6319 21.2143L37.4946 11.7153C37.4946 11.7153 40.1551 12.2767 41.1068 13.178C41.1068 13.178 38.9227 19.9427 38.0786 23.0192C37.9406 23.5214 37.6152 23.9506 37.1684 24.2184C35.5931 25.1628 30.1 27.7895 27.4795 28.7917L26.0637 22.9945Z" fill="#008EE5"/>
<path d="M4.33023 10.2942L4.36187 10.5984L1.76026 11.5311C0.806091 10.3319 0.613083 9.52003 0.617758 8.42904L3.2369 7.41382L4.11879 8.34578L4.33023 10.2942Z" fill="#EB965F"/>
<path d="M4.35355 10.59L1.7522 11.5227L2.22039 12.8285L4.82174 11.8958L4.35355 10.59Z" fill="#EB965F"/>
<path d="M2.80419 8.07491C2.95728 8.50193 3.70324 8.22965 3.55171 7.8072L3.06879 6.46019C2.91921 6.04241 2.16779 6.29921 2.32136 6.72799L2.80419 8.07491Z" fill="#E1803A"/>
<path d="M1.42927 8.94462C1.58216 9.37155 2.32813 9.09936 2.1766 8.67642L1.69365 7.3299C1.54387 6.91193 0.792571 7.16893 0.946438 7.59771L1.42927 8.94462Z" fill="#E1803A"/>
<path d="M0.784855 9.29084C0.924017 9.67989 1.60375 9.43185 1.46576 9.0467L1.07613 7.9601C0.939692 7.57942 0.255285 7.81354 0.395225 8.20404L0.784855 9.29084Z" fill="#E1803A"/>
<path d="M2.11967 8.51814C2.27276 8.94517 3.01872 8.67298 2.86719 8.25004L2.38436 6.90313C2.23449 6.48555 1.48307 6.74244 1.63684 7.17132L2.11967 8.51814Z" fill="#E1803A"/>
<path d="M4.33018 10.2941C4.33018 10.2931 4.57849 9.40171 4.75885 8.75479C4.87191 8.3487 4.75379 7.91359 4.45122 7.62017L3.80897 6.99818C3.66056 6.85405 3.4434 6.80702 3.24873 6.87674L2.27946 7.22431C2.13523 7.27612 2.0732 7.44567 2.14965 7.57645C2.49809 8.17711 3.2644 7.76917 3.2644 7.76917C3.50698 7.98721 3.74148 8.19542 3.74148 8.19542C3.52051 8.29913 3.29917 8.45028 3.09983 8.66062C2.22347 9.58635 2.37841 10.821 3.52472 10.6061C3.93908 10.5284 4.32696 10.3055 4.33018 10.2941Z" fill="#F6AE7E"/>
<path d="M4.60427 10.9309L1.81592 12.0427L2.50383 13.7679L5.29218 12.656L4.60427 10.9309Z" fill="#E6E7E8"/>
<path d="M16.7743 23.1575L15.387 23.2052L8.20609 21.3771L5.34311 11.8782C5.34311 11.8782 2.68308 12.4396 1.73145 13.3409C1.73145 13.3409 3.91509 20.1055 4.75931 23.182C4.8971 23.6843 5.22284 24.1136 5.66964 24.3814C7.24463 25.3256 12.7379 27.9524 15.3585 28.9544L16.7743 23.1575Z" fill="#008EE5"/>
<path d="M16.8758 14.3794C15.8832 13.5286 15.1556 14.5701 16.3157 16.3533C16.3157 16.3533 16.2277 16.9398 17.0588 16.9398L16.8758 14.3794Z" fill="#EB965F"/>
<path d="M25.6622 13.9828C25.6933 14.0729 24.993 14.7084 23.8589 14.2963C23.8752 13.573 25.3968 13.1867 25.6622 13.9828Z" fill="white"/>
<path d="M25.3158 13.9866C25.3158 14.1158 25.2703 14.2364 25.1935 14.3289C24.9945 14.4042 24.7379 14.4534 24.4282 14.4268C24.2956 14.3258 24.21 14.1673 24.21 13.9866C24.21 13.8864 24.2352 13.7935 24.2822 13.7133C24.5256 13.5754 24.8353 13.5112 25.1037 13.5533C25.2319 13.6527 25.3158 13.8106 25.3158 13.9866Z" fill="#26267F"/>
<path d="M25.1345 13.8747C25.1345 13.9365 25.0843 13.9874 25.0226 13.9874C24.9606 13.9874 24.9089 13.9365 24.9089 13.8747C24.9089 13.8119 24.9606 13.7612 25.0226 13.7612C25.0844 13.7613 25.1345 13.812 25.1345 13.8747Z" fill="white"/>
<path d="M25.0299 14.0287C25.0299 14.1761 24.9089 14.2963 24.7629 14.2963C24.6154 14.2963 24.4944 14.1761 24.4944 14.0287C24.4944 13.8804 24.6154 13.7612 24.7629 13.7612C24.9089 13.7612 25.0299 13.8804 25.0299 14.0287Z" fill="#1C1E1E"/>
<path d="M19.7554 14.0244C19.7244 14.1144 20.4249 14.7498 21.5587 14.3379C21.5425 13.6146 20.0209 13.2281 19.7554 14.0244Z" fill="white"/>
<path d="M20.1035 14.028C20.1035 14.157 20.1476 14.2778 20.2228 14.3702C20.4234 14.4455 20.6814 14.4947 20.9897 14.4681C21.1225 14.3672 21.2095 14.2087 21.2095 14.028C21.2095 13.9278 21.183 13.8349 21.1357 13.7546C20.8922 13.6168 20.5826 13.5525 20.3144 13.5945C20.1861 13.6941 20.1035 13.8519 20.1035 14.028Z" fill="#26267F"/>
<path d="M20.2834 13.9159C20.2834 13.9779 20.3334 14.0288 20.3953 14.0288C20.4573 14.0288 20.509 13.978 20.509 13.9159C20.509 13.8533 20.4573 13.8025 20.3953 13.8025C20.3334 13.8025 20.2834 13.8533 20.2834 13.9159Z" fill="white"/>
<path d="M20.3882 14.0701C20.3882 14.2175 20.5075 14.3377 20.655 14.3377C20.8039 14.3377 20.9232 14.2175 20.9232 14.0701C20.9232 13.9218 20.8039 13.8025 20.655 13.8025C20.5075 13.8025 20.3882 13.9217 20.3882 14.0701Z" fill="#1C1E1E"/>
<path d="M21.9154 15.2169H19.2732C18.9877 15.2169 18.7551 14.9845 18.7551 14.699V13.3585C18.7551 13.0728 18.9877 12.8406 19.2732 12.8406H21.9154C22.2016 12.8406 22.4345 13.0728 22.4345 13.3585V14.699C22.4345 14.9845 22.2016 15.2169 21.9154 15.2169ZM19.2732 13.3575L19.2721 14.6989L21.9154 14.6998C21.9168 14.6998 21.9175 14.6989 21.9176 14.6985L21.9175 13.3583L19.2732 13.3575Z" fill="#313C3B"/>
<path d="M26.5883 15.2169H23.9461C23.6604 15.2169 23.428 14.9845 23.428 14.699V13.3585C23.428 13.0728 23.6605 12.8406 23.9461 12.8406H26.5883C26.8744 12.8406 27.107 13.0728 27.107 13.3585V14.699C27.107 14.9845 26.8744 15.2169 26.5883 15.2169ZM23.9461 13.3575L23.9449 14.6989L26.5883 14.6998C26.5892 14.6998 26.5898 14.6994 26.5903 14.6987L26.5901 13.3584L23.9461 13.3575Z" fill="#313C3B"/>
<path d="M23.6521 13.5264H22.176V13.9796H23.6521V13.5264Z" fill="#313C3B"/>
<path d="M65.6235 40.5356H8.55566V44.7493H65.6235V40.5356Z" fill="#96520F"/>
<path d="M61.7108 44.7493H13.2468V52H61.7108V44.7493Z" fill="#D17D30"/>
<path d="M52.9251 13.9598C52.4453 15.2176 51.0373 15.8482 49.7797 15.3689C48.5219 14.8895 47.8911 13.4814 48.3704 12.2238C48.8502 10.966 50.2578 10.3354 51.5156 10.8148C52.7732 11.2941 53.4036 12.7023 52.9251 13.9598Z" fill="#FFC700"/>
<path d="M51.2614 13.3209C51.2052 13.2012 51.0813 13.0804 50.8871 12.9581L50.6955 12.8372C50.6042 12.7794 50.5454 12.7293 50.5183 12.6864C50.4918 12.644 50.4879 12.5974 50.5077 12.5468C50.5329 12.4794 50.5801 12.4401 50.6486 12.4293C50.7156 12.4185 50.8082 12.4354 50.9246 12.4798C51.012 12.5132 51.1011 12.5605 51.19 12.6218C51.2801 12.6828 51.368 12.7565 51.4547 12.8424L51.6065 12.4428C51.5011 12.3667 51.3966 12.2998 51.2924 12.2426C51.2615 12.2254 51.23 12.2104 51.1985 12.1944L51.2825 11.9742L50.9178 11.8347L50.8354 12.0505C50.6697 12.0073 50.5244 12.0067 50.4 12.0494C50.2401 12.1041 50.1237 12.2256 50.0524 12.4137C49.995 12.564 49.9937 12.7 50.0469 12.8217C50.1003 12.9436 50.2142 13.0606 50.387 13.1731L50.5595 13.2864C50.6653 13.356 50.7307 13.4135 50.7568 13.4601C50.7829 13.5071 50.785 13.56 50.7621 13.619C50.7367 13.6844 50.6895 13.7246 50.6194 13.7383C50.5498 13.7521 50.4613 13.739 50.3548 13.6986C50.251 13.6585 50.1486 13.6011 50.0481 13.5254C49.9477 13.45 49.8496 13.3575 49.7536 13.2473L49.5969 13.6585C49.7003 13.749 49.8079 13.8288 49.9199 13.8975C49.977 13.9329 50.0355 13.9644 50.0947 13.9937L50.0117 14.2095L50.3774 14.349L50.4609 14.1302C50.629 14.1716 50.7723 14.1726 50.8917 14.1326C51.0539 14.078 51.1747 13.9465 51.2541 13.7383C51.3147 13.58 51.3172 13.4408 51.2614 13.3209Z" fill="#FFF039"/>
<path d="M53.2275 19.9647C54.3106 20.7639 54.5408 22.2894 53.7423 23.3725C52.9434 24.456 51.4178 24.686 50.3345 23.8875C49.2513 23.0881 49.021 21.5629 49.8201 20.4795C50.6186 19.3966 52.1443 19.1666 53.2275 19.9647Z" fill="#FFC700"/>
<path d="M52.1664 21.3961C52.0361 21.4182 51.8865 21.5054 51.7166 21.6597L51.5489 21.8115C51.4687 21.8841 51.4047 21.9272 51.3561 21.9421C51.308 21.9562 51.2622 21.9472 51.2188 21.9149C51.1606 21.8725 51.1354 21.8166 51.1435 21.7479C51.1508 21.6802 51.1918 21.5955 51.2659 21.4954C51.3216 21.4198 51.391 21.3468 51.4739 21.2774C51.5571 21.2071 51.6516 21.1421 51.7572 21.0818L51.4131 20.8284C51.3116 20.9094 51.2191 20.9924 51.1359 21.0774C51.1112 21.1024 51.0883 21.129 51.0647 21.1549L50.8749 21.0148L50.6431 21.329L50.8288 21.466C50.7427 21.6142 50.703 21.7541 50.7108 21.8854C50.7209 22.054 50.8067 22.1987 50.9685 22.3178C51.0983 22.4133 51.2289 22.451 51.3605 22.4324C51.4922 22.4136 51.6353 22.3353 51.7901 22.199L51.9457 22.0631C52.0409 21.9797 52.1138 21.9322 52.1657 21.9196C52.2182 21.9071 52.2694 21.9189 52.3203 21.957C52.3766 21.999 52.4027 22.0553 52.3969 22.1266C52.3918 22.1973 52.3555 22.2789 52.288 22.3707C52.2212 22.4602 52.1386 22.5434 52.0386 22.6198C51.9392 22.6965 51.8238 22.7659 51.6917 22.8291L52.046 23.0904C52.1611 23.0148 52.2668 22.9326 52.3631 22.8431C52.4122 22.7976 52.4584 22.7496 52.5023 22.7005L52.688 22.8383L52.9204 22.5235L52.7319 22.3844C52.8169 22.2333 52.8563 22.0954 52.8497 21.9699C52.8404 21.799 52.7464 21.6473 52.567 21.5151C52.4302 21.4142 52.2967 21.3747 52.1664 21.3961Z" fill="#FFF039"/>
<path d="M59.3779 39.302H57.5339V39.7726H59.3779V39.302Z" fill="#999090"/>
<path d="M43.5288 39.302H41.6848V39.7726H43.5288V39.302Z" fill="#545252"/>
<path d="M40.0536 39.7723V40.763H29.735C28.9767 40.763 28.8783 40.1227 28.8711 39.8708V39.7722L40.0536 39.7723Z" fill="#898888"/>
<path d="M40.0537 39.7723V40.763H60.8472C61.6053 40.763 61.7041 40.1227 61.7111 39.8708V39.7722L40.0537 39.7723Z" fill="#2D2D2D"/>
<path d="M39.7026 39.3019H61.3601L64.0647 25.4165H42.4073L39.7026 39.3019Z" fill="#313C3B"/>
<path d="M39.7028 39.302H38.6143L41.1189 26.1387L42.4076 25.4165L39.7028 39.302Z" fill="#898888"/>
<path d="M49.5679 10.7946C49.5679 10.7946 44.1438 7.11048 40.6572 5.83864C40.6572 5.83864 41.5888 3.15543 43.1282 1.27368C43.1282 1.27368 49.1253 5.27382 51.9448 7.70559L49.5679 10.7946Z" fill="#8AC133"/>
<path d="M48.3022 10.6075C48.3022 10.6075 43.5552 6.0843 40.3242 4.25846C40.3242 4.25846 41.683 1.76416 43.5099 0.160156C43.5099 0.160156 48.7706 5.08914 51.153 7.94978L48.3022 10.6075Z" fill="#53770C"/>
<path d="M48.4186 10.9735C48.4186 10.9735 44.1114 6.00263 40.999 3.88785C40.999 3.88785 42.7786 1.47361 44.9191 0C44.9191 0 49.7045 5.42379 51.781 8.51689L48.4186 10.9735Z" fill="#61A30A"/>
<path d="M42.7675 4.38125C42.7675 4.38125 46.3234 7.3087 47.7135 9.11595C47.7135 9.11595 48.6274 8.7232 49.118 9.60842L50.44 8.56963C50.44 8.56963 49.6679 7.82464 50.1904 7.25622C50.1904 7.25622 46.3068 2.51995 45.4135 1.77536C45.4135 1.77536 44.8261 2.20161 44.1455 1.44922C44.1455 1.44922 42.9901 2.52102 42.6104 2.95993C42.6104 2.95993 43.3882 3.55378 42.7675 4.38125Z" fill="#8AC133"/>
<path d="M47.7906 5.15012C48.1096 5.74748 47.8837 6.49032 47.2864 6.80945C46.6893 7.12809 45.9466 6.90264 45.6275 6.30529C45.3085 5.70794 45.534 4.96519 46.1316 4.64616C46.7288 4.32743 47.4716 4.55277 47.7906 5.15012Z" fill="#53770C"/>
<path d="M54.917 13.6202C54.917 13.6202 57.7159 7.66811 58.3881 3.96558C58.3881 3.96558 61.3163 4.61435 63.5312 5.97412C63.5312 5.97412 60.5118 12.5464 58.5255 15.6985L54.917 13.6202Z" fill="#61A30A"/>
<path d="M58.6537 5.78285C58.6537 5.78285 57.4183 10.2198 56.3296 12.2229C56.3296 12.2229 57.0587 12.8992 56.4484 13.7066L57.9338 14.4942C57.9338 14.4942 58.3018 13.4864 59.0333 13.7338C59.0333 13.7338 61.7897 8.26409 62.1083 7.14564C62.1083 7.14564 61.4807 6.78122 61.8926 5.85442C61.8926 5.85442 60.4444 5.23224 59.8894 5.06299C59.8894 5.06299 59.6617 6.01462 58.6537 5.78285Z" fill="#8AC133"/>
<path d="M59.9861 10.6864C59.5695 11.2202 58.7988 11.3149 58.2652 10.8982C57.7315 10.4812 57.6368 9.71086 58.0534 9.177C58.4705 8.64334 59.2407 8.54858 59.7745 8.96548C60.308 9.38219 60.403 10.1525 59.9861 10.6864Z" fill="#53770C"/>
</svg>
