<svg width="42" height="52" viewBox="0 0 42 52" fill="none" xmlns="http://www.w3.org/2000/svg">
<path d="M35.3983 24.409L33.6631 30.9028C33.6631 30.9028 34.028 40.2018 34.0317 40.5198H36.0817L36.1715 30.9028L38.2882 24.409H35.3983Z" fill="#1B66B3"/>
<path d="M40.1143 25.667L39.4587 40.5199H37.2243L37.0041 30.2231L36.6807 24.1031L40.1143 25.667Z" fill="#3C3C99"/>
<path d="M29.3599 16.4931L30.3624 16.834C30.5332 16.8922 30.4484 17.1538 30.2739 17.0945L29.2714 16.7537C29.099 16.695 29.1877 16.4345 29.3599 16.4931Z" fill="#F49D56"/>
<path d="M29.146 17.142L30.1737 17.397C30.349 17.4401 30.2863 17.7081 30.1075 17.664L29.0798 17.4088C28.9031 17.3651 28.9693 17.098 29.146 17.142Z" fill="#F49D56"/>
<path d="M29.3118 17.5028L30.166 17.7078C30.3119 17.7424 30.2616 17.9652 30.1129 17.9295L29.2587 17.7247C29.1115 17.6897 29.1647 17.4678 29.3118 17.5028Z" fill="#F49D56"/>
<path d="M30.6581 16.8393C30.5907 16.8758 30.2163 16.7837 30.2163 16.7837C30.1216 17.101 29.9982 17.5843 30.0634 17.911C30.0634 17.911 31.0408 18.2768 31.1503 18.0511C31.3042 18.0887 31.6572 18.1774 31.7614 18.2038L31.9201 17.2944C31.7112 17.2217 31.523 17.1606 31.3618 17.0976C31.3106 16.6574 30.7735 16.4847 30.5057 16.252C30.3741 16.1375 30.275 16.0436 30.275 16.0436C30.275 16.0436 30.0819 16.1324 30.2207 16.3291C30.3592 16.5255 30.7901 16.7676 30.6581 16.8393Z" fill="#F49D56"/>
<path d="M29.1719 16.7931L30.1869 17.0947C30.3601 17.1462 30.2854 17.4107 30.1088 17.3584L29.0937 17.0569C28.9192 17.0052 28.9976 16.7414 29.1719 16.7931Z" fill="#F49D56"/>
<path d="M35.7139 15.8184C35.3959 16.8023 35.0219 17.9007 34.8947 18.2022L31.6661 17.157L31.2039 18.1405C31.2039 18.1405 35.2374 20.2463 35.833 20.1904C36.4285 20.1344 37.305 17.5672 37.305 17.5672L35.7139 15.8184Z" fill="#1B66B3"/>
<path d="M34.7915 26.8125C34.7915 26.8125 35.1795 18.9321 35.1801 18.9208C35.1801 18.9208 35.2565 15.985 36.5944 13.7946C36.3837 17.1096 36.5125 14.3967 35.9964 27.1632L34.7915 26.8125Z" fill="#201C6F"/>
<path d="M38.7705 14.9229L38.2886 24.4091H35.3987C35.3987 18.7686 35.5749 18.0139 36.5945 13.0602L38.7705 14.9229Z" fill="#7DDFEF"/>
<path d="M37.1703 15.6204L36.4365 18.2979V21.5291L37.9982 16.2998L37.1703 15.6204Z" fill="#201C6F"/>
<path d="M34.6375 10.2518C34.0491 6.31554 40.02 6.66943 39.2832 9.97898C39.1005 10.7986 38.6675 11.8496 38.6675 11.8496L38.7635 12.8596C37.899 13.7841 36.5945 14.3794 36.5945 14.3794L36.3403 12.5471C36.3403 12.5471 35.9137 12.7794 35.578 12.819C35.578 12.819 34.9844 12.9572 34.8516 12.633C34.7718 11.7462 34.7191 11.6458 34.6139 11.1489C34.1754 10.9898 34.1047 10.7054 34.6375 10.2518Z" fill="#F49D56"/>
<path d="M38.8197 11.9274C37.9978 11.9274 37.901 11.2138 37.7476 10.8888L37.4786 10.363L37.3206 11.2062H36.9458C36.9458 11.2062 37.0842 10.1715 36.8695 9.7069C36.8695 9.7069 37.6625 8.89483 36.9458 8.70751C35.8002 8.67508 34.9642 9.0187 34.5992 9.58758C34.4088 8.06819 35.6523 7.27212 36.914 7.2594C40.4269 7.22347 39.5287 11.0986 38.8197 11.9274Z" fill="#3A3A3A"/>
<path d="M37.2168 11.2062C37.2168 11.2062 37.3471 9.80688 38.1203 10.203C38.1203 10.203 38.4478 10.5653 37.9046 10.8887C37.9046 10.8887 37.9465 11.4573 37.5841 11.4294L37.2168 11.2062Z" fill="#F49D56"/>
<path d="M38.7631 12.8595L39.3082 13.4325L37.714 16.0668L36.6621 15.2368C36.6621 15.2368 36.8633 14.6645 36.8598 14.2465L38.7631 12.8595Z" fill="#C0EBF2"/>
<path d="M39.3084 13.4325C39.3084 13.4325 40.9745 13.4325 41.2294 16.0021L40.6873 27.6114C40.6873 27.6114 38.2884 27.9108 36.3115 26.8231L37.2172 16.888L39.3084 13.4325Z" fill="#201C6F"/>
<path d="M36.4287 15.2108L35.9966 15.9652L36.4725 13.5007L36.5658 14.2464L36.4287 15.2108Z" fill="#C0EBF2"/>
<path d="M36.8486 14.2578C36.9869 14.7543 36.7458 15.231 36.4706 15.6161C36.365 14.937 36.3523 14.5715 36.5539 14.2578H36.8486Z" fill="#D24324"/>
<path d="M36.6514 15.3032C36.281 17.6725 36.1812 18.3427 36.162 19.3584L35.8269 19.6185L35.6726 19.3571C35.8721 17.2634 35.9965 16.6832 36.4318 15.3032H36.6514Z" fill="#D24324"/>
<path d="M30.7672 19.8435L31.8167 19.9833C31.9956 20.0069 31.9632 20.2803 31.7804 20.2559L30.7308 20.1163C30.5504 20.0924 30.5868 19.8195 30.7672 19.8435Z" fill="#F49D56"/>
<path d="M30.6832 20.5216L31.7409 20.572C31.9212 20.5806 31.9116 20.8556 31.7277 20.8469L30.6701 20.7965C30.4881 20.7877 30.5014 20.5129 30.6832 20.5216Z" fill="#F49D56"/>
<path d="M30.9157 20.8434L31.7935 20.8782C31.9433 20.8842 31.9369 21.1126 31.7846 21.1063L30.9064 21.0715C30.7556 21.0655 30.7649 20.8373 30.9157 20.8434Z" fill="#F49D56"/>
<path d="M32.1076 19.9309C32.0485 19.98 31.6634 19.9623 31.6634 19.9623C31.6322 20.2918 31.6049 20.79 31.7323 21.0979C31.7323 21.0979 32.7624 21.2668 32.8258 21.0242C32.9842 21.031 33.3475 21.0495 33.4546 21.0552L33.4339 20.1322C33.2149 20.1013 33.0183 20.0783 32.8478 20.0476C32.7121 19.6256 32.1519 19.5606 31.844 19.3842C31.6926 19.2977 31.5772 19.2247 31.5772 19.2247C31.5772 19.2247 31.4049 19.3495 31.5793 19.5152C31.7531 19.6814 32.2231 19.8352 32.1076 19.9309Z" fill="#F49D56"/>
<path d="M30.6406 20.1745L31.6951 20.273C31.8747 20.2899 31.8529 20.564 31.6696 20.5469L30.6153 20.4484C30.434 20.4315 30.4597 20.1576 30.6406 20.1745Z" fill="#F49D56"/>
<path d="M39.7693 13.9825C39.8967 14.0259 41.2575 14.1527 40.4071 16.7034C38.617 22.5593 39.8601 22.3361 33.1401 21.3268L33.2792 19.8655L37.3337 19.9675C37.3337 19.9675 38.1807 13.4395 39.7693 13.9825Z" fill="#3C3C99"/>
<path d="M34.8054 41.3085V41.3941H35.9107V41.1762C35.9107 41.1762 36.0717 40.8349 35.8877 40.5198H34.3382C34.1477 40.7513 33.7831 40.8084 33.4362 40.8171C33.1277 40.8246 32.6148 40.7952 32.6147 41.0714L32.6094 41.1819C33.0811 41.3524 33.9173 41.4807 34.8054 41.3085Z" fill="#282828"/>
<path d="M38.3767 41.3085V41.3941H39.4821V41.1762C39.4821 41.1762 39.6429 40.8349 39.4591 40.5198H37.91C37.7193 40.7513 37.3546 40.8084 37.0079 40.8171C36.6993 40.8246 36.1863 40.7952 36.186 41.0714L36.1809 41.1819C36.6526 41.3524 37.4888 41.4807 38.3767 41.3085Z" fill="#3A3A3A"/>
<path d="M31.5221 17.7027V16.112H30.3984C30.32 15.7971 30.1966 15.5002 30.0345 15.2289L30.8322 14.4317L29.7071 13.307L28.9128 14.1017C28.6421 13.9384 28.3455 13.8135 28.031 13.7341V12.6068H26.4406V13.7306C26.1255 13.8086 25.8288 13.9322 25.5577 14.0941L24.7604 13.2968L23.6354 14.4217L24.4301 15.2163C24.2668 15.4871 24.1418 15.7834 24.0625 16.0978L22.9353 16.0977V17.6883H24.0591C24.1372 18.0033 24.2608 18.3001 24.4228 18.5714L23.6255 19.3688L24.7503 20.4935L25.545 19.6988C25.8157 19.8621 26.1119 19.9871 26.4264 20.0664V21.1937H28.0169V20.0698C28.3318 19.9917 28.6286 19.8683 28.8999 19.7062L29.6973 20.5037L30.8221 19.3789L30.0272 18.5842C30.1906 18.3134 30.3156 18.017 30.395 17.7027L31.5221 17.7027ZM27.2288 18.3313C26.4383 18.3313 25.7975 17.6908 25.7975 16.9003C25.7975 16.1097 26.4383 15.4691 27.2288 15.4691C28.0191 15.4691 28.6597 16.1096 28.6597 16.9003C28.6597 17.6908 28.0191 18.3313 27.2288 18.3313Z" fill="#D2CE07"/>
<path d="M22.2516 23.5068V22.153H21.2951C21.2284 21.8851 21.1235 21.6324 20.9857 21.4015L21.6643 20.723L20.7068 19.7657L20.0307 20.4423C19.8003 20.3031 19.5479 20.1968 19.2803 20.1293V19.1699H17.9266V20.1265C17.6586 20.1929 17.4061 20.298 17.1751 20.4357L16.4967 19.7573L15.5392 20.7146L16.2154 21.3909C16.0766 21.6213 15.9702 21.8736 15.9026 22.1412L14.9434 22.141V23.4947H15.8999C15.9662 23.7627 16.0715 24.0154 16.2094 24.2464L15.5308 24.9248L16.4879 25.8822L17.1643 25.2058C17.3946 25.3448 17.6468 25.4511 17.9145 25.5188V26.4783H19.2681V25.5216C19.5362 25.4552 19.7888 25.3502 20.0198 25.2121L20.6984 25.891L21.6555 24.9336L20.9792 24.2573C21.1183 24.0268 21.2245 23.7744 21.2921 23.5069H22.2516V23.5068ZM18.5976 24.0419C17.9248 24.0419 17.3794 23.4966 17.3794 22.8239C17.3794 22.1511 17.9248 21.606 18.5976 21.606C19.2702 21.606 19.8155 22.1511 19.8155 22.8239C19.8155 23.4966 19.2701 24.0419 18.5976 24.0419Z" fill="#22ABEF"/>
<path d="M34.0134 6.61126V5.6882H33.3613C33.3159 5.5055 33.2442 5.33321 33.1502 5.17594L33.6131 4.71323L32.9604 4.06058L32.4991 4.52166C32.3421 4.42696 32.1701 4.35443 31.9877 4.30823V3.65417H31.0645V4.30629C30.8818 4.3516 30.7098 4.42332 30.5522 4.5172L30.0897 4.05448L29.4366 4.70734L29.8979 5.1685C29.8032 5.32555 29.7306 5.49761 29.6845 5.67995L29.0305 5.67987V6.603H29.6827C29.728 6.78578 29.7998 6.95807 29.8935 7.11541L29.4309 7.57813L30.0837 8.23077L30.5448 7.76969C30.702 7.86447 30.8741 7.937 31.0565 7.98312V8.63718H31.9795V7.98498C32.162 7.93968 32.3344 7.86804 32.492 7.77393L32.9546 8.2368L33.6071 7.58394L33.146 7.12286C33.2407 6.96567 33.3133 6.79381 33.3595 6.61126H34.0134ZM31.5221 6.97601C31.0631 6.97601 30.6915 6.60442 30.6915 6.14564C30.6915 5.68687 31.0632 5.31513 31.5221 5.31513C31.9807 5.31513 32.3525 5.68687 32.3525 6.14564C32.3525 6.60442 31.9807 6.97601 31.5221 6.97601Z" fill="#22ABEF"/>
<path d="M29.4454 10.7196V7.37351H27.0814C26.9167 6.71112 26.6572 6.0866 26.3159 5.51587L27.994 3.839L25.6273 1.47288L23.9561 3.14477C23.3868 2.80123 22.763 2.53825 22.1017 2.37139V0H18.7558V2.36411C18.0931 2.52836 17.4691 2.78813 16.8986 3.12885L15.2215 1.45161L12.8548 3.81787L14.5265 5.48939C14.1832 6.05878 13.9204 6.68218 13.7534 7.3436L11.3823 7.34331V10.6894H13.7466C13.9105 11.3518 14.1705 11.9761 14.5113 12.547L12.834 14.2242L15.2003 16.5903L16.8719 14.9184C17.4413 15.262 18.0647 15.5247 18.7261 15.6918V18.0632H22.0719V15.6988C22.7343 15.5345 23.3587 15.2751 23.9294 14.934L25.6067 16.6116L27.9729 14.2453L26.3009 12.5738C26.6446 12.0041 26.9074 11.3806 27.0743 10.7195L29.4454 10.7196ZM20.4137 12.0418C18.7512 12.0418 17.4031 10.6944 17.4031 9.03149C17.4031 7.36853 18.7512 6.02106 20.4137 6.02106C22.0764 6.02106 23.4242 7.36853 23.4242 9.03149C23.4242 10.6944 22.0764 12.0418 20.4137 12.0418Z" fill="#F21C00"/>
<path d="M15.6516 18.0118L14.7821 18.4899C14.634 18.5716 14.7554 18.799 14.9063 18.7159L15.7759 18.2376C15.9255 18.1553 15.8011 17.9293 15.6516 18.0118Z" fill="#F49D56"/>
<path d="M15.9548 18.5753L15.0479 18.9784C14.8934 19.047 14.9949 19.2838 15.1528 19.214L16.0598 18.8111C16.2156 18.7421 16.1106 18.5065 15.9548 18.5753Z" fill="#F49D56"/>
<path d="M15.8611 18.9356L15.1058 19.264C14.9772 19.3199 15.0601 19.5172 15.191 19.4604L15.9463 19.1315C16.0758 19.0749 15.991 18.8791 15.8611 18.9356Z" fill="#F49D56"/>
<path d="M14.51 18.543C14.5779 18.5653 14.9082 18.4195 14.9082 18.4195C15.0473 18.697 15.2402 19.123 15.2337 19.4351C15.2337 19.4351 14.391 19.9321 14.2532 19.7418C14.1171 19.8015 13.8064 19.9408 13.7145 19.9822L13.4192 19.1689C13.6003 19.0676 13.7638 18.9808 13.9027 18.8963C13.878 18.4816 14.3454 18.2345 14.5543 17.9765C14.6571 17.8491 14.7333 17.7462 14.7333 17.7462C14.7333 17.7462 14.9261 17.7966 14.8303 18.0006C14.7344 18.2046 14.3763 18.4985 14.51 18.543Z" fill="#F49D56"/>
<path d="M15.874 18.2582L14.9862 18.7017C14.8349 18.7775 14.9473 19.0095 15.1016 18.9326L15.9894 18.4886C16.1418 18.4126 16.0263 18.1818 15.874 18.2582Z" fill="#F49D56"/>
<path d="M7.87451 18.2768L10.6955 20.6986L13.6179 18.7076L14.4809 20.0037C9.76176 23.6826 11.2316 23.4574 8.03646 20.9975L7.87451 18.2768Z" fill="#B1ECFA"/>
<path d="M4.55456 27.5184C4.55456 27.5184 4.28972 20.4411 4.73607 19.279L6.31705 17.4185L8.2563 18.027C8.2563 18.027 8.78694 20.2691 8.76091 21.0043L8.58601 26.7288L4.55456 27.5184Z" fill="#201C6F"/>
<path d="M5.21106 15.4098C5.51948 16.0884 6.16283 16.4522 6.24667 16.6523C6.2977 16.7741 6.31704 17.4184 6.31704 17.4184L8.36193 18.5456L8.2368 17.1032C8.2368 17.1032 8.64975 17.227 8.94881 17.2003C8.94881 17.2003 9.48956 17.2119 9.54565 16.906C9.45311 16.1208 9.48056 16.024 9.48145 15.573C9.83325 15.355 9.84307 15.095 9.29696 14.7982C9.08956 11.2708 3.96625 12.6688 5.21106 15.4098Z" fill="#F49D56"/>
<path d="M5.19678 29.2779C5.33545 29.4036 6.26988 33.8058 6.26988 33.8058L1.53833 39.9281L2.63516 41.1817C2.63516 41.1817 9.29362 34.4347 9.58226 33.5614L8.55974 28.7648L5.19678 29.2779Z" fill="#1B66B3"/>
<path d="M9.31209 13.8038L7.41926 14.2097C7.41926 14.2097 7.2268 15.4898 6.24676 16.6523C6.24676 16.6523 4.88814 15.8967 5.04451 14.2729C5.04451 14.2729 5.13074 12.8215 6.83766 12.4406L6.75032 12.7346C6.75032 12.7346 6.55958 12.4225 7.7198 12.4492C7.7198 12.4492 8.97308 12.5436 9.31209 13.8038Z" fill="#3A3A3A"/>
<path d="M7.13888 15.2203C7.13888 15.2203 6.84815 14.8537 6.52239 14.9894C6.09731 15.167 6.88378 16.0558 7.10979 15.97L7.13888 15.2203Z" fill="#F49D56"/>
<path d="M7.38623 18.0081L8.65588 19.9913L8.3618 18.5458L7.38623 18.0081Z" fill="#B1ECFA"/>
<path d="M16.7812 33.671C16.7812 33.671 17.0535 34.3192 17.7256 34.5808L20.4136 32.3041C20.4136 32.3041 20.1526 31.5686 19.4467 32.085L18.0961 32.8341L17.6412 32.8415L16.7812 33.671Z" fill="#3F3F3F"/>
<path d="M1.70833 40.1224C1.70833 40.1224 1.00793 40.5004 0.770996 41.1816L3.1435 43.7852C3.1435 43.7852 3.8686 43.4975 3.32748 42.811L2.53022 41.4887L2.50597 41.0343L1.70833 40.1224Z" fill="#3F3F3F"/>
<path d="M7.87451 18.2768L8.34229 18.3167L8.45774 18.8711L7.87451 18.2768Z" fill="#E2340C"/>
<path d="M8.19995 18.6086L8.54015 21.9264L9.14636 22.5968L9.399 22.0677L8.45749 18.8712L8.19995 18.6086Z" fill="#E2340C"/>
<path d="M4.5545 27.5184C4.51752 28.4204 4.99281 29.3778 5.86372 29.7056C7.13806 30.1846 12.6105 27.095 12.6105 27.095C12.6116 27.0964 15.3945 32.3882 16.6454 33.9602L18.1122 32.6317C18.1122 32.6317 14.0107 24.1738 13.187 24.0526L4.5545 27.5184Z" fill="#3C3C99"/>
<path d="M12.5512 15.3506L11.9065 16.1049C11.7969 16.2334 11.9906 16.4034 12.1025 16.2725L12.7473 15.5179C12.8581 15.388 12.6619 15.2206 12.5512 15.3506Z" fill="#F49D56"/>
<path d="M13.0335 15.7707L12.3272 16.4681C12.2069 16.5867 12.3857 16.7724 12.5088 16.6514L13.2151 15.9542C13.3365 15.8346 13.155 15.6511 13.0335 15.7707Z" fill="#F49D56"/>
<path d="M13.0727 16.1409L12.4822 16.7147C12.3814 16.8126 12.5287 16.9678 12.6314 16.8684L13.2217 16.2942C13.323 16.1953 13.1744 16.0422 13.0727 16.1409Z" fill="#F49D56"/>
<path d="M11.6706 16.2504C11.7423 16.2472 11.9998 15.9944 11.9998 15.9944C12.2277 16.2048 12.5588 16.5351 12.6627 16.8294C12.6627 16.8294 12.0499 17.592 11.8538 17.4627C11.7476 17.5666 11.506 17.8069 11.4347 17.878L10.8711 17.2212C11.0049 17.0624 11.1272 16.9236 11.2274 16.7955C11.0577 16.4161 11.4078 16.02 11.5122 15.7047C11.5634 15.5493 11.5982 15.4261 11.5982 15.4261C11.5982 15.4261 11.7965 15.4053 11.7788 15.6299C11.7612 15.8547 11.5299 16.2559 11.6706 16.2504Z" fill="#F49D56"/>
<path d="M12.846 15.5025L12.1721 16.2309C12.0574 16.3552 12.2443 16.5326 12.3617 16.4061L13.0356 15.6772C13.1512 15.5522 12.9617 15.3772 12.846 15.5025Z" fill="#F49D56"/>
<path d="M8.86298 19.6142L10.894 16.7195L12.1592 17.6274L10.0809 21.0344C9.72927 21.393 9.5822 21.7448 8.74841 21.5449L5.68859 20.6937C5.34885 20.6025 4.48828 19.9862 4.72173 19.3004C4.97882 18.5457 4.86374 17.5116 8.86298 19.6142Z" fill="#75C6D3"/>
<path d="M22.8951 26.9958L23.5342 27.6043C23.6428 27.7083 23.4868 27.8763 23.3759 27.7705L22.7366 27.1618C22.6267 27.0571 22.7851 26.891 22.8951 26.9958Z" fill="#F49D56"/>
<path d="M22.506 27.4116L23.1942 27.9642C23.3117 28.0583 23.1703 28.239 23.0506 28.1429L22.3621 27.5906C22.2437 27.496 22.3876 27.3171 22.506 27.4116Z" fill="#F49D56"/>
<path d="M22.5052 27.7428L23.0799 28.1966C23.1778 28.2741 23.0618 28.4247 22.962 28.3462L22.3874 27.8919C22.2887 27.8137 22.406 27.6647 22.5052 27.7428Z" fill="#F49D56"/>
<path d="M23.7555 27.7119C23.6919 27.7156 23.441 27.5154 23.441 27.5154C23.2584 27.7223 22.9956 28.0448 22.9307 28.3145C22.9307 28.3145 23.5422 28.9333 23.704 28.801C23.8074 28.8833 24.043 29.0738 24.1129 29.1303L24.5514 28.4978C24.4188 28.3696 24.2978 28.2579 24.1976 28.1536C24.313 27.8026 23.9671 27.4841 23.846 27.2146C23.7866 27.0817 23.7444 26.976 23.7444 26.976C23.7444 26.976 23.567 26.9755 23.6033 27.1727C23.6393 27.3699 23.8806 27.7039 23.7555 27.7119Z" fill="#F49D56"/>
<path d="M22.6475 27.1572L23.3101 27.7401C23.4228 27.8396 23.2736 28.0136 23.1582 27.9124L22.4955 27.329C22.3819 27.229 22.5336 27.0569 22.6475 27.1572Z" fill="#F49D56"/>
<path d="M29.5224 28.9899L26.5466 30.4319L24.4855 28.0561L23.449 28.9747C26.6716 33.21 25.4589 32.6826 28.765 31.2929L29.5224 28.9899Z" fill="#B1ECFA"/>
<path d="M30.2781 37.6912C30.2781 37.6912 32.1131 31.6652 31.9937 30.5644L31.0563 28.6054L29.2505 28.6882C29.2505 28.6882 28.2848 30.4957 28.1404 31.1339L26.9907 36.0963L30.2781 37.6912Z" fill="#201C6F"/>
<path d="M32.4637 27.1293C32.0442 27.6429 31.4083 27.8097 31.2909 27.9627C31.2191 28.0556 31.0562 28.6054 31.0562 28.6054L29.0421 29.1103L29.477 27.8984C29.477 27.8984 29.0936 27.9111 28.8428 27.8201C28.8428 27.8201 28.3751 27.7074 28.3962 27.4316C28.6543 26.7774 28.6528 26.6879 28.7544 26.2998C28.5014 26.0324 28.552 25.8068 29.089 25.6755C30.0684 22.6894 34.1566 25.0549 32.4637 27.1293Z" fill="#F49D56"/>
<path d="M29.3264 39.0583C29.1789 39.1349 27.3756 42.7083 27.3756 42.7083L30.0538 49.0476L28.826 49.8766C28.826 49.8766 24.6324 42.5624 24.5825 41.7458L26.5512 37.8533L29.3264 39.0583Z" fill="#1B66B3"/>
<path d="M29.302 24.8169L30.8377 25.5958C30.8377 25.5958 30.7124 26.7404 31.2913 27.9628C31.2913 27.9628 32.6313 27.6213 32.8655 26.1895C32.8655 26.1895 33.1208 24.9218 31.7395 24.2065L31.748 24.4792C31.748 24.4792 31.9829 24.2542 30.979 24.0137C30.979 24.0137 29.88 23.8102 29.302 24.8169Z" fill="#3A3A3A"/>
<path d="M30.8494 26.5287C30.8494 26.5287 31.1825 26.2794 31.4318 26.47C31.7574 26.7193 30.8791 27.305 30.7043 27.1799L30.8494 26.5287Z" fill="#F49D56"/>
<path d="M30.0025 28.8696L28.4604 30.2867L29.0419 29.1103L30.0025 28.8696Z" fill="#B1ECFA"/>
<path d="M18.3668 40.205C18.3668 40.205 17.9856 40.7007 17.3483 40.7731L15.5537 38.2048C15.5537 38.2048 15.9452 37.6316 16.435 38.2359L17.4264 39.1867L17.8157 39.2963L18.3668 40.205Z" fill="#3F3F3F"/>
<path d="M29.8635 49.1763C29.8635 49.1763 30.3801 49.6604 30.4292 50.3L27.7975 52C27.7975 52 27.2393 51.5881 27.8607 51.1204L28.8465 50.1645L28.9706 49.7791L29.8635 49.1763Z" fill="#3F3F3F"/>
<path d="M29.5225 28.9899L29.1111 28.9182L28.8857 29.3686L29.5225 28.9899Z" fill="#E2340C"/>
<path d="M29.1673 29.2013L28.1211 31.9771L27.4475 32.4159L27.3506 31.9037L28.8858 29.3686L29.1673 29.2013Z" fill="#E2340C"/>
<path d="M30.2782 37.6912C30.105 38.4752 29.479 39.1905 28.6555 39.2746C27.451 39.3971 23.4467 35.4974 23.4467 35.4974C23.4452 35.4984 19.8504 39.417 18.4178 40.4848L17.4583 39.0091C17.4583 39.0091 22.9062 32.6674 23.642 32.7503L30.2782 37.6912Z" fill="#3C3C99"/>
<path d="M26.1654 25.4114L26.5485 26.2065C26.6135 26.3419 26.4084 26.4441 26.3419 26.3062L25.9588 25.5108C25.893 25.3737 26.0998 25.2744 26.1654 25.4114Z" fill="#F49D56"/>
<path d="M25.6552 25.6631L26.1039 26.4232C26.1804 26.5526 25.9847 26.6718 25.9062 26.5397L25.4573 25.7797C25.3799 25.6494 25.5778 25.5326 25.6552 25.6631Z" fill="#F49D56"/>
<path d="M25.537 25.9725L25.9148 26.6C25.979 26.707 25.817 26.807 25.7514 26.6983L25.3743 26.0705C25.3096 25.9625 25.4721 25.8645 25.537 25.9725Z" fill="#F49D56"/>
<path d="M26.7178 26.3851C26.657 26.3662 26.4931 26.0901 26.4931 26.0901C26.2491 26.2193 25.8895 26.4282 25.7332 26.6578C25.7332 26.6578 26.087 27.4526 26.2851 27.3859C26.3528 27.4995 26.5059 27.761 26.5512 27.8382L27.1848 27.4015C27.1063 27.2345 27.0322 27.0873 26.9753 26.9545C27.2074 26.6668 26.9963 26.2468 26.9781 25.9517C26.9693 25.8065 26.9674 25.6929 26.9674 25.6929C26.9674 25.6929 26.8016 25.6299 26.7656 25.8269C26.7299 26.0242 26.8377 26.4219 26.7178 26.3851Z" fill="#F49D56"/>
<path d="M25.877 25.475L26.291 26.2544C26.3615 26.3873 26.1603 26.4973 26.0882 26.362L25.6743 25.5822C25.6032 25.4483 25.8059 25.341 25.877 25.475Z" fill="#F49D56"/>
<path d="M28.3686 29.9155L27.2795 26.9651L25.9851 27.4585L26.9986 30.8603C27.2196 31.2486 27.2661 31.5844 28.0286 31.6019L30.8532 31.5648C31.1661 31.5636 32.0458 31.229 32.0009 30.5863C31.9516 29.8789 32.2851 29.0158 28.3686 29.9155Z" fill="#75C6D3"/>
</svg>
