<svg width="66" height="52" viewBox="0 0 66 52" fill="none" xmlns="http://www.w3.org/2000/svg">
<path d="M55.8482 24.3309C55.8482 37.7688 44.9547 48.6622 31.5169 48.6622C18.079 48.6622 7.18579 37.7688 7.18579 24.3309C7.18579 10.8935 18.079 0 31.5169 0C44.9547 0 55.8482 10.8935 55.8482 24.3309Z" fill="#A54021"/>
<path d="M8.68382 18.8888H5.31641V15.6168H8.81607C9.21255 14.056 10.8769 13.7381 12.4931 14.1183C13.3403 14.1387 14.4553 13.8413 15.4034 13.6675C16.0559 15.1721 12.2804 15.4007 10.4586 15.5383L12.5878 20.9369C9.26671 21.1701 8.68382 18.8888 8.68382 18.8888Z" fill="#F7A561"/>
<path d="M14.4024 13.8751C14.4018 13.8731 14.4005 13.8715 14.3999 13.8691C14.7418 13.7987 15.0326 13.6975 15.4004 13.6074C15.4492 13.7182 15.4756 13.8823 15.479 13.9795C15.4144 14.021 15.4092 14.0176 14.9719 14.1622C14.7352 14.2398 14.4804 14.1115 14.4024 13.8751Z" fill="#FFE2C5"/>
<path d="M17.8702 14.5703H10.4653C10.1821 14.5703 9.95142 14.8008 9.95142 15.0841V19.4654C9.95142 19.749 10.1822 19.9796 10.4653 19.9796H17.8702C18.1531 19.9796 18.3832 19.749 18.3832 19.4654V15.0841C18.3832 14.8008 18.1531 14.5703 17.8702 14.5703Z" fill="#4F4F4F"/>
<path d="M17.6156 19.4338H10.9163C10.8395 19.4338 10.7776 19.3718 10.7776 19.2952V15.2547C10.7776 15.1779 10.8395 15.1157 10.9163 15.1157H17.6156C17.6917 15.1157 17.7548 15.178 17.7548 15.2547V19.2952C17.7549 19.3718 17.6917 19.4338 17.6156 19.4338Z" fill="#03ABE5"/>
<path d="M10.3349 17.4937C10.2141 17.4937 10.1162 17.396 10.1162 17.2751C10.1162 17.1544 10.2141 17.0562 10.3349 17.0562C10.4552 17.0562 10.5541 17.1544 10.5541 17.2751C10.554 17.396 10.4551 17.4937 10.3349 17.4937Z" fill="#A8B3BD"/>
<path d="M16.4367 19.4338H14.9232L10.7776 15.6543V15.2547C10.7776 15.1779 10.8395 15.1157 10.9163 15.1157H11.7005L16.4367 19.4338Z" fill="#85D7E0"/>
<path d="M13.4988 20.9072L12.5244 20.3237L13.0843 20.4422L13.4988 20.9072Z" fill="#FFAF57"/>
<path d="M14.6548 21.0688L13.6804 20.485L14.238 20.3237L14.6548 21.0688Z" fill="#FFAF57"/>
<path d="M15.7723 21.14L14.7976 20.5566L15.3554 20.395L15.7723 21.14Z" fill="#FFAF57"/>
<path d="M13.0896 20.4494C13.0798 20.6604 12.9712 20.7615 12.8168 20.8622C12.6 21.0019 12.3116 20.9401 12.1728 20.7234C12.1728 20.7234 11.3026 19.4412 11.0486 18.8531C11.0035 18.7476 10.8631 18.4883 11.2614 18.2847C11.4679 18.1786 11.7335 18.1928 11.8891 18.4331L13.0896 20.4494Z" fill="#FCB87A"/>
<path d="M14.2011 18.6225L14.5057 19.0944C14.4968 18.9227 14.5755 18.7511 14.7305 18.651C14.9851 18.4866 15.2845 18.572 15.4257 18.7922L16.5213 20.4893C16.6699 20.719 16.6039 21.0254 16.3738 21.1744L16.3641 21.181C16.134 21.3291 15.8263 21.2636 15.6799 21.0333L15.4004 20.6042C15.4093 20.8244 15.2977 20.9437 15.1311 21.051C14.9138 21.1907 14.6271 21.1285 14.4865 20.9119L14.1885 20.4499C14.1682 20.8873 13.5385 21.1378 13.2711 20.7239C13.2711 20.7239 11.9711 18.944 12.0791 18.6292C12.1109 18.4817 12.2209 18.356 12.3603 18.2852C12.5663 18.1791 12.8331 18.1933 12.9874 18.4336L13.2856 18.8954C13.3029 18.4744 13.9297 18.1998 14.2011 18.6225Z" fill="#FCB87A"/>
<path d="M14.8692 18.7252C15.1003 18.6049 15.3401 18.8315 15.5151 19.305L14.9779 19.6246C14.6059 19.1895 14.5969 18.8669 14.8692 18.7252Z" fill="#FFE2C5"/>
<path d="M13.6965 18.5855C13.9422 18.498 14.1356 18.6894 14.3416 19.1653L13.8046 19.485C13.4328 19.0496 13.4058 18.6893 13.6965 18.5855Z" fill="#FFE2C5"/>
<path d="M12.4972 18.3809C12.7289 18.262 12.9148 18.5286 13.1417 18.9607L12.6048 19.2804C12.2333 18.8443 12.166 18.5493 12.4972 18.3809Z" fill="#FFE2C5"/>
<path d="M11.3984 18.3809C11.6308 18.262 11.8158 18.5286 12.0436 18.9607L11.5058 19.2804C11.1351 18.8443 11.0678 18.5493 11.3984 18.3809Z" fill="#FFE2C5"/>
<path d="M8.94121 9.42529C8.69313 9.31633 8.40358 9.42934 8.29472 9.67733L8.25093 9.77546C8.14227 10.0239 8.2544 10.3131 8.50316 10.4222L12.8172 12.3169C13.4124 12.578 13.8629 11.5873 13.2551 11.3199L8.94121 9.42529Z" fill="#FCB87A"/>
<path d="M8.60181 7.89458C8.35432 7.78553 8.06399 7.89855 7.95523 8.14663L7.91192 8.24514C7.80325 8.49331 7.91637 8.78238 8.16445 8.89172L11.3649 10.2976C11.9597 10.5587 12.4103 9.5676 11.8028 9.30058L8.60181 7.89458Z" fill="#FCB87A"/>
<path d="M8.79354 6.59768C8.54537 6.48863 8.25573 6.60184 8.14774 6.84962L8.10355 6.94833C7.99556 7.19612 8.10782 7.48538 8.35589 7.59443L11.5565 9.00063C12.1513 9.26166 12.6019 8.27031 11.9945 8.00377L8.79354 6.59768Z" fill="#FCB87A"/>
<path d="M7.14599 5.68831L6.18239 5.26562L4.88525 8.21886L5.86209 8.64812C5.65791 10.1853 7.64234 10.9859 7.64234 10.9859C8.2168 11.5636 8.56648 12.0407 8.8279 12.4578C9.05925 12.8265 9.22197 13.148 9.41184 13.4507C9.55851 13.3971 9.67985 13.3356 9.78078 13.2675C10.9956 12.445 9.02861 10.6533 8.91424 10.4638L9.7362 9.77471L10.5474 6.15952C7.96158 4.7979 7.23812 5.56824 7.14599 5.68831Z" fill="#FCB87A"/>
<path d="M13.1945 11.4546C12.9939 11.3663 12.7595 11.4575 12.6713 11.6583C12.5835 11.8596 12.6749 12.0932 12.8756 12.1819L13.0185 12.2447C13.2193 12.3324 13.4535 12.2413 13.5418 12.0407C13.6295 11.8394 13.5383 11.6056 13.3381 11.517L13.1945 11.4546Z" fill="#FFE2C5"/>
<path d="M10.0564 5.94385L11.8075 6.71322C12.3267 6.94128 11.9416 7.78828 11.4341 7.56515L9.6814 6.79559L10.0564 5.94385Z" fill="#FCB87A"/>
<path d="M8.82788 12.4577C9.05923 12.8264 9.22195 13.1479 9.41182 13.4506C9.55848 13.397 9.67983 13.3355 9.78076 13.2674C9.75369 13.1534 9.73851 13.1524 9.33507 12.6024C9.21586 12.4404 9.00567 12.3861 8.82788 12.4577Z" fill="#FFE2C5"/>
<path d="M23.5128 11.3617C22.9654 11.9091 22.963 12.7964 23.5067 13.3404L32.1718 22.0054C32.7156 22.5492 33.6028 22.5465 34.1503 21.9994L37.8333 18.3161L27.1957 7.67871L23.5128 11.3617Z" fill="#424242"/>
<path d="M32.8579 3.98948L41.5224 12.6545C42.0661 13.1979 42.0638 14.0856 41.5165 14.6326L37.8334 18.3157L27.1958 7.67834L30.8789 3.99518C31.4259 3.44778 32.3138 3.44537 32.8579 3.98948Z" fill="#2D2D2D"/>
<path d="M31.7455 4.60997L39.5986 12.4635V15.4063L33.614 21.391C33.5244 21.4806 33.3796 21.4806 33.2908 21.3913L24.127 12.2279C24.0381 12.1388 24.0381 11.994 24.127 11.9047L31.4215 4.60997C31.5109 4.52064 31.6559 4.52064 31.7455 4.60997Z" fill="#DAEFEC"/>
<path d="M32.6058 10.6111L28.6804 14.5357L28.3801 14.2349L32.3046 10.3101L32.6058 10.6111Z" fill="#474646"/>
<path d="M30.8756 13.351L29.1787 15.0483L29.4795 15.3491L31.1764 13.6517L30.8756 13.351Z" fill="#474646"/>
<path d="M29.4153 11.8886L27.718 13.5854L28.019 13.8866L29.7163 12.1897L29.4153 11.8886Z" fill="#E2340C"/>
<path d="M28.6113 5.38237L25.1553 8.83838L26.5171 10.2002L29.9731 6.7442L28.6113 5.38237Z" fill="#FEDD00"/>
<path d="M27.4679 5.58115L25.3848 7.66455L26.5465 8.82608L28.6296 6.74268L27.4679 5.58115Z" fill="#FCB715"/>
<path d="M37.4661 12.1217C37.6116 12.0709 37.7708 12.1478 37.8219 12.2936L38.4329 14.0473C38.484 14.193 38.407 14.3522 38.2617 14.403L32.5864 16.3814C32.4405 16.4323 32.2813 16.3553 32.2307 16.2097L31.6191 14.4556C31.5687 14.3102 31.6455 14.151 31.7908 14.1002L37.4661 12.1217ZM37.342 11.765L31.6665 13.7438C31.3245 13.8631 31.1433 14.238 31.2629 14.5799L31.8746 16.334C31.9935 16.6759 32.369 16.8571 32.7103 16.7378L38.3855 14.7597C38.7274 14.6403 38.9089 14.2651 38.7894 13.9233L38.1783 12.1691C38.0587 11.8273 37.6838 11.6461 37.342 11.765Z" fill="#E2340C"/>
<path d="M37.0375 12.9886L32.6865 14.5054L32.8109 14.8621L37.1618 13.3452L37.0375 12.9886Z" fill="#E2340C"/>
<path d="M37.2654 13.6636L35.7781 14.1821L35.9023 14.5385L37.3897 14.0199L37.2654 13.6636Z" fill="#E2340C"/>
<path d="M50.8998 21.8843V24.8271L49.4285 23.3556L50.8998 21.8843Z" fill="#3DC0CD"/>
<path d="M61.634 30.4252V29.0337H60.2424V30.4252H61.634ZM60.9382 29.397C61.1219 29.397 61.2711 29.546 61.2711 29.7298C61.2711 29.9134 61.1219 30.0622 60.9382 30.0622C60.7545 30.0622 60.606 29.9134 60.606 29.7298C60.6061 29.546 60.7545 29.397 60.9382 29.397Z" fill="#7D7F7F"/>
<path d="M43.8741 27.9877H56.0725C56.8684 27.9877 57.5133 27.3425 57.5133 26.5472V7.83191C57.5133 7.03615 56.8684 6.39111 56.0725 6.39111H43.8741C43.0786 6.39111 42.4333 7.03615 42.4333 7.83191V26.5472C42.4333 27.3424 43.0786 27.9877 43.8741 27.9877Z" fill="#474646"/>
<path d="M44.9897 8.7276V7.62305H43.8855V8.7276H44.9897ZM44.4375 7.91154C44.5843 7.91154 44.7019 8.02967 44.7019 8.17556C44.7019 8.32126 44.5842 8.4393 44.4375 8.4393C44.2922 8.4393 44.1739 8.32126 44.1739 8.17556C44.1739 8.02967 44.2922 7.91154 44.4375 7.91154Z" fill="#7D7F7F"/>
<path d="M47.917 26.6634C47.917 26.479 48.0666 26.3291 48.2509 26.3291H51.6955C51.8804 26.3291 52.0296 26.4791 52.0296 26.6634C52.0296 26.8486 51.8804 26.9975 51.6955 26.9975H48.2509C48.0666 26.9975 47.917 26.8486 47.917 26.6634Z" fill="#4B4C4C"/>
<path d="M56.3121 9.82227H43.6348V26.0539H56.3121V9.82227Z" fill="#22ABEF"/>
<path d="M60.4469 30.1396L59.0128 29.553C59.0128 29.553 55.6842 30.1932 54.5643 30.3401L52.7756 29.6446C52.0992 29.123 50.853 27.9876 50.853 27.9876H52.9128L53.7429 28.4294L54.8702 28.2921C54.8702 28.2921 54.5861 27.6108 53.2395 27.2023C52.5184 26.9839 51.7872 26.8047 51.0616 26.6056C50.769 26.5351 50.5688 26.2609 50.5936 25.9605C50.6211 25.6174 50.9264 25.3638 51.2687 25.4011L54.5467 25.7592C54.5467 25.7592 55.4763 25.3766 56.4696 25.5498C57.4644 25.7253 57.9043 26.22 57.9043 26.22L62.3592 27.2441L60.4469 30.1396Z" fill="#FFC278"/>
<path d="M51.7627 26.4914L51.8877 25.7473C51.3174 25.5386 50.9045 25.5777 50.8506 25.8882C50.7791 26.3003 51.0717 26.4925 51.7627 26.4914Z" fill="#F5802E"/>
<path d="M51.2341 12.4492C51.951 12.4492 52.5324 13.0302 52.5324 13.7469C52.5324 14.4637 51.951 15.0446 51.2341 15.0446C50.5173 15.0446 49.9363 14.4636 49.9363 13.7469C49.9363 13.0302 50.5172 12.4492 51.2341 12.4492Z" fill="#F9ECDC"/>
<path d="M56.341 11.7094C56.6142 11.6322 56.8997 11.7918 56.9765 12.0663L57.0068 12.1747C57.0835 12.4491 56.9236 12.7338 56.6497 12.8111L51.8817 14.15C51.2244 14.3344 50.9004 13.237 51.5717 13.048L56.341 11.7094Z" fill="#FFC278"/>
<path d="M56.9179 10.166C57.192 10.0884 57.4767 10.2492 57.5541 10.5231L57.5847 10.6319C57.6617 10.9058 57.5019 11.1906 57.2274 11.2682L53.6896 12.2613C53.0325 12.4459 52.709 11.3479 53.3801 11.1592L56.9179 10.166Z" fill="#FFC278"/>
<path d="M56.9094 8.7879C57.1834 8.71085 57.468 8.87085 57.545 9.14512L57.575 9.25331C57.6521 9.52778 57.4922 9.8124 57.2183 9.88954L53.6805 10.8828C53.0232 11.0674 52.6995 9.9697 53.3713 9.78108L56.9094 8.7879Z" fill="#FFC278"/>
<path d="M58.7569 8.08373L61.2183 7.39258L62.1351 10.6567L59.6593 11.3519C59.6466 12.9822 57.4631 13.5241 57.4631 13.5241C56.7805 14.0412 56.3464 14.4864 56.0129 14.8817C55.7184 15.232 55.5015 15.5429 55.2607 15.8298C55.1165 15.7524 54.9975 15.6708 54.9025 15.5849C53.7592 14.5504 56.0692 12.9746 56.216 12.7938L55.4612 11.9563L55.1477 8.07493C58.0393 7.03651 58.6787 7.94461 58.7569 8.08373Z" fill="#FFC278"/>
<path d="M64.2428 5.90674L65.3875 9.98174L60.8195 11.4635L59.6743 7.38794L64.2428 5.90674Z" fill="#2D2D2D"/>
<path d="M64.8153 28.5031L62.8345 32.2445L59.0312 30.2631L61.0117 26.522L64.8153 28.5031Z" fill="#2D2D2D"/>
<path d="M55.6906 7.92188L53.7549 8.4653C53.1812 8.62666 53.4583 9.56464 54.0194 9.40706L55.9553 8.86276L55.6906 7.92188Z" fill="#FFC278"/>
<path d="M56.0129 14.8816C55.7184 15.2319 55.5016 15.5428 55.2608 15.8297C55.1165 15.7523 54.9975 15.6707 54.9026 15.5848C54.9483 15.4701 54.9639 15.4713 55.4649 14.9585C55.6122 14.8072 55.8386 14.7813 56.0129 14.8816Z" fill="#F5802E"/>
<path d="M51.4269 13.2896C51.7289 13.2046 52.0209 13.3046 52.0799 13.5118C52.1381 13.7201 51.9406 13.9568 51.6383 14.0418C51.3361 14.1267 51.0441 14.027 50.9857 13.8195C50.9268 13.6113 51.1247 13.374 51.4269 13.2896Z" fill="#F5802E"/>
<path d="M43.2229 32.8027H18.7993V41.3599H43.2229V32.8027Z" fill="#FFBC00"/>
<path d="M43.2227 31.2852H18.7991V40.6072H43.2227V31.2852Z" fill="#DAEFEC"/>
<path d="M21.9283 34.9664C21.9283 35.1027 21.8204 35.2128 21.687 35.2128H20.1243C19.9908 35.2128 19.8826 35.1027 19.8826 34.9664V33.9221C19.8826 33.7858 19.9908 33.6758 20.1243 33.6758H21.687C21.8204 33.6758 21.9283 33.7858 21.9283 33.9221V34.9664Z" fill="#A2C0CC"/>
<path d="M24.4533 34.9664C24.4533 35.1027 24.3463 35.2128 24.2131 35.2128H22.6498C22.5168 35.2128 22.4094 35.1027 22.4094 34.9664V33.9221C22.4094 33.7858 22.5168 33.6758 22.6498 33.6758H24.2131C24.3463 33.6758 24.4533 33.7858 24.4533 33.9221V34.9664Z" fill="#36C6FF"/>
<path d="M26.9803 34.9664C26.9803 35.1027 26.8727 35.2128 26.7401 35.2128H25.1768C25.0433 35.2128 24.9353 35.1027 24.9353 34.9664V33.9221C24.9353 33.7858 25.0433 33.6758 25.1768 33.6758H26.7401C26.8728 33.6758 26.9803 33.7858 26.9803 33.9221V34.9664Z" fill="#36C6FF"/>
<path d="M29.5083 34.9664C29.5083 35.1027 29.4 35.2128 29.266 35.2128H27.7027C27.5699 35.2128 27.4617 35.1027 27.4617 34.9664V33.9221C27.4617 33.7858 27.5699 33.6758 27.7027 33.6758H29.266C29.4 33.6758 29.5083 33.7858 29.5083 33.9221V34.9664Z" fill="#36C6FF"/>
<path d="M32.0335 34.9664C32.0335 35.1027 31.9267 35.2128 31.7939 35.2128H30.2293C30.0965 35.2128 29.9883 35.1027 29.9883 34.9664V33.9221C29.9883 33.7858 30.0965 33.6758 30.2293 33.6758H31.7939C31.9267 33.6758 32.0335 33.7858 32.0335 33.9221V34.9664Z" fill="#FFBC00"/>
<path d="M34.5605 34.9664C34.5605 35.1027 34.4534 35.2128 34.32 35.2128H32.7555C32.6227 35.2128 32.5151 35.1027 32.5151 34.9664V33.9221C32.5151 33.7858 32.6227 33.6758 32.7555 33.6758H34.32C34.4534 33.6758 34.5605 33.7858 34.5605 33.9221V34.9664Z" fill="#FFBC00"/>
<path d="M37.0875 34.9664C37.0875 35.1027 36.9794 35.2128 36.8464 35.2128H35.2821C35.1491 35.2128 35.041 35.1027 35.041 34.9664V33.9221C35.041 33.7858 35.1491 33.6758 35.2821 33.6758H36.8464C36.9794 33.6758 37.0875 33.7858 37.0875 33.9221V34.9664Z" fill="#FFBC00"/>
<path d="M39.6132 34.9664C39.6132 35.1027 39.5052 35.2128 39.373 35.2128H37.8097C37.6756 35.2128 37.5688 35.1027 37.5688 34.9664V33.9221C37.5688 33.7858 37.6756 33.6758 37.8097 33.6758H39.373C39.5052 33.6758 39.6132 33.7858 39.6132 33.9221V34.9664Z" fill="#FFBC00"/>
<path d="M42.1398 34.9664C42.1398 35.1027 42.0323 35.2128 41.8994 35.2128H40.3355C40.2028 35.2128 40.0952 35.1027 40.0952 34.9664V33.9221C40.0952 33.7858 40.2028 33.6758 40.3355 33.6758H41.8994C42.0323 33.6758 42.1398 33.7858 42.1398 33.9221V34.9664Z" fill="#FFBC00"/>
<path d="M21.9283 36.8422C21.9283 36.978 21.8204 37.0882 21.687 37.0882H20.1243C19.9908 37.0882 19.8826 36.978 19.8826 36.8422V35.7968C19.8826 35.661 19.9908 35.5508 20.1243 35.5508H21.687C21.8204 35.5508 21.9283 35.661 21.9283 35.7968V36.8422Z" fill="#A2C0CC"/>
<path d="M24.4533 36.8422C24.4533 36.978 24.3463 37.0882 24.2131 37.0882H22.6498C22.5168 37.0882 22.4094 36.978 22.4094 36.8422V35.7968C22.4094 35.661 22.5168 35.5508 22.6498 35.5508H24.2131C24.3463 35.5508 24.4533 35.661 24.4533 35.7968V36.8422Z" fill="#A2C0CC"/>
<path d="M26.9803 36.8422C26.9803 36.978 26.8727 37.0882 26.7401 37.0882H25.1768C25.0433 37.0882 24.9353 36.978 24.9353 36.8422V35.7968C24.9353 35.661 25.0433 35.5508 25.1768 35.5508H26.7401C26.8728 35.5508 26.9803 35.661 26.9803 35.7968V36.8422Z" fill="#A2C0CC"/>
<path d="M29.5083 36.8422C29.5083 36.978 29.4 37.0882 29.266 37.0882H27.7027C27.5699 37.0882 27.4617 36.978 27.4617 36.8422V35.7968C27.4617 35.661 27.5699 35.5508 27.7027 35.5508H29.266C29.4 35.5508 29.5083 35.661 29.5083 35.7968V36.8422Z" fill="#FFBC00"/>
<path d="M32.0335 36.8422C32.0335 36.978 31.9267 37.0882 31.7939 37.0882H30.2293C30.0965 37.0882 29.9883 36.978 29.9883 36.8422V35.7968C29.9883 35.661 30.0965 35.5508 30.2293 35.5508H31.7939C31.9267 35.5508 32.0335 35.661 32.0335 35.7968V36.8422Z" fill="#FFBC00"/>
<path d="M34.5605 36.8422C34.5605 36.978 34.4534 37.0882 34.32 37.0882H32.7555C32.6227 37.0882 32.5151 36.978 32.5151 36.8422V35.7968C32.5151 35.661 32.6227 35.5508 32.7555 35.5508H34.32C34.4534 35.5508 34.5605 35.661 34.5605 35.7968V36.8422Z" fill="#FFBC00"/>
<path d="M37.0875 36.6728C37.0875 36.8083 36.9794 36.9186 36.8464 36.9186H35.2821C35.1491 36.9186 35.041 36.8083 35.041 36.6728V35.6274C35.041 35.4917 35.1491 35.3813 35.2821 35.3813H36.8464C36.9794 35.3813 37.0875 35.4918 37.0875 35.6274V36.6728Z" fill="#A2C0CC"/>
<path d="M39.6132 36.6728C39.6132 36.8083 39.5052 36.9186 39.373 36.9186H37.8097C37.6756 36.9186 37.5688 36.8083 37.5688 36.6728V35.6274C37.5688 35.4917 37.6756 35.3813 37.8097 35.3813H39.373C39.5052 35.3813 39.6132 35.4918 39.6132 35.6274V36.6728Z" fill="#A2C0CC"/>
<path d="M42.1398 36.8422C42.1398 36.978 42.0323 37.0882 41.8994 37.0882H40.3355C40.2028 37.0882 40.0952 36.978 40.0952 36.8422V35.7968C40.0952 35.661 40.2028 35.5508 40.3355 35.5508H41.8994C42.0323 35.5508 42.1398 35.661 42.1398 35.7968V36.8422Z" fill="#FF9100"/>
<path d="M21.9283 38.7176C21.9283 38.8529 21.8204 38.9632 21.687 38.9632H20.1243C19.9908 38.9632 19.8826 38.8529 19.8826 38.7176V37.6717C19.8826 37.5363 19.9908 37.4258 20.1243 37.4258H21.687C21.8204 37.4258 21.9283 37.5363 21.9283 37.6717V38.7176Z" fill="#A2C0CC"/>
<path d="M24.4533 38.7176C24.4533 38.8529 24.3463 38.9632 24.2131 38.9632H22.6498C22.5168 38.9632 22.4094 38.8529 22.4094 38.7176V37.6717C22.4094 37.5363 22.5168 37.4258 22.6498 37.4258H24.2131C24.3463 37.4258 24.4533 37.5363 24.4533 37.6717V38.7176Z" fill="#A2C0CC"/>
<path d="M34.3201 37.4258H25.1768C25.0433 37.4258 24.9353 37.5363 24.9353 37.6717V38.7176C24.9353 38.8529 25.0433 38.9632 25.1768 38.9632H34.3201C34.4535 38.9632 34.5605 38.8529 34.5605 38.7176V37.6717C34.5605 37.5363 34.4535 37.4258 34.3201 37.4258Z" fill="#A2C0CC"/>
<path d="M37.0875 38.5476C37.0875 38.6831 36.9794 38.7936 36.8464 38.7936H35.2821C35.1491 38.7936 35.041 38.6831 35.041 38.5476V37.5022C35.041 37.3661 35.1491 37.2559 35.2821 37.2559H36.8464C36.9794 37.2559 37.0875 37.3661 37.0875 37.5022V38.5476Z" fill="#A2C0CC"/>
<path d="M39.6132 38.5476C39.6132 38.6831 39.5052 38.7936 39.373 38.7936H37.8097C37.6756 38.7936 37.5688 38.6831 37.5688 38.5476V37.5022C37.5688 37.3661 37.6756 37.2559 37.8097 37.2559H39.373C39.5052 37.2559 39.6132 37.3661 39.6132 37.5022V38.5476Z" fill="#A2C0CC"/>
<path d="M42.1398 38.5476C42.1398 38.6831 42.0323 38.7936 41.8994 38.7936H40.3355C40.2028 38.7936 40.0952 38.6831 40.0952 38.5476V37.5022C40.0952 37.3661 40.2028 37.2559 40.3355 37.2559H41.8994C42.0323 37.2559 42.1398 37.3661 42.1398 37.5022V38.5476Z" fill="#A2C0CC"/>
<path d="M38.393 31.9819H37.5276V32.7332H38.393V31.9819Z" fill="#FF9100"/>
<path d="M40.2449 31.9819H39.3799V32.7332H40.2449V31.9819Z" fill="#FF9100"/>
<path d="M42.0979 31.9819H41.2329V32.7332H42.0979V31.9819Z" fill="#FF9100"/>
<path d="M27.7914 38.5958L25.3112 42.0363C24.8881 42.6228 23.9858 41.9898 24.4167 41.3917L26.8975 37.9512C27.3238 37.3596 28.2167 38.0047 27.7914 38.5958Z" fill="#FFBF73"/>
<path d="M23.3815 37.0278L22.1233 40.3145C21.9083 40.8749 21.0508 40.5591 21.2696 39.9877L22.5276 36.701C22.744 36.1363 23.5979 36.4633 23.3815 37.0278Z" fill="#FFBF73"/>
<path d="M19.725 43.6275C19.5014 44.1475 17.4646 47.5932 17.2134 47.9931L20.3853 49.8016C21.0551 48.9057 22.6096 46.2123 23.1304 45.5552C24.8764 45.8742 26.1675 44.0204 27.3723 43.2676C27.9646 42.8978 28.4403 42.6286 28.4403 42.6286C28.4403 42.6286 28.3262 41.7842 27.4119 42.0846C26.4967 42.3846 25.0639 43.7515 24.9444 43.163C24.8836 42.862 25.6742 41.5367 25.6742 41.5367C25.6742 41.5367 24.141 40.5155 23.1633 40.1046C22.1852 39.694 21.5359 39.6294 21.5359 39.6294C21.5359 39.6294 18.9896 42.9448 19.725 43.6275Z" fill="#FFBF73"/>
<path d="M26.6726 37.2457L24.5716 40.9305C24.2135 41.5583 23.2491 41.0251 23.6145 40.3849L25.7149 36.6998C26.0765 36.0669 27.0329 36.6127 26.6726 37.2457Z" fill="#FFBF73"/>
<path d="M27.107 37.9701C26.8674 38.3038 26.8669 38.2984 26.8494 38.3395C27.0092 38.5176 27.2194 38.6688 27.4388 38.764C27.4717 38.7346 27.4669 38.7363 27.7073 38.4027C27.8095 38.2613 27.7578 38.0493 27.5925 37.9297C27.4165 37.8035 27.2026 37.8382 27.107 37.9701Z" fill="#F5802E"/>
<path d="M25.4781 37.1608L23.3922 40.8535C23.0358 41.4831 22.0697 40.9534 22.4332 40.3116L24.5188 36.6191C24.8774 35.9839 25.8368 36.5264 25.4781 37.1608Z" fill="#FFBF73"/>
<path d="M24.7299 36.6143C24.5275 36.9722 24.5268 36.967 24.5137 37.01C24.6919 37.1694 24.9173 37.2969 25.1463 37.3672C25.1763 37.334 25.171 37.3368 25.3734 36.9783C25.4593 36.8262 25.3842 36.6216 25.2063 36.5213C25.0182 36.4146 24.8098 36.4726 24.7299 36.6143Z" fill="#F5802E"/>
<path d="M22.6999 36.6713C22.5779 36.99 22.5768 36.9858 22.5713 37.0226C22.7373 37.1315 22.9378 37.2083 23.1342 37.2382C23.1546 37.2073 23.151 37.2097 23.2732 36.891C23.3248 36.7557 23.2381 36.5966 23.0796 36.5365C22.9126 36.4723 22.7479 36.5452 22.6999 36.6713Z" fill="#F5802E"/>
<path d="M27.3394 43.2237C27.3478 43.2397 27.3587 43.2544 27.3719 43.2677C27.9643 42.8979 28.4399 42.6286 28.4399 42.6286C28.3513 42.4635 28.0322 42.4629 27.728 42.6272C27.4241 42.7918 27.2498 43.0591 27.3394 43.2237Z" fill="#F5802E"/>
<path d="M25.9265 36.6956C25.7229 37.0531 25.7222 37.048 25.709 37.0906C25.8869 37.251 26.1115 37.379 26.3399 37.4502C26.37 37.4175 26.365 37.4198 26.5693 37.0624C26.6551 36.9104 26.5813 36.7057 26.4041 36.6045C26.216 36.4974 26.007 36.5541 25.9265 36.6956Z" fill="#F5802E"/>
<path d="M25.7151 36.6997L23.8225 40.0201L25.709 37.0909L25.7151 36.6997Z" fill="#F7A74F"/>
<path d="M35.757 38.3662L37.3304 42.3051C37.5991 42.9769 38.627 42.5812 38.3536 41.8965L36.7806 37.9573C36.5104 37.2805 35.4866 37.6896 35.757 38.3662Z" fill="#FFBF73"/>
<path d="M40.2797 40.3174L40.4907 41.8645C40.5633 42.4599 41.4719 42.3614 41.3986 41.754L41.1875 40.207C41.115 39.6067 40.2078 39.7169 40.2797 40.3174Z" fill="#FFBF73"/>
<path d="M42.3641 45.2019C42.456 45.7606 43.2755 49.6588 43.4233 50.1072L39.9073 51.0934C39.4748 50.0622 38.9401 47.0112 38.5934 46.2476C36.8222 46.1344 36.0188 44.0232 35.0324 43.0011C34.5469 42.4985 34.1504 42.1218 34.1504 42.1218C34.1504 42.1218 34.4652 41.3308 35.2806 41.8436C36.0958 42.3564 37.1552 44.0296 37.4133 43.4872C37.5455 43.2102 37.0991 41.7326 37.0991 41.7326C39.5444 40.8596 40.8067 40.9102 41.2274 40.4995C41.2274 40.4995 43.2437 44.7176 42.3641 45.2019Z" fill="#FFBF73"/>
<path d="M38.1048 40.2105L38.3562 41.7186C38.5514 42.415 39.6159 42.1312 39.4165 41.4212L39.166 39.9128C38.9688 39.2108 37.9078 39.5087 38.1048 40.2105Z" fill="#FFBF73"/>
<path d="M36.5719 37.9249C36.7244 38.3067 36.7256 38.3019 36.7328 38.3457C36.5352 38.4798 36.2942 38.5755 36.0585 38.6152C36.0334 38.5783 36.0381 38.5817 35.8851 38.1988C35.8208 38.0373 35.9216 37.8441 36.1114 37.7685C36.3128 37.6885 36.5116 37.7734 36.5719 37.9249Z" fill="#F5802E"/>
<path d="M39.1894 40.4352L39.5186 41.93C39.7114 42.6269 40.7772 42.3473 40.5809 41.6368L40.2517 40.1417C40.0576 39.439 38.9952 39.7331 39.1894 40.4352Z" fill="#FFBF73"/>
<path d="M35.0744 42.9664C35.0624 42.9795 35.048 42.991 35.0324 43.0008C34.5469 42.4985 34.1504 42.1225 34.1504 42.1225C34.2771 41.9835 34.5866 42.0603 34.8418 42.2932C35.0966 42.5265 35.2013 42.8281 35.0744 42.9664Z" fill="#F5802E"/>
<path d="M43.8619 22.5576H31.8295H31.4786H18.1596C17.1887 22.5576 17.1076 23.3558 17.2681 24.0443L18.799 31.2851H31.4785H31.8294H43.2226L44.7536 24.0443C44.9141 23.3558 44.833 22.5576 43.8619 22.5576Z" fill="#A2C0CC"/>
<path d="M44.136 50.9617L40.0324 52.0002L38.6699 47.3948L42.7734 46.356L44.136 50.9617Z" fill="#2D2D2D"/>
<path d="M20.2572 50.6005L16.7388 48.2474L19.2483 44.1519L22.7667 46.5052L20.2572 50.6005Z" fill="#2D2D2D"/>
<path d="M2.4668 19.4654L2.50258 15.2328L7.3041 15.0835L7.26747 19.3159L2.4668 19.4654Z" fill="#2D2D2D"/>
<path d="M0.612793 6.27336L2.7607 2.62549L6.99348 4.89743L4.84498 8.54443L0.612793 6.27336Z" fill="#2D2D2D"/>
<path d="M41.7183 23.356H20.304C19.5542 23.356 19.4911 24.0346 19.6162 24.62L20.7973 30.779H41.2238L42.4058 24.62C42.5301 24.0346 42.4676 23.356 41.7183 23.356Z" fill="#DAEFEC"/>
</svg>
