<svg width="94" height="93" viewBox="0 0 94 93" fill="none" xmlns="http://www.w3.org/2000/svg">
<g clip-path="url(#clip0_8_155)">
<path d="M70.7816 72.535C65.8458 72.535 61.1148 74.4653 57.6227 77.8938C57.33 78.1723 57.2422 78.5948 57.4081 78.9694C59.0468 82.7915 59.8955 86.9018 59.8955 91.0505C59.8955 91.3578 59.8955 91.6651 59.8662 91.9725C59.8369 92.5103 60.2564 92.9712 60.8026 93C60.8222 93 60.8417 93 60.8612 93H87.6179C88.7104 93 89.5981 92.1261 89.5981 91.0505C89.5884 80.8324 81.1702 72.5446 70.7913 72.535H70.7816Z" fill="#FFDE17"/>
<path d="M37.5575 61.251C46.7951 56.0363 49.9848 44.4449 44.6881 35.3504C39.3914 26.2559 27.6176 23.1156 18.38 28.3303C9.14246 33.545 5.95272 45.1364 11.2494 54.2309C14.6831 60.1274 21.0625 63.7671 27.9688 63.7671C31.3341 63.7383 34.6311 62.874 37.5673 61.251H37.5575ZM17.1997 38.6444C23.6768 43.5518 32.0949 45.2228 39.9961 43.158C40.0156 43.4461 40.0839 43.7247 40.0839 44.0224C39.9669 50.6199 34.436 55.8634 27.7347 55.7482C21.2089 55.633 15.9414 50.4471 15.8243 44.0224C15.8341 42.1497 16.3023 40.3154 17.19 38.654L17.1997 38.6444Z" fill="#FFDE17"/>
<path d="M53.955 91.0504C53.955 76.5204 41.9862 64.7369 27.2275 64.7369C12.4688 64.7369 0.5 76.5204 0.5 91.0504C0.5 92.126 1.38767 92.9999 2.48018 92.9999H51.9748C53.0673 92.9999 53.955 92.126 53.955 91.0504ZM24.2621 75.416C24.2621 73.8026 25.5887 72.4965 27.2275 72.4965C28.8663 72.4965 30.1929 73.8026 30.1929 75.416V81.082C30.1929 82.6954 28.8663 84.0015 27.2275 84.0015C25.5887 84.0015 24.2621 82.6954 24.2621 81.082V75.416Z" fill="#FFDE17"/>
<path d="M70.7817 45.5012C77.9123 45.5012 83.7065 51.1961 83.7065 58.2162C83.7065 65.2363 77.9221 70.9408 70.7817 70.9408C63.6414 70.9408 57.8569 65.246 57.8569 58.2162C57.8569 51.1865 63.6414 45.5012 70.7817 45.5012Z" fill="#FFDE17"/>
<path d="M92.388 36.6469L83.726 28.119C84.9648 25.5549 85.6184 22.7507 85.6281 19.908C85.7452 9.02729 76.8783 0.115271 65.8361 2.93646e-05C54.7842 -0.115212 45.732 8.61434 45.6149 19.4951C45.4979 30.3758 54.3648 39.2878 65.4167 39.4031C70.4013 39.4511 75.22 37.6744 78.9365 34.4189L86.7987 42.1593C88.3692 43.6574 90.8761 43.6094 92.3978 42.0632C93.8805 40.5555 93.8805 38.1546 92.3978 36.6469H92.388ZM65.8361 31.605C59.2713 31.605 53.9551 26.3712 53.9551 19.908C53.9551 13.4449 59.2713 8.211 65.8361 8.211C72.4009 8.211 77.7172 13.4449 77.7172 19.908C77.7172 26.3712 72.4009 31.605 65.8361 31.605Z" fill="#FFDE17"/>
</g>
<defs>
<clipPath id="clip0_8_155">
<rect width="93" height="93" fill="white" transform="translate(0.5)"/>
</clipPath>
</defs>
</svg>
