<svg width="66" height="52" viewBox="0 0 66 52" fill="none" xmlns="http://www.w3.org/2000/svg">
<path d="M55.8482 24.3309C55.8482 37.7688 44.9547 48.6622 31.5169 48.6622C18.079 48.6622 7.18579 37.7688 7.18579 24.3309C7.18579 10.8935 18.079 0 31.5169 0C44.9547 0 55.8482 10.8935 55.8482 24.3309Z" fill="#A54021"/>
<path d="M8.68382 18.8887H5.31641V15.6167H8.81607C9.21255 14.056 10.8769 13.738 12.4931 14.1182C13.3403 14.1386 14.4553 13.8412 15.4034 13.6674C16.0559 15.172 12.2804 15.4007 10.4586 15.5382L12.5878 20.9369C9.26671 21.17 8.68382 18.8887 8.68382 18.8887Z" fill="#F7A561"/>
<path d="M14.4024 13.8752C14.4018 13.8731 14.4005 13.8715 14.3999 13.8692C14.7418 13.7987 15.0326 13.6976 15.4004 13.6075C15.4492 13.7182 15.4756 13.8823 15.479 13.9796C15.4144 14.021 15.4092 14.0177 14.9719 14.1622C14.7352 14.2398 14.4804 14.1115 14.4024 13.8752Z" fill="#FFE2C5"/>
<path d="M17.8702 14.5703H10.4653C10.1821 14.5703 9.95142 14.8008 9.95142 15.084V19.4654C9.95142 19.749 10.1822 19.9795 10.4653 19.9795H17.8702C18.1531 19.9795 18.3832 19.749 18.3832 19.4654V15.084C18.3832 14.8008 18.1531 14.5703 17.8702 14.5703Z" fill="#4F4F4F"/>
<path d="M17.6156 19.4337H10.9163C10.8395 19.4337 10.7776 19.3717 10.7776 19.2952V15.2547C10.7776 15.1778 10.8395 15.1157 10.9163 15.1157H17.6156C17.6917 15.1157 17.7548 15.1779 17.7548 15.2547V19.2952C17.7549 19.3717 17.6917 19.4337 17.6156 19.4337Z" fill="#03ABE5"/>
<path d="M10.3349 17.4936C10.2141 17.4936 10.1162 17.3958 10.1162 17.275C10.1162 17.1542 10.2141 17.056 10.3349 17.056C10.4552 17.056 10.5541 17.1542 10.5541 17.275C10.554 17.3958 10.4551 17.4936 10.3349 17.4936Z" fill="#A8B3BD"/>
<path d="M16.4367 19.4337H14.9232L10.7776 15.6543V15.2547C10.7776 15.1778 10.8395 15.1157 10.9163 15.1157H11.7005L16.4367 19.4337Z" fill="#85D7E0"/>
<path d="M13.4988 20.9069L12.5244 20.3234L13.0843 20.4418L13.4988 20.9069Z" fill="#FFAF57"/>
<path d="M14.6548 21.0685L13.6804 20.4847L14.238 20.3234L14.6548 21.0685Z" fill="#FFAF57"/>
<path d="M15.7723 21.14L14.7976 20.5565L15.3554 20.395L15.7723 21.14Z" fill="#FFAF57"/>
<path d="M13.0896 20.4496C13.0798 20.6606 12.9712 20.7617 12.8168 20.8624C12.6 21.0021 12.3116 20.9402 12.1728 20.7236C12.1728 20.7236 11.3026 19.4413 11.0486 18.8532C11.0035 18.7478 10.8631 18.4885 11.2614 18.2849C11.4679 18.1788 11.7335 18.193 11.8891 18.4333L13.0896 20.4496Z" fill="#FCB87A"/>
<path d="M14.2011 18.6223L14.5057 19.0941C14.4968 18.9224 14.5755 18.7508 14.7305 18.6508C14.9851 18.4864 15.2845 18.5718 15.4257 18.7919L16.5213 20.4891C16.6699 20.7187 16.6039 21.0252 16.3738 21.1742L16.3641 21.1808C16.134 21.3289 15.8263 21.2634 15.6799 21.0331L15.4004 20.604C15.4093 20.8242 15.2977 20.9435 15.1311 21.0508C14.9138 21.1904 14.6271 21.1283 14.4865 20.9117L14.1885 20.4497C14.1682 20.887 13.5385 21.1375 13.2711 20.7237C13.2711 20.7237 11.9711 18.9438 12.0791 18.6289C12.1109 18.4815 12.2209 18.3558 12.3603 18.2849C12.5663 18.1789 12.8331 18.1931 12.9874 18.4333L13.2856 18.8952C13.3029 18.4741 13.9297 18.1996 14.2011 18.6223Z" fill="#FCB87A"/>
<path d="M14.8692 18.725C15.1003 18.6048 15.3401 18.8314 15.5151 19.3048L14.9779 19.6244C14.6059 19.1894 14.5969 18.8668 14.8692 18.725Z" fill="#FFE2C5"/>
<path d="M13.6965 18.5853C13.9422 18.4978 14.1356 18.6893 14.3416 19.1651L13.8046 19.4848C13.4328 19.0494 13.4058 18.6892 13.6965 18.5853Z" fill="#FFE2C5"/>
<path d="M12.4972 18.3808C12.7289 18.2618 12.9148 18.5285 13.1417 18.9605L12.6048 19.2803C12.2333 18.8441 12.166 18.5492 12.4972 18.3808Z" fill="#FFE2C5"/>
<path d="M11.3984 18.3808C11.6308 18.2618 11.8158 18.5285 12.0436 18.9605L11.5058 19.2803C11.1351 18.8441 11.0678 18.5492 11.3984 18.3808Z" fill="#FFE2C5"/>
<path d="M8.94121 9.42529C8.69313 9.31633 8.40358 9.42934 8.29472 9.67733L8.25093 9.77546C8.14227 10.0239 8.2544 10.3131 8.50316 10.4222L12.8172 12.3169C13.4124 12.578 13.8629 11.5873 13.2551 11.3199L8.94121 9.42529Z" fill="#FCB87A"/>
<path d="M8.60181 7.89478C8.35432 7.78573 8.06399 7.89875 7.95523 8.14683L7.91192 8.24534C7.80325 8.49351 7.91637 8.78258 8.16445 8.89192L11.3649 10.2978C11.9597 10.5589 12.4103 9.5678 11.8028 9.30077L8.60181 7.89478Z" fill="#FCB87A"/>
<path d="M8.79354 6.59754C8.54537 6.48849 8.25573 6.6017 8.14774 6.84948L8.10355 6.94819C7.99556 7.19598 8.10782 7.48524 8.35589 7.59429L11.5565 9.00049C12.1513 9.26152 12.6019 8.27017 11.9945 8.00363L8.79354 6.59754Z" fill="#FCB87A"/>
<path d="M7.14599 5.68819L6.18239 5.2655L4.88525 8.21874L5.86209 8.648C5.65791 10.1852 7.64234 10.9858 7.64234 10.9858C8.2168 11.5634 8.56648 12.0405 8.8279 12.4577C9.05925 12.8264 9.22197 13.1479 9.41184 13.4506C9.55851 13.3969 9.67985 13.3355 9.78078 13.2674C10.9956 12.4449 9.02861 10.6532 8.91424 10.4637L9.7362 9.77459L10.5474 6.1594C7.96158 4.79778 7.23812 5.56811 7.14599 5.68819Z" fill="#FCB87A"/>
<path d="M13.1945 11.4546C12.9939 11.3662 12.7595 11.4575 12.6713 11.6583C12.5835 11.8596 12.6749 12.0931 12.8756 12.1819L13.0185 12.2446C13.2193 12.3323 13.4535 12.2413 13.5418 12.0406C13.6295 11.8394 13.5383 11.6056 13.3381 11.5169L13.1945 11.4546Z" fill="#FFE2C5"/>
<path d="M10.0564 5.9436L11.8075 6.71297C12.3267 6.94104 11.9416 7.78804 11.4341 7.5649L9.6814 6.79535L10.0564 5.9436Z" fill="#FCB87A"/>
<path d="M8.82788 12.4578C9.05923 12.8264 9.22195 13.148 9.41182 13.4507C9.55848 13.397 9.67983 13.3356 9.78076 13.2675C9.75369 13.1534 9.73851 13.1524 9.33507 12.6024C9.21586 12.4405 9.00567 12.3862 8.82788 12.4578Z" fill="#FFE2C5"/>
<path d="M23.5128 11.3615C22.9654 11.9089 22.963 12.7962 23.5067 13.3402L32.1718 22.0052C32.7156 22.549 33.6028 22.5463 34.1503 21.9992L37.8333 18.3159L27.1957 7.67853L23.5128 11.3615Z" fill="#424242"/>
<path d="M32.8579 3.98975L41.5224 12.6548C42.0661 13.1982 42.0638 14.0859 41.5165 14.6329L37.8334 18.316L27.1958 7.67862L30.8789 3.99545C31.4259 3.44806 32.3138 3.44564 32.8579 3.98975Z" fill="#2D2D2D"/>
<path d="M31.7455 4.60984L39.5986 12.4633V15.4062L33.614 21.3909C33.5244 21.4804 33.3796 21.4804 33.2908 21.3912L24.127 12.2278C24.0381 12.1387 24.0381 11.9939 24.127 11.9046L31.4215 4.60984C31.5109 4.52051 31.6559 4.52051 31.7455 4.60984Z" fill="#DAEFEC"/>
<path d="M32.6058 10.6114L28.6804 14.5359L28.3801 14.2352L32.3046 10.3103L32.6058 10.6114Z" fill="#474646"/>
<path d="M30.8756 13.3512L29.1787 15.0486L29.4795 15.3494L31.1764 13.652L30.8756 13.3512Z" fill="#474646"/>
<path d="M29.4153 11.8885L27.718 13.5853L28.019 13.8864L29.7163 12.1896L29.4153 11.8885Z" fill="#E2340C"/>
<path d="M28.6113 5.38256L25.1553 8.83856L26.5171 10.2004L29.9731 6.74439L28.6113 5.38256Z" fill="#FEDD00"/>
<path d="M27.4679 5.58124L25.3848 7.66464L26.5465 8.82617L28.6296 6.74277L27.4679 5.58124Z" fill="#FCB715"/>
<path d="M37.4661 12.1218C37.6116 12.071 37.7708 12.1479 37.8219 12.2937L38.4329 14.0474C38.484 14.1931 38.407 14.3523 38.2617 14.4031L32.5864 16.3815C32.4405 16.4324 32.2813 16.3554 32.2307 16.2098L31.6191 14.4557C31.5687 14.3103 31.6455 14.151 31.7908 14.1003L37.4661 12.1218ZM37.342 11.7651L31.6665 13.7439C31.3245 13.8632 31.1433 14.2381 31.2629 14.58L31.8746 16.334C31.9935 16.676 32.369 16.8572 32.7103 16.7379L38.3855 14.7597C38.7274 14.6404 38.9089 14.2652 38.7894 13.9234L38.1783 12.1692C38.0587 11.8274 37.6838 11.6462 37.342 11.7651Z" fill="#E2340C"/>
<path d="M37.0375 12.9883L32.6865 14.5052L32.8109 14.8618L37.1618 13.345L37.0375 12.9883Z" fill="#E2340C"/>
<path d="M37.2654 13.6636L35.7781 14.1821L35.9023 14.5385L37.3897 14.02L37.2654 13.6636Z" fill="#E2340C"/>
<path d="M50.8998 21.8844V24.8272L49.4285 23.3558L50.8998 21.8844Z" fill="#3DC0CD"/>
<path d="M61.634 30.4252V29.0337H60.2424V30.4252H61.634ZM60.9382 29.397C61.1219 29.397 61.2711 29.546 61.2711 29.7298C61.2711 29.9134 61.1219 30.0623 60.9382 30.0623C60.7545 30.0623 60.606 29.9134 60.606 29.7298C60.6061 29.546 60.7545 29.397 60.9382 29.397Z" fill="#7D7F7F"/>
<path d="M43.8741 27.9879H56.0725C56.8684 27.9879 57.5133 27.3426 57.5133 26.5474V7.83203C57.5133 7.03627 56.8684 6.39124 56.0725 6.39124H43.8741C43.0786 6.39124 42.4333 7.03627 42.4333 7.83203V26.5474C42.4333 27.3425 43.0786 27.9879 43.8741 27.9879Z" fill="#474646"/>
<path d="M44.9897 8.72738V7.62282H43.8855V8.72738H44.9897ZM44.4375 7.91131C44.5843 7.91131 44.7019 8.02944 44.7019 8.17533C44.7019 8.32103 44.5842 8.43907 44.4375 8.43907C44.2922 8.43907 44.1739 8.32103 44.1739 8.17533C44.1739 8.02944 44.2922 7.91131 44.4375 7.91131Z" fill="#7D7F7F"/>
<path d="M47.917 26.6636C47.917 26.4791 48.0666 26.3292 48.2509 26.3292H51.6955C51.8804 26.3292 52.0296 26.4792 52.0296 26.6636C52.0296 26.8487 51.8804 26.9977 51.6955 26.9977H48.2509C48.0666 26.9977 47.917 26.8487 47.917 26.6636Z" fill="#4B4C4C"/>
<path d="M56.3121 9.82245H43.6348V26.0541H56.3121V9.82245Z" fill="#22ABEF"/>
<path d="M60.4469 30.1398L59.0128 29.5532C59.0128 29.5532 55.6842 30.1934 54.5643 30.3404L52.7756 29.6448C52.0992 29.1233 50.853 27.9878 50.853 27.9878H52.9128L53.7429 28.4296L54.8702 28.2923C54.8702 28.2923 54.5861 27.611 53.2395 27.2025C52.5184 26.9842 51.7872 26.8049 51.0616 26.6058C50.769 26.5353 50.5688 26.2611 50.5936 25.9607C50.6211 25.6176 50.9264 25.364 51.2687 25.4013L54.5467 25.7594C54.5467 25.7594 55.4763 25.3768 56.4696 25.55C57.4644 25.7255 57.9043 26.2202 57.9043 26.2202L62.3592 27.2443L60.4469 30.1398Z" fill="#FFC278"/>
<path d="M51.7627 26.4915L51.8877 25.7474C51.3174 25.5387 50.9045 25.5778 50.8506 25.8883C50.7791 26.3004 51.0717 26.4926 51.7627 26.4915Z" fill="#F5802E"/>
<path d="M51.2341 12.4492C51.951 12.4492 52.5324 13.0301 52.5324 13.7469C52.5324 14.4637 51.951 15.0446 51.2341 15.0446C50.5173 15.0446 49.9363 14.4636 49.9363 13.7469C49.9363 13.0301 50.5172 12.4492 51.2341 12.4492Z" fill="#F9ECDC"/>
<path d="M56.341 11.7095C56.6142 11.6323 56.8997 11.7919 56.9765 12.0664L57.0068 12.1748C57.0835 12.4492 56.9236 12.7339 56.6497 12.8112L51.8817 14.1501C51.2244 14.3345 50.9004 13.2371 51.5717 13.0481L56.341 11.7095Z" fill="#FFC278"/>
<path d="M56.9179 10.1661C57.192 10.0886 57.4767 10.2494 57.5541 10.5233L57.5847 10.632C57.6617 10.9059 57.5019 11.1907 57.2274 11.2684L53.6896 12.2614C53.0325 12.446 52.709 11.348 53.3801 11.1594L56.9179 10.1661Z" fill="#FFC278"/>
<path d="M56.9094 8.78781C57.1834 8.71076 57.468 8.87076 57.545 9.14503L57.575 9.25322C57.6521 9.52769 57.4922 9.8123 57.2183 9.88945L53.6805 10.8827C53.0232 11.0673 52.6995 9.9696 53.3713 9.78098L56.9094 8.78781Z" fill="#FFC278"/>
<path d="M58.7569 8.08368L61.2183 7.39253L62.1351 10.6567L59.6593 11.3518C59.6466 12.9822 57.4631 13.5241 57.4631 13.5241C56.7805 14.0411 56.3464 14.4863 56.0129 14.8816C55.7184 15.232 55.5015 15.5428 55.2607 15.8298C55.1165 15.7523 54.9975 15.6707 54.9025 15.5849C53.7592 14.5503 56.0692 12.9745 56.216 12.7938L55.4612 11.9562L55.1477 8.07489C58.0393 7.03646 58.6787 7.94456 58.7569 8.08368Z" fill="#FFC278"/>
<path d="M64.2428 5.90668L65.3875 9.98168L60.8195 11.4635L59.6743 7.38788L64.2428 5.90668Z" fill="#2D2D2D"/>
<path d="M64.8153 28.5033L62.8345 32.2446L59.0312 30.2633L61.0117 26.5221L64.8153 28.5033Z" fill="#2D2D2D"/>
<path d="M55.6906 7.92203L53.7549 8.46545C53.1812 8.62681 53.4583 9.5648 54.0194 9.40721L55.9553 8.86291L55.6906 7.92203Z" fill="#FFC278"/>
<path d="M56.0129 14.8815C55.7184 15.2319 55.5016 15.5427 55.2608 15.8297C55.1165 15.7522 54.9975 15.6706 54.9026 15.5848C54.9483 15.47 54.9639 15.4713 55.4649 14.9585C55.6122 14.8072 55.8386 14.7813 56.0129 14.8815Z" fill="#F5802E"/>
<path d="M51.4269 13.2894C51.7289 13.2045 52.0209 13.3044 52.0799 13.5117C52.1381 13.7199 51.9406 13.9566 51.6383 14.0417C51.3361 14.1266 51.0441 14.0269 50.9857 13.8193C50.9268 13.6112 51.1247 13.3738 51.4269 13.2894Z" fill="#F5802E"/>
<path d="M43.2229 32.8028H18.7993V41.36H43.2229V32.8028Z" fill="#FFBC00"/>
<path d="M43.2227 31.2851H18.7991V40.6071H43.2227V31.2851Z" fill="#DAEFEC"/>
<path d="M21.9283 34.9665C21.9283 35.1028 21.8204 35.2128 21.687 35.2128H20.1243C19.9908 35.2128 19.8826 35.1028 19.8826 34.9665V33.9221C19.8826 33.7858 19.9908 33.6758 20.1243 33.6758H21.687C21.8204 33.6758 21.9283 33.7858 21.9283 33.9221V34.9665Z" fill="#A2C0CC"/>
<path d="M24.4533 34.9665C24.4533 35.1028 24.3463 35.2128 24.2131 35.2128H22.6498C22.5168 35.2128 22.4094 35.1028 22.4094 34.9665V33.9221C22.4094 33.7858 22.5168 33.6758 22.6498 33.6758H24.2131C24.3463 33.6758 24.4533 33.7858 24.4533 33.9221V34.9665Z" fill="#36C6FF"/>
<path d="M26.9803 34.9665C26.9803 35.1028 26.8727 35.2128 26.7401 35.2128H25.1768C25.0433 35.2128 24.9353 35.1028 24.9353 34.9665V33.9221C24.9353 33.7858 25.0433 33.6758 25.1768 33.6758H26.7401C26.8728 33.6758 26.9803 33.7858 26.9803 33.9221V34.9665Z" fill="#36C6FF"/>
<path d="M29.5083 34.9665C29.5083 35.1028 29.4 35.2128 29.266 35.2128H27.7027C27.5699 35.2128 27.4617 35.1028 27.4617 34.9665V33.9221C27.4617 33.7858 27.5699 33.6758 27.7027 33.6758H29.266C29.4 33.6758 29.5083 33.7858 29.5083 33.9221V34.9665Z" fill="#36C6FF"/>
<path d="M32.0335 34.9665C32.0335 35.1028 31.9267 35.2128 31.7939 35.2128H30.2293C30.0965 35.2128 29.9883 35.1028 29.9883 34.9665V33.9221C29.9883 33.7858 30.0965 33.6758 30.2293 33.6758H31.7939C31.9267 33.6758 32.0335 33.7858 32.0335 33.9221V34.9665Z" fill="#FFBC00"/>
<path d="M34.5605 34.9665C34.5605 35.1028 34.4534 35.2128 34.32 35.2128H32.7555C32.6227 35.2128 32.5151 35.1028 32.5151 34.9665V33.9221C32.5151 33.7858 32.6227 33.6758 32.7555 33.6758H34.32C34.4534 33.6758 34.5605 33.7858 34.5605 33.9221V34.9665Z" fill="#FFBC00"/>
<path d="M37.0875 34.9665C37.0875 35.1028 36.9794 35.2128 36.8464 35.2128H35.2821C35.1491 35.2128 35.041 35.1028 35.041 34.9665V33.9221C35.041 33.7858 35.1491 33.6758 35.2821 33.6758H36.8464C36.9794 33.6758 37.0875 33.7858 37.0875 33.9221V34.9665Z" fill="#FFBC00"/>
<path d="M39.6132 34.9665C39.6132 35.1028 39.5052 35.2128 39.373 35.2128H37.8097C37.6756 35.2128 37.5688 35.1028 37.5688 34.9665V33.9221C37.5688 33.7858 37.6756 33.6758 37.8097 33.6758H39.373C39.5052 33.6758 39.6132 33.7858 39.6132 33.9221V34.9665Z" fill="#FFBC00"/>
<path d="M42.1398 34.9665C42.1398 35.1028 42.0323 35.2128 41.8994 35.2128H40.3355C40.2028 35.2128 40.0952 35.1028 40.0952 34.9665V33.9221C40.0952 33.7858 40.2028 33.6758 40.3355 33.6758H41.8994C42.0323 33.6758 42.1398 33.7858 42.1398 33.9221V34.9665Z" fill="#FFBC00"/>
<path d="M21.9283 36.8425C21.9283 36.9783 21.8204 37.0885 21.687 37.0885H20.1243C19.9908 37.0885 19.8826 36.9783 19.8826 36.8425V35.7971C19.8826 35.6612 19.9908 35.551 20.1243 35.551H21.687C21.8204 35.551 21.9283 35.6612 21.9283 35.7971V36.8425Z" fill="#A2C0CC"/>
<path d="M24.4533 36.8425C24.4533 36.9783 24.3463 37.0885 24.2131 37.0885H22.6498C22.5168 37.0885 22.4094 36.9783 22.4094 36.8425V35.7971C22.4094 35.6612 22.5168 35.551 22.6498 35.551H24.2131C24.3463 35.551 24.4533 35.6612 24.4533 35.7971V36.8425Z" fill="#A2C0CC"/>
<path d="M26.9803 36.8425C26.9803 36.9783 26.8727 37.0885 26.7401 37.0885H25.1768C25.0433 37.0885 24.9353 36.9783 24.9353 36.8425V35.7971C24.9353 35.6612 25.0433 35.551 25.1768 35.551H26.7401C26.8728 35.551 26.9803 35.6612 26.9803 35.7971V36.8425Z" fill="#A2C0CC"/>
<path d="M29.5083 36.8425C29.5083 36.9783 29.4 37.0885 29.266 37.0885H27.7027C27.5699 37.0885 27.4617 36.9783 27.4617 36.8425V35.7971C27.4617 35.6612 27.5699 35.551 27.7027 35.551H29.266C29.4 35.551 29.5083 35.6612 29.5083 35.7971V36.8425Z" fill="#FFBC00"/>
<path d="M32.0335 36.8425C32.0335 36.9783 31.9267 37.0885 31.7939 37.0885H30.2293C30.0965 37.0885 29.9883 36.9783 29.9883 36.8425V35.7971C29.9883 35.6612 30.0965 35.551 30.2293 35.551H31.7939C31.9267 35.551 32.0335 35.6612 32.0335 35.7971V36.8425Z" fill="#FFBC00"/>
<path d="M34.5605 36.8425C34.5605 36.9783 34.4534 37.0885 34.32 37.0885H32.7555C32.6227 37.0885 32.5151 36.9783 32.5151 36.8425V35.7971C32.5151 35.6612 32.6227 35.551 32.7555 35.551H34.32C34.4534 35.551 34.5605 35.6612 34.5605 35.7971V36.8425Z" fill="#FFBC00"/>
<path d="M37.0875 36.6727C37.0875 36.8082 36.9794 36.9185 36.8464 36.9185H35.2821C35.1491 36.9185 35.041 36.8082 35.041 36.6727V35.6273C35.041 35.4917 35.1491 35.3813 35.2821 35.3813H36.8464C36.9794 35.3813 37.0875 35.4918 37.0875 35.6273V36.6727Z" fill="#A2C0CC"/>
<path d="M39.6132 36.6727C39.6132 36.8082 39.5052 36.9185 39.373 36.9185H37.8097C37.6756 36.9185 37.5688 36.8082 37.5688 36.6727V35.6273C37.5688 35.4917 37.6756 35.3813 37.8097 35.3813H39.373C39.5052 35.3813 39.6132 35.4918 39.6132 35.6273V36.6727Z" fill="#A2C0CC"/>
<path d="M42.1398 36.8425C42.1398 36.9783 42.0323 37.0885 41.8994 37.0885H40.3355C40.2028 37.0885 40.0952 36.9783 40.0952 36.8425V35.7971C40.0952 35.6612 40.2028 35.551 40.3355 35.551H41.8994C42.0323 35.551 42.1398 35.6612 42.1398 35.7971V36.8425Z" fill="#FF9100"/>
<path d="M21.9283 38.7177C21.9283 38.8529 21.8204 38.9632 21.687 38.9632H20.1243C19.9908 38.9632 19.8826 38.8529 19.8826 38.7177V37.6718C19.8826 37.5363 19.9908 37.4258 20.1243 37.4258H21.687C21.8204 37.4258 21.9283 37.5363 21.9283 37.6718V38.7177Z" fill="#A2C0CC"/>
<path d="M24.4533 38.7177C24.4533 38.8529 24.3463 38.9632 24.2131 38.9632H22.6498C22.5168 38.9632 22.4094 38.8529 22.4094 38.7177V37.6718C22.4094 37.5363 22.5168 37.4258 22.6498 37.4258H24.2131C24.3463 37.4258 24.4533 37.5363 24.4533 37.6718V38.7177Z" fill="#A2C0CC"/>
<path d="M34.3201 37.4258H25.1768C25.0433 37.4258 24.9353 37.5363 24.9353 37.6718V38.7177C24.9353 38.8529 25.0433 38.9632 25.1768 38.9632H34.3201C34.4535 38.9632 34.5605 38.8529 34.5605 38.7177V37.6718C34.5605 37.5363 34.4535 37.4258 34.3201 37.4258Z" fill="#A2C0CC"/>
<path d="M37.0875 38.5477C37.0875 38.6832 36.9794 38.7937 36.8464 38.7937H35.2821C35.1491 38.7937 35.041 38.6832 35.041 38.5477V37.5023C35.041 37.3662 35.1491 37.256 35.2821 37.256H36.8464C36.9794 37.256 37.0875 37.3662 37.0875 37.5023V38.5477Z" fill="#A2C0CC"/>
<path d="M39.6132 38.5477C39.6132 38.6832 39.5052 38.7937 39.373 38.7937H37.8097C37.6756 38.7937 37.5688 38.6832 37.5688 38.5477V37.5023C37.5688 37.3662 37.6756 37.256 37.8097 37.256H39.373C39.5052 37.256 39.6132 37.3662 39.6132 37.5023V38.5477Z" fill="#A2C0CC"/>
<path d="M42.1398 38.5477C42.1398 38.6832 42.0323 38.7937 41.8994 38.7937H40.3355C40.2028 38.7937 40.0952 38.6832 40.0952 38.5477V37.5023C40.0952 37.3662 40.2028 37.256 40.3355 37.256H41.8994C42.0323 37.256 42.1398 37.3662 42.1398 37.5023V38.5477Z" fill="#A2C0CC"/>
<path d="M38.393 31.9821H37.5276V32.7334H38.393V31.9821Z" fill="#FF9100"/>
<path d="M40.2449 31.9821H39.3799V32.7334H40.2449V31.9821Z" fill="#FF9100"/>
<path d="M42.0979 31.9821H41.2329V32.7334H42.0979V31.9821Z" fill="#FF9100"/>
<path d="M27.7914 38.5959L25.3112 42.0364C24.8881 42.6228 23.9858 41.9899 24.4167 41.3917L26.8975 37.9512C27.3238 37.3596 28.2167 38.0047 27.7914 38.5959Z" fill="#FFBF73"/>
<path d="M23.3815 37.028L22.1233 40.3147C21.9083 40.875 21.0508 40.5593 21.2696 39.9879L22.5276 36.7011C22.744 36.1364 23.5979 36.4635 23.3815 37.028Z" fill="#FFBF73"/>
<path d="M19.725 43.6274C19.5014 44.1473 17.4646 47.5931 17.2134 47.9929L20.3853 49.8015C21.0551 48.9056 22.6096 46.2122 23.1304 45.5551C24.8764 45.8741 26.1675 44.0203 27.3723 43.2675C27.9646 42.8977 28.4403 42.6284 28.4403 42.6284C28.4403 42.6284 28.3262 41.784 27.4119 42.0845C26.4967 42.3845 25.0639 43.7513 24.9444 43.1629C24.8836 42.8619 25.6742 41.5365 25.6742 41.5365C25.6742 41.5365 24.141 40.5153 23.1633 40.1044C22.1852 39.6938 21.5359 39.6293 21.5359 39.6293C21.5359 39.6293 18.9896 42.9447 19.725 43.6274Z" fill="#FFBF73"/>
<path d="M26.6726 37.2455L24.5716 40.9304C24.2135 41.5582 23.2491 41.025 23.6145 40.3848L25.7149 36.6996C26.0765 36.0667 27.0329 36.6126 26.6726 37.2455Z" fill="#FFBF73"/>
<path d="M27.107 37.9699C26.8674 38.3036 26.8669 38.2982 26.8494 38.3393C27.0092 38.5174 27.2194 38.6686 27.4388 38.7638C27.4717 38.7344 27.4669 38.7361 27.7073 38.4025C27.8095 38.2611 27.7578 38.0491 27.5925 37.9295C27.4165 37.8033 27.2026 37.838 27.107 37.9699Z" fill="#F5802E"/>
<path d="M25.4781 37.1611L23.3922 40.8537C23.0358 41.4834 22.0697 40.9537 22.4332 40.3118L24.5188 36.6193C24.8774 35.9841 25.8368 36.5266 25.4781 37.1611Z" fill="#FFBF73"/>
<path d="M24.7299 36.6144C24.5275 36.9722 24.5268 36.9671 24.5137 37.01C24.6919 37.1694 24.9173 37.2969 25.1463 37.3672C25.1763 37.3341 25.171 37.3369 25.3734 36.9783C25.4593 36.8262 25.3842 36.6216 25.2063 36.5213C25.0182 36.4146 24.8098 36.4726 24.7299 36.6144Z" fill="#F5802E"/>
<path d="M22.6999 36.6714C22.5779 36.99 22.5768 36.9859 22.5713 37.0226C22.7373 37.1316 22.9378 37.2083 23.1342 37.2383C23.1546 37.2074 23.151 37.2098 23.2732 36.891C23.3248 36.7558 23.2381 36.5966 23.0796 36.5365C22.9126 36.4723 22.7479 36.5452 22.6999 36.6714Z" fill="#F5802E"/>
<path d="M27.3394 43.2236C27.3478 43.2396 27.3587 43.2543 27.3719 43.2676C27.9643 42.8978 28.4399 42.6285 28.4399 42.6285C28.3513 42.4634 28.0322 42.4628 27.728 42.6271C27.4241 42.7917 27.2498 43.059 27.3394 43.2236Z" fill="#F5802E"/>
<path d="M25.9265 36.6957C25.7229 37.0533 25.7222 37.0481 25.709 37.0908C25.8869 37.2512 26.1115 37.3792 26.3399 37.4503C26.37 37.4176 26.365 37.42 26.5693 37.0625C26.6551 36.9106 26.5813 36.7059 26.4041 36.6047C26.216 36.4976 26.007 36.5543 25.9265 36.6957Z" fill="#F5802E"/>
<path d="M25.7151 36.6996L23.8225 40.02L25.709 37.0908L25.7151 36.6996Z" fill="#F7A74F"/>
<path d="M35.757 38.3663L37.3304 42.3053C37.5991 42.9771 38.627 42.5813 38.3536 41.8967L36.7806 37.9575C36.5104 37.2806 35.4866 37.6898 35.757 38.3663Z" fill="#FFBF73"/>
<path d="M40.2797 40.3174L40.4907 41.8645C40.5633 42.46 41.4719 42.3615 41.3986 41.754L41.1875 40.2071C41.115 39.6067 40.2078 39.7169 40.2797 40.3174Z" fill="#FFBF73"/>
<path d="M42.3641 45.2018C42.456 45.7605 43.2755 49.6587 43.4233 50.1071L39.9073 51.0933C39.4748 50.0621 38.9401 47.0111 38.5934 46.2476C36.8222 46.1343 36.0188 44.0231 35.0324 43.001C34.5469 42.4985 34.1504 42.1217 34.1504 42.1217C34.1504 42.1217 34.4652 41.3307 35.2806 41.8436C36.0958 42.3563 37.1552 44.0296 37.4133 43.4871C37.5455 43.2101 37.0991 41.7325 37.0991 41.7325C39.5444 40.8595 40.8067 40.9101 41.2274 40.4994C41.2274 40.4994 43.2437 44.7175 42.3641 45.2018Z" fill="#FFBF73"/>
<path d="M38.1048 40.2106L38.3562 41.7187C38.5514 42.415 39.6159 42.1312 39.4165 41.4212L39.166 39.9128C38.9688 39.2108 37.9078 39.5088 38.1048 40.2106Z" fill="#FFBF73"/>
<path d="M36.5719 37.925C36.7244 38.3068 36.7256 38.302 36.7328 38.3458C36.5352 38.4799 36.2942 38.5756 36.0585 38.6154C36.0334 38.5784 36.0381 38.5818 35.8851 38.1989C35.8208 38.0374 35.9216 37.8442 36.1114 37.7686C36.3128 37.6886 36.5116 37.7735 36.5719 37.925Z" fill="#F5802E"/>
<path d="M39.1894 40.4353L39.5186 41.93C39.7114 42.627 40.7772 42.3474 40.5809 41.6369L40.2517 40.1417C40.0576 39.4391 38.9952 39.7332 39.1894 40.4353Z" fill="#FFBF73"/>
<path d="M35.0744 42.9662C35.0624 42.9793 35.048 42.9908 35.0324 43.0006C34.5469 42.4984 34.1504 42.1223 34.1504 42.1223C34.2771 41.9834 34.5866 42.0601 34.8418 42.293C35.0966 42.5263 35.2013 42.8279 35.0744 42.9662Z" fill="#F5802E"/>
<path d="M43.8619 22.5576H31.8295H31.4786H18.1596C17.1887 22.5576 17.1076 23.3558 17.2681 24.0443L18.799 31.2851H31.4785H31.8294H43.2226L44.7536 24.0443C44.9141 23.3558 44.833 22.5576 43.8619 22.5576Z" fill="#A2C0CC"/>
<path d="M44.136 50.9615L40.0324 52L38.6699 47.3945L42.7734 46.3557L44.136 50.9615Z" fill="#2D2D2D"/>
<path d="M20.2572 50.6005L16.7388 48.2473L19.2483 44.1518L22.7667 46.5052L20.2572 50.6005Z" fill="#2D2D2D"/>
<path d="M2.4668 19.4654L2.50258 15.2328L7.3041 15.0835L7.26747 19.3159L2.4668 19.4654Z" fill="#2D2D2D"/>
<path d="M0.612793 6.27348L2.7607 2.62561L6.99348 4.89756L4.84498 8.54455L0.612793 6.27348Z" fill="#2D2D2D"/>
<path d="M41.7183 23.3558H20.304C19.5542 23.3558 19.4911 24.0345 19.6162 24.6199L20.7973 30.7789H41.2238L42.4058 24.6199C42.5301 24.0345 42.4676 23.3558 41.7183 23.3558Z" fill="#DAEFEC"/>
</svg>
