<svg width="94" height="93" viewBox="0 0 94 93" fill="none" xmlns="http://www.w3.org/2000/svg">
<g clip-path="url(#clip0_8_169)">
<path d="M41.8356 23.5151C38.368 23.5151 35.3762 21.2559 34.6574 18.1127C15.8184 24.4384 6.07125 43.7594 12.89 61.2632C19.7088 78.767 40.5035 87.8234 59.3425 81.4879C78.1814 75.1523 87.9286 55.8313 81.1098 38.3275C79.1223 33.21 75.8239 28.6229 71.5106 24.9492C68.7302 22.6016 68.3391 18.6726 70.6014 15.8928C65.9075 13.0836 60.6851 11.1387 55.1983 10.1663C55.0292 11.3155 54.5534 12.396 53.8029 13.3193L47.6818 20.8139C46.2863 22.5034 44.1297 23.5053 41.8356 23.5053V23.5151ZM20.0683 52.3443C18.842 52.3149 17.8694 51.3719 17.9011 50.2325C17.9328 49.1324 18.8842 48.2483 20.0683 48.2189H24.2547C25.481 48.2483 26.4536 49.1913 26.4219 50.3307C26.3902 51.4308 25.4388 52.3247 24.2547 52.3443H20.0683ZM31.4964 67.3827L28.5363 70.133C27.68 70.9483 26.2634 70.9581 25.3859 70.1625C24.5084 69.3668 24.4979 68.0506 25.3542 67.2353C25.3542 67.2353 25.3753 67.2157 25.3859 67.2059L28.346 64.4556C29.2235 63.6599 30.6295 63.6698 31.4964 64.485C32.3421 65.2905 32.3421 66.5772 31.4964 67.3827ZM32.4267 36.5497C31.5598 37.3551 30.1538 37.3551 29.2763 36.5497L26.3162 33.7993C25.4388 33.0037 25.4282 31.6875 26.2845 30.8722C27.1408 30.0569 28.5574 30.0471 29.4349 30.8427C29.4349 30.8427 29.456 30.8624 29.4666 30.8722L32.4267 33.6225C33.2936 34.428 33.2936 35.7344 32.4267 36.5497ZM49.2781 76.5864C49.3098 77.7258 48.3372 78.6786 47.1109 78.7081C45.8846 78.7376 44.8591 77.8339 44.8274 76.6945V72.7065C44.7957 71.5671 45.7683 70.6143 46.9946 70.5947C48.221 70.5652 49.2464 71.4689 49.2781 72.6083V76.5962V76.5864ZM74.5658 48.2189C75.7922 48.2483 76.7648 49.1913 76.7331 50.3307C76.7013 51.4308 75.7499 52.3247 74.5658 52.3443H70.3794C69.1531 52.3738 68.1276 51.4701 68.0959 50.3307C68.0642 49.1913 69.0368 48.2385 70.2631 48.2189C70.2948 48.2189 70.3371 48.2189 70.3688 48.2189H74.5553H74.5658ZM62.662 32.5813L65.6221 29.831C66.4784 29.0158 67.895 29.0059 68.7725 29.8016C69.65 30.5972 69.6605 31.9134 68.8042 32.7287C68.8042 32.7287 68.7831 32.7483 68.7725 32.7581L65.8124 35.5085C64.9561 36.3237 63.5395 36.3336 62.662 35.5379C61.7845 34.7423 61.774 33.4261 62.6303 32.6108C62.6303 32.6108 62.6514 32.5912 62.662 32.5813ZM61.9114 63.935C62.7783 63.1295 64.1843 63.1295 65.0618 63.935L68.0219 66.6853C68.8782 67.5005 68.8571 68.8168 67.9796 69.6124C67.1127 70.3884 65.7384 70.3884 64.8715 69.6124L61.9114 66.8621C61.0445 66.0566 61.0445 64.7502 61.9114 63.935ZM49.2887 31.3044V46.991L54.3632 42.4727C55.23 41.6574 56.6361 41.6574 57.503 42.453C58.3804 43.2585 58.3804 44.5649 57.5241 45.3801C57.4924 45.4096 57.4713 45.4293 57.4395 45.4587L48.6015 53.3364C47.7135 54.132 46.3075 54.1026 45.4617 53.2775C45.06 52.8944 44.838 52.3836 44.838 51.8434V31.2848C44.8697 30.1453 45.8846 29.2417 47.1215 29.2711C48.3055 29.3006 49.2676 30.1846 49.2887 31.2848V31.3044Z" fill="#FFDE17"/>
<path d="M78.4141 17.9557C77.2406 16.9538 75.4117 17.0323 74.344 18.1227C73.2656 19.213 73.3502 20.9123 74.5237 21.9043C91.0897 36.0194 92.2103 59.9471 77.0186 75.3391C61.827 90.731 36.0741 91.7722 19.5081 77.6572C2.92098 63.5422 1.81094 39.6144 17.0026 24.2225C23.5042 17.6413 32.3 13.4078 41.8357 12.2684L39.5416 15.0777C38.5796 16.2564 38.8228 17.936 40.0914 18.8299C41.36 19.7237 43.1678 19.4978 44.1298 18.3191L50.2614 10.8245C51.1495 9.74401 51.012 8.21169 49.9654 7.26872L42.6497 0.746542C41.4974 -0.275004 39.6791 -0.245536 38.569 0.825123C37.4696 1.89578 37.5013 3.58526 38.6536 4.61663L41.2543 6.93476C15.7763 9.88152 -2.31206 31.4617 0.85948 55.1341C4.03102 78.8064 27.2572 95.6128 52.7352 92.6661C78.2132 89.7193 96.3016 68.1391 93.13 44.4668C91.7663 34.2906 86.5438 24.8904 78.4141 17.9557Z" fill="#FFDE17"/>
</g>
<defs>
<clipPath id="clip0_8_169">
<rect width="93" height="93" fill="white" transform="translate(0.5)"/>
</clipPath>
</defs>
</svg>
