<svg width="40" height="52" viewBox="0 0 40 52" fill="none" xmlns="http://www.w3.org/2000/svg">
<path d="M39.1411 0H0.858887V52H39.1411V0Z" fill="#FFC78F"/>
<path d="M35.4357 3.7207H4.56299V6.59019H35.4357V3.7207Z" fill="#F27D2F"/>
<path d="M35.4357 8.27344H19.9988V9.7241H35.4357V8.27344Z" fill="#5D5D5D"/>
<path d="M35.4357 11.5342H19.9988V12.9841H35.4357V11.5342Z" fill="#5D5D5D"/>
<path d="M35.4357 14.7942H19.9988V16.2449H35.4357V14.7942Z" fill="#5D5D5D"/>
<path d="M35.4357 18.0542H19.9988V19.5052H35.4357V18.0542Z" fill="#5D5D5D"/>
<path d="M35.4357 21.3145H19.9988V22.7651H35.4357V21.3145Z" fill="#5D5D5D"/>
<path d="M35.4357 24.5754H4.56299V26.0254H35.4357V24.5754Z" fill="#5D5D5D"/>
<path d="M35.4357 27.8352H4.56299V29.2851H35.4357V27.8352Z" fill="#5D5D5D"/>
<path d="M35.4357 31.0955H4.56299V32.5454H35.4357V31.0955Z" fill="#5D5D5D"/>
<path d="M35.4357 34.3552H4.56299V35.8051H35.4357V34.3552Z" fill="#5D5D5D"/>
<path d="M35.4357 37.6152H4.56299V39.0652H35.4357V37.6152Z" fill="#5D5D5D"/>
<path d="M22.1434 40.8752H4.56299V42.3252H22.1434V40.8752Z" fill="#5D5D5D"/>
<path d="M22.1434 44.1353H4.56299V45.5852H22.1434V44.1353Z" fill="#5D5D5D"/>
<path d="M28.4627 3.7207H4.56299V6.59019H28.4627V3.7207Z" fill="#C94706"/>
<path d="M17.4165 8.27344H4.56299V22.6051H17.4165V8.27344Z" fill="#F27D2F"/>
<path d="M35.4357 40.8752H24.3435V45.5852H35.4357V40.8752Z" fill="#C94706"/>
</svg>
