<svg width="50" height="50" viewBox="0 0 50 50" fill="none" xmlns="http://www.w3.org/2000/svg">
<path d="M25.0599 0.0297852C11.4599 0.0297852 0.439941 11.0598 0.439941 24.6498C0.439941 38.2398 11.4599 49.2698 25.0599 49.2698C38.6599 49.2698 49.6799 38.2498 49.6799 24.6498C49.6799 11.0498 38.6599 0.0297852 25.0599 0.0297852ZM37.4599 19.6898C37.4699 19.9598 37.4799 20.2198 37.4799 20.4898C37.4799 28.6898 31.2399 38.1498 19.8199 38.1498C16.3199 38.1498 13.0499 37.1198 10.3099 35.3598C10.7999 35.4198 11.2899 35.4498 11.7899 35.4498C14.6999 35.4498 17.3699 34.4598 19.4999 32.7898C16.7899 32.7398 14.4899 30.9398 13.6999 28.4798C14.0799 28.5498 14.4699 28.5898 14.8699 28.5898C15.4399 28.5898 15.9799 28.5198 16.4999 28.3698C13.6599 27.7998 11.5199 25.2898 11.5199 22.2898C11.5199 22.2598 11.5199 22.2398 11.5199 22.2098C12.3599 22.6798 13.3099 22.9498 14.3299 22.9898C12.6599 21.8698 11.5699 19.9798 11.5699 17.8198C11.5699 16.6798 11.8799 15.6198 12.4099 14.6998C15.4699 18.4498 20.0399 20.9298 25.1999 21.1798C25.0899 20.7298 25.0399 20.2498 25.0399 19.7698C25.0399 16.3398 27.8199 13.5598 31.2499 13.5598C33.0399 13.5598 34.6499 14.3098 35.7799 15.5198C37.1899 15.2398 38.5199 14.7298 39.7199 14.0098C39.2499 15.4598 38.2699 16.6798 36.9899 17.4398C38.2499 17.2898 39.4399 16.9598 40.5599 16.4598C39.7299 17.7098 38.6799 18.7998 37.4599 19.6698V19.6898Z" fill="#FFDE17"/>
</svg>
